NSW ACT Foundation-NSW ACT Foundation Regular.ufo
<glyph name="exclam" format="2">
  <advance width="196"/>
  <unicode hex="0021"/>
  <outline>
    <contour>
      <point x="153" y="629" type="line" smooth="yes"/>
      <point x="154" y="643"/>
      <point x="144" y="650"/>
      <point x="132" y="650" type="curve" smooth="yes"/>
      <point x="119" y="650"/>
      <point x="104" y="643"/>
      <point x="102" y="629" type="curve" smooth="yes"/>
      <point x="56" y="202" type="line" smooth="yes"/>
      <point x="54" y="185"/>
      <point x="67" y="176"/>
      <point x="79" y="175" type="curve" smooth="yes"/>
      <point x="91" y="174"/>
      <point x="105" y="183"/>
      <point x="107" y="202" type="curve" smooth="yes"/>
    </contour>
    <contour>
      <point x="64" y="-24" type="curve" smooth="yes"/>
      <point x="82" y="-24"/>
      <point x="97" y="-8"/>
      <point x="95" y="9" type="curve" smooth="yes"/>
      <point x="94" y="26"/>
      <point x="77" y="41"/>
      <point x="59" y="41" type="curve" smooth="yes"/>
      <point x="41" y="41"/>
      <point x="29" y="25"/>
      <point x="30" y="9" type="curve" smooth="yes"/>
      <point x="31" y="-7"/>
      <point x="46" y="-24"/>
    </contour>
  </outline>
</glyph>
<glyph name="quotedbl" format="2">
	<advance width="291"/>
	<unicode hex="0022"/>
	<outline>
		<contour>
			<point x="165" y="620" type="line" smooth="yes"/>
			<point x="167" y="640"/>
			<point x="154" y="650"/>
			<point x="141" y="650" type="curve" smooth="yes"/>
			<point x="129" y="650"/>
			<point x="115" y="641"/>
			<point x="113" y="624" type="curve" smooth="yes"/>
			<point x="103" y="528" type="line" smooth="yes"/>
			<point x="101" y="510"/>
			<point x="114" y="500"/>
			<point x="127" y="500" type="curve" smooth="yes"/>
			<point x="139" y="500"/>
			<point x="152" y="508"/>
			<point x="154" y="524" type="curve" smooth="yes"/>
		</contour>
		<contour>
			<point x="273" y="620" type="line" smooth="yes"/>
			<point x="274" y="640"/>
			<point x="262" y="650"/>
			<point x="248" y="650" type="curve" smooth="yes"/>
			<point x="236" y="650"/>
			<point x="224" y="642"/>
			<point x="222" y="628" type="curve" smooth="yes"/>
			<point x="211" y="528" type="line" smooth="yes"/>
			<point x="209" y="509"/>
			<point x="222" y="500"/>
			<point x="236" y="500" type="curve" smooth="yes"/>
			<point x="248" y="500"/>
			<point x="262" y="507"/>
			<point x="263" y="521" type="curve" smooth="yes"/>
		</contour>
	</outline>
</glyph>
<glyph name="numbersign" format="2">
	<advance width="664"/>
	<unicode hex="0023"/>
	<outline>
		<contour>
			<point x="269" y="543" type="line" smooth="yes"/>
			<point x="271" y="559"/>
			<point x="259" y="568"/>
			<point x="246" y="568" type="curve" smooth="yes"/>
			<point x="233" y="568"/>
			<point x="220" y="560"/>
			<point x="218" y="543" type="curve" smooth="yes"/>
			<point x="163" y="28" type="line" smooth="yes"/>
			<point x="161" y="10"/>
			<point x="172" y="0"/>
			<point x="184" y="0" type="curve" smooth="yes"/>
			<point x="197" y="-1"/>
			<point x="211" y="8"/>
			<point x="214" y="28" type="curve" smooth="yes"/>
		</contour>
		<contour>
			<point x="606" y="147" type="line" smooth="yes"/>
			<point x="623" y="147"/>
			<point x="631" y="159"/>
			<point x="630" y="170" type="curve" smooth="yes"/>
			<point x="629" y="181"/>
			<point x="621" y="192"/>
			<point x="603" y="192" type="curve" smooth="yes"/>
			<point x="58" y="192" type="line" smooth="yes"/>
			<point x="40" y="192"/>
			<point x="32" y="181"/>
			<point x="33" y="170" type="curve" smooth="yes"/>
			<point x="34" y="159"/>
			<point x="44" y="147"/>
			<point x="61" y="147" type="curve" smooth="yes"/>
		</contour>
		<contour>
			<point x="525" y="543" type="line" smooth="yes"/>
			<point x="527" y="559"/>
			<point x="515" y="567"/>
			<point x="503" y="568" type="curve" smooth="yes"/>
			<point x="490" y="568"/>
			<point x="476" y="560"/>
			<point x="474" y="543" type="curve" smooth="yes"/>
			<point x="419" y="28" type="line" smooth="yes"/>
			<point x="417" y="9"/>
			<point x="429" y="-1"/>
			<point x="442" y="0" type="curve" smooth="yes"/>
			<point x="455" y="0"/>
			<point x="468" y="9"/>
			<point x="470" y="28" type="curve" smooth="yes"/>
		</contour>
		<contour>
			<point x="630" y="384" type="line" smooth="yes"/>
			<point x="648" y="384"/>
			<point x="656" y="395"/>
			<point x="656" y="406" type="curve" smooth="yes"/>
			<point x="655" y="417"/>
			<point x="645" y="429"/>
			<point x="627" y="429" type="curve" smooth="yes"/>
			<point x="83" y="429" type="line" smooth="yes"/>
			<point x="65" y="429"/>
			<point x="57" y="417"/>
			<point x="58" y="406" type="curve" smooth="yes"/>
			<point x="58" y="395"/>
			<point x="68" y="384"/>
			<point x="86" y="384" type="curve" smooth="yes"/>
		</contour>
	</outline>
</glyph>
<glyph name="dollar" format="2">
  <advance width="493"/>
  <unicode hex="0024"/>
  <outline>
    <contour>
      <point x="150" y="0" type="line" smooth="yes"/>
      <point x="296.0" y="0.0"/>
      <point x="411.0" y="33.0"/>
      <point x="411" y="153" type="curve" smooth="yes"/>
      <point x="411" y="237"/>
      <point x="340" y="271"/>
      <point x="250" y="312" type="curve" smooth="yes"/>
      <point x="179" y="344"/>
      <point x="111" y="384"/>
      <point x="111" y="425" type="curve" smooth="yes"/>
      <point x="111.0" y="473"/>
      <point x="177.0" y="519.0"/>
      <point x="291" y="519" type="curve" smooth="yes"/>
      <point x="434" y="519" type="line" smooth="yes"/>
      <point x="449" y="519"/>
      <point x="456" y="532"/>
      <point x="455" y="545" type="curve" smooth="yes"/>
      <point x="454" y="557"/>
      <point x="445" y="569"/>
      <point x="426" y="569" type="curve" smooth="yes"/>
      <point x="288" y="569" type="line" smooth="yes"/>
      <point x="152.0" y="569.0"/>
      <point x="62.0" y="508.0"/>
      <point x="62" y="420" type="curve" smooth="yes"/>
      <point x="62" y="347"/>
      <point x="142" y="307"/>
      <point x="227" y="269" type="curve" smooth="yes"/>
      <point x="306" y="234"/>
      <point x="361" y="207"/>
      <point x="361.0" y="149" type="curve" smooth="yes"/>
      <point x="361.0" y="77.0"/>
      <point x="272" y="50.0"/>
      <point x="147" y="50" type="curve" smooth="yes"/>
      <point x="44" y="50" type="line" smooth="yes"/>
      <point x="28" y="50"/>
      <point x="17" y="37"/>
      <point x="18" y="24" type="curve" smooth="yes"/>
      <point x="19" y="12"/>
      <point x="28" y="0"/>
      <point x="47" y="0" type="curve" smooth="yes"/>
    </contour>
    <contour>
      <point x="302" y="618" type="line" smooth="yes"/>
      <point x="304" y="639"/>
      <point x="294" y="650"/>
      <point x="282" y="650" type="curve" smooth="yes"/>
      <point x="271" y="650"/>
      <point x="259" y="641"/>
      <point x="257" y="622" type="curve" smooth="yes"/>
      <point x="185" y="-51" type="line" smooth="yes"/>
      <point x="183" y="-70"/>
      <point x="194" y="-80"/>
      <point x="205" y="-80" type="curve" smooth="yes"/>
      <point x="216" y="-80"/>
      <point x="228" y="-71"/>
      <point x="230" y="-54" type="curve" smooth="yes"/>
    </contour>
  </outline>
</glyph>
<glyph name="percent" format="2">
  <advance width="500"/>
  <unicode hex="0025"/>
  <outline>
    <contour>
      <point x="405" y="526" type="line" smooth="yes"/>
      <point x="416" y="546"/>
      <point x="399" y="560"/>
      <point x="384" y="560" type="curve" smooth="yes"/>
      <point x="373" y="560"/>
      <point x="364" y="553"/>
      <point x="355" y="537" type="curve" smooth="yes"/>
      <point x="68" y="31" type="line" smooth="yes"/>
      <point x="58" y="13"/>
      <point x="74" y="0"/>
      <point x="90" y="0" type="curve" smooth="yes"/>
      <point x="101" y="0"/>
      <point x="110" y="6"/>
      <point x="118" y="20" type="curve" smooth="yes"/>
    </contour>
    <contour>
      <point x="315" y="-4" type="curve" smooth="yes"/>
      <point x="387" y="-4"/>
      <point x="461" y="107"/>
      <point x="461" y="178" type="curve" smooth="yes"/>
      <point x="461" y="221"/>
      <point x="435" y="245"/>
      <point x="385" y="245" type="curve" smooth="yes"/>
      <point x="343" y="245"/>
      <point x="314" y="217"/>
      <point x="297" y="188" type="curve" smooth="yes"/>
      <point x="285" y="164"/>
      <point x="266" y="119"/>
      <point x="266" y="67" type="curve" smooth="yes"/>
      <point x="266" y="14"/>
      <point x="285" y="-4"/>
    </contour>
    <contour>
      <point x="323" y="40" type="curve" smooth="yes"/>
      <point x="310" y="40"/>
      <point x="310" y="55"/>
      <point x="310" y="75" type="curve" smooth="yes"/>
      <point x="310" y="105"/>
      <point x="323" y="137"/>
      <point x="339" y="170" type="curve"/>
      <point x="352" y="192"/>
      <point x="364" y="200"/>
      <point x="383" y="200" type="curve" smooth="yes"/>
      <point x="407" y="200"/>
      <point x="416" y="193"/>
      <point x="416" y="170" type="curve" smooth="yes"/>
      <point x="416" y="127"/>
      <point x="358" y="40"/>
    </contour>
    <contour>
      <point x="91" y="315" type="curve" smooth="yes"/>
      <point x="163" y="315"/>
      <point x="237" y="426"/>
      <point x="237" y="497" type="curve" smooth="yes"/>
      <point x="237" y="540"/>
      <point x="211" y="564"/>
      <point x="161" y="564" type="curve" smooth="yes"/>
      <point x="119" y="564"/>
      <point x="90" y="536"/>
      <point x="73" y="507" type="curve" smooth="yes"/>
      <point x="61" y="483"/>
      <point x="42" y="438"/>
      <point x="42" y="386" type="curve" smooth="yes"/>
      <point x="42" y="333"/>
      <point x="61" y="315"/>
    </contour>
    <contour>
      <point x="99" y="359" type="curve" smooth="yes"/>
      <point x="86" y="359"/>
      <point x="86" y="374"/>
      <point x="86" y="394" type="curve" smooth="yes"/>
      <point x="86" y="424"/>
      <point x="99" y="456"/>
      <point x="115" y="489" type="curve"/>
      <point x="128" y="511"/>
      <point x="139" y="519"/>
      <point x="158" y="519" type="curve" smooth="yes"/>
      <point x="183" y="519"/>
      <point x="192" y="512"/>
      <point x="192" y="489" type="curve" smooth="yes"/>
      <point x="192" y="446"/>
      <point x="134" y="359"/>
    </contour>
  </outline>
</glyph>
<glyph name="ampersand" format="2">
	<advance width="459"/>
	<unicode hex="0026"/>
	<outline>
		<contour>
			<point x="371" y="14" type="line" smooth="yes"/>
			<point x="379" y="4"/>
			<point x="397" y="-7"/>
			<point x="412" y="4" type="curve" smooth="yes"/>
			<point x="424" y="14"/>
			<point x="420" y="29"/>
			<point x="411" y="41" type="curve" smooth="yes"/>
			<point x="202" y="317" type="line"/>
			<point x="132" y="324" type="line"/>
			<point x="74" y="279"/>
			<point x="37" y="227"/>
			<point x="32" y="178" type="curve" smooth="yes"/>
			<point x="23" y="103"/>
			<point x="84" y="-4"/>
			<point x="204" y="-4" type="curve" smooth="yes"/>
			<point x="294" y="-4"/>
			<point x="329" y="56"/>
			<point x="389" y="169" type="curve"/>
			<point x="396" y="181"/>
			<point x="391" y="195"/>
			<point x="379" y="201" type="curve" smooth="yes"/>
			<point x="366" y="208"/>
			<point x="351" y="203"/>
			<point x="343" y="190" type="curve"/>
			<point x="288" y="96"/>
			<point x="270" y="46"/>
			<point x="201" y="46" type="curve" smooth="yes"/>
			<point x="127" y="46"/>
			<point x="74" y="103"/>
			<point x="81" y="164" type="curve" smooth="yes"/>
			<point x="86" y="205"/>
			<point x="118" y="249"/>
			<point x="166" y="285" type="curve"/>
		</contour>
		<contour>
			<point x="185" y="335" type="line"/>
			<point x="164" y="363"/>
			<point x="114" y="424"/>
			<point x="112" y="455" type="curve" smooth="yes"/>
			<point x="110" y="487"/>
			<point x="154" y="518"/>
			<point x="211" y="518" type="curve" smooth="yes"/>
			<point x="255" y="518"/>
			<point x="273" y="500"/>
			<point x="278" y="486" type="curve" smooth="yes"/>
			<point x="290" y="449"/>
			<point x="222" y="383"/>
			<point x="126" y="319" type="curve"/>
			<point x="202" y="309" type="line"/>
			<point x="285" y="371"/>
			<point x="348" y="432"/>
			<point x="323" y="500" type="curve" smooth="yes"/>
			<point x="307" y="547"/>
			<point x="260" y="568"/>
			<point x="207" y="568" type="curve" smooth="yes"/>
			<point x="119" y="568"/>
			<point x="58" y="510"/>
			<point x="62" y="453" type="curve" smooth="yes"/>
			<point x="66" y="403"/>
			<point x="119" y="342"/>
			<point x="143" y="309" type="curve"/>
		</contour>
	</outline>
</glyph>
<glyph name="quotesingle" format="2">
	<advance width="118"/>
	<unicode hex="0027"/>
	<outline>
		<contour>
			<point x="132" y="620" type="line" smooth="yes"/>
			<point x="133" y="640"/>
			<point x="121" y="650"/>
			<point x="107" y="650" type="curve" smooth="yes"/>
			<point x="95" y="650"/>
			<point x="83" y="642"/>
			<point x="81" y="628" type="curve" smooth="yes"/>
			<point x="70" y="528" type="line" smooth="yes"/>
			<point x="68" y="509"/>
			<point x="81" y="500"/>
			<point x="95" y="500" type="curve" smooth="yes"/>
			<point x="107" y="500"/>
			<point x="121" y="507"/>
			<point x="122" y="521" type="curve" smooth="yes"/>
		</contour>
	</outline>
</glyph>
<glyph name="parenleft" format="2">
	<advance width="289"/>
	<unicode hex="0028"/>
	<outline>
		<contour>
			<point x="202" y="-297" type="curve" smooth="yes"/>
			<point x="209" y="-292"/>
			<point x="209" y="-278"/>
			<point x="200" y="-261" type="curve" smooth="yes"/>
			<point x="102" y="-81"/>
			<point x="78" y="77"/>
			<point x="93" y="219" type="curve" smooth="yes"/>
			<point x="107" y="347"/>
			<point x="173" y="480"/>
			<point x="291" y="607" type="curve" smooth="yes"/>
			<point x="307" y="625"/>
			<point x="308" y="639"/>
			<point x="301" y="646" type="curve" smooth="yes"/>
			<point x="292" y="654"/>
			<point x="274" y="651"/>
			<point x="256" y="633" type="curve" smooth="yes"/>
			<point x="133" y="506"/>
			<point x="48" y="329"/>
			<point x="37" y="219" type="curve" smooth="yes"/>
			<point x="23" y="94"/>
			<point x="63" y="-101"/>
			<point x="166" y="-283" type="curve" smooth="yes"/>
			<point x="175" y="-299"/>
			<point x="191" y="-303"/>
		</contour>
	</outline>
</glyph>
<glyph name="parenright" format="2">
	<advance width="281"/>
	<unicode hex="0029"/>
	<outline>
		<contour>
			<point x="-10" y="-274" type="curve" smooth="yes"/>
			<point x="-1" y="-284"/>
			<point x="16" y="-285"/>
			<point x="28" y="-273" type="curve" smooth="yes"/>
			<point x="164" y="-133"/>
			<point x="243" y="42"/>
			<point x="257" y="167" type="curve" smooth="yes"/>
			<point x="269" y="276"/>
			<point x="225" y="476"/>
			<point x="132" y="640" type="curve" smooth="yes"/>
			<point x="118" y="664"/>
			<point x="102" y="673"/>
			<point x="91" y="668" type="curve" smooth="yes"/>
			<point x="83" y="664"/>
			<point x="81" y="650"/>
			<point x="93" y="627" type="curve" smooth="yes"/>
			<point x="179" y="465"/>
			<point x="216" y="314"/>
			<point x="203" y="186" type="curve" smooth="yes"/>
			<point x="188" y="44"/>
			<point x="132" y="-100"/>
			<point x="-1" y="-240" type="curve" smooth="yes"/>
			<point x="-13" y="-253"/>
			<point x="-16" y="-267"/>
		</contour>
	</outline>
</glyph>
<glyph name="asterisk" format="2">
	<advance width="302"/>
	<unicode hex="002A"/>
	<outline>
		<contour>
			<point x="267" y="574" type="line" smooth="yes"/>
			<point x="283" y="584"/>
			<point x="285" y="598"/>
			<point x="279" y="607" type="curve" smooth="yes"/>
			<point x="273" y="614"/>
			<point x="261" y="617"/>
			<point x="246" y="608" type="curve" smooth="yes"/>
			<point x="116" y="524" type="line" smooth="yes"/>
			<point x="100" y="513"/>
			<point x="97" y="499"/>
			<point x="104" y="491" type="curve" smooth="yes"/>
			<point x="109" y="483"/>
			<point x="121" y="481"/>
			<point x="137" y="490" type="curve" smooth="yes"/>
		</contour>
		<contour>
			<point x="237" y="492" type="line" smooth="yes"/>
			<point x="250" y="482"/>
			<point x="263" y="484"/>
			<point x="270" y="492" type="curve" smooth="yes"/>
			<point x="274" y="499"/>
			<point x="273" y="511"/>
			<point x="260" y="521" type="curve" smooth="yes"/>
			<point x="146" y="606" type="line" smooth="yes"/>
			<point x="133" y="616"/>
			<point x="121" y="614"/>
			<point x="116" y="606" type="curve" smooth="yes"/>
			<point x="109" y="599"/>
			<point x="110" y="586"/>
			<point x="124" y="576" type="curve" smooth="yes"/>
		</contour>
		<contour>
			<point x="218" y="623" type="line" smooth="yes"/>
			<point x="220" y="641"/>
			<point x="212" y="650"/>
			<point x="203" y="650" type="curve" smooth="yes"/>
			<point x="193" y="650"/>
			<point x="181" y="641"/>
			<point x="179" y="623" type="curve" smooth="yes"/>
			<point x="164" y="475" type="line" smooth="yes"/>
			<point x="162" y="458"/>
			<point x="170" y="450"/>
			<point x="179" y="448" type="curve" smooth="yes"/>
			<point x="189" y="447"/>
			<point x="201" y="456"/>
			<point x="203" y="475" type="curve" smooth="yes"/>
		</contour>
	</outline>
</glyph>
<glyph name="plus" format="2">
	<advance width="410"/>
	<unicode hex="002B"/>
	<outline>
		<contour>
			<point x="242" y="304" type="line" smooth="yes"/>
			<point x="243" y="323"/>
			<point x="231" y="334"/>
			<point x="219" y="334" type="curve" smooth="yes"/>
			<point x="209" y="334"/>
			<point x="199" y="327"/>
			<point x="197" y="311" type="curve" smooth="yes"/>
			<point x="174" y="87" type="line" smooth="yes"/>
			<point x="172" y="68"/>
			<point x="185" y="57"/>
			<point x="197" y="57" type="curve" smooth="yes"/>
			<point x="207" y="57"/>
			<point x="217" y="64"/>
			<point x="218" y="80" type="curve" smooth="yes"/>
		</contour>
		<contour>
			<point x="323" y="175" type="line" smooth="yes"/>
			<point x="341" y="175"/>
			<point x="349" y="187"/>
			<point x="348" y="198" type="curve" smooth="yes"/>
			<point x="347" y="209"/>
			<point x="338" y="220"/>
			<point x="320" y="220" type="curve" smooth="yes"/>
			<point x="93" y="220" type="line" smooth="yes"/>
			<point x="75" y="220"/>
			<point x="66" y="209"/>
			<point x="67" y="198" type="curve" smooth="yes"/>
			<point x="68" y="187"/>
			<point x="78" y="175"/>
			<point x="96" y="175" type="curve" smooth="yes"/>
		</contour>
	</outline>
</glyph>
<glyph name="comma" format="2">
	<advance width="180"/>
	<unicode hex="002C"/>
	<outline>
		<contour>
			<point x="100" y="21" type="line" smooth="yes"/>
			<point x="101" y="39"/>
			<point x="90" y="49"/>
			<point x="77" y="50" type="curve" smooth="yes"/>
			<point x="63" y="52"/>
			<point x="51" y="45"/>
			<point x="49" y="28" type="curve" smooth="yes"/>
			<point x="39" y="-71" type="line" smooth="yes"/>
			<point x="37" y="-89"/>
			<point x="48" y="-99"/>
			<point x="60" y="-101" type="curve" smooth="yes"/>
			<point x="72" y="-103"/>
			<point x="87" y="-96"/>
			<point x="88" y="-78" type="curve" smooth="yes"/>
		</contour>
	</outline>
</glyph>
<glyph name="hyphen" format="2">
	<advance width="331"/>
	<unicode hex="002D"/>
	<outline>
		<contour>
			<point x="244" y="175" type="line" smooth="yes"/>
			<point x="262" y="175"/>
			<point x="270" y="186"/>
			<point x="269" y="198" type="curve" smooth="yes"/>
			<point x="268" y="209"/>
			<point x="259" y="220"/>
			<point x="241" y="220" type="curve" smooth="yes"/>
			<point x="93" y="220" type="line" smooth="yes"/>
			<point x="74" y="220"/>
			<point x="65" y="208"/>
			<point x="67" y="196" type="curve" smooth="yes"/>
			<point x="69" y="185"/>
			<point x="79" y="175"/>
			<point x="96" y="175" type="curve" smooth="yes"/>
		</contour>
	</outline>
</glyph>
<glyph name="period" format="2">
  <advance width="164"/>
  <unicode hex="002E"/>
  <outline>
    <contour>
      <point x="48" y="-6" type="curve" smooth="yes"/>
      <point x="68" y="-6"/>
      <point x="85" y="12"/>
      <point x="83" y="33" type="curve" smooth="yes"/>
      <point x="82" y="53"/>
      <point x="63" y="70"/>
      <point x="43" y="70" type="curve" smooth="yes"/>
      <point x="22" y="70"/>
      <point x="7" y="53"/>
      <point x="8" y="33" type="curve" smooth="yes"/>
      <point x="10" y="13"/>
      <point x="27" y="-6"/>
    </contour>
  </outline>
</glyph>
<glyph name="slash" format="2">
	<advance width="336"/>
	<unicode hex="002F"/>
	<outline>
		<contour>
			<point x="318" y="616" type="line" smooth="yes"/>
			<point x="325" y="637"/>
			<point x="310" y="650"/>
			<point x="295" y="650" type="curve" smooth="yes"/>
			<point x="284" y="650"/>
			<point x="273" y="644"/>
			<point x="267" y="627" type="curve" smooth="yes"/>
			<point x="52" y="31" type="line" smooth="yes"/>
			<point x="45" y="12"/>
			<point x="60" y="0"/>
			<point x="76" y="0" type="curve" smooth="yes"/>
			<point x="87" y="0"/>
			<point x="98" y="6"/>
			<point x="103" y="20" type="curve" smooth="yes"/>
		</contour>
	</outline>
</glyph>
<glyph name="zero" format="2">
	<advance width="445"/>
	<unicode hex="0030"/>
	<outline>
		<contour>
			<point x="162" y="-4" type="curve" smooth="yes"/>
			<point x="285" y="-3"/>
			<point x="438" y="228"/>
			<point x="426" y="402" type="curve" smooth="yes"/>
			<point x="421" y="477"/>
			<point x="385" y="568"/>
			<point x="279" y="568" type="curve" smooth="yes"/>
			<point x="90" y="568"/>
			<point x="33" y="280"/>
			<point x="42" y="160" type="curve" smooth="yes"/>
			<point x="47" y="81"/>
			<point x="87" y="-4"/>
		</contour>
		<contour>
			<point x="158" y="47" type="curve" smooth="yes"/>
			<point x="127" y="47"/>
			<point x="99" y="84"/>
			<point x="94" y="155" type="curve" smooth="yes"/>
			<point x="85" y="279"/>
			<point x="148" y="517"/>
			<point x="285" y="517" type="curve" smooth="yes"/>
			<point x="350" y="517"/>
			<point x="370" y="463"/>
			<point x="374" y="405" type="curve" smooth="yes"/>
			<point x="387" y="212"/>
			<point x="223" y="47"/>
		</contour>
	</outline>
</glyph>
<glyph name="one" format="2">
  <advance width="445"/>
  <unicode hex="0031"/>
  <outline>
    <contour>
      <point x="256" y="543" type="line" smooth="yes"/>
      <point x="258" y="560"/>
      <point x="246" y="568"/>
      <point x="233" y="568" type="curve" smooth="yes"/>
      <point x="220" y="568"/>
      <point x="207" y="561"/>
      <point x="205" y="543" type="curve" smooth="yes"/>
      <point x="150" y="28" type="line" smooth="yes"/>
      <point x="148" y="9"/>
      <point x="161" y="0"/>
      <point x="174" y="0" type="curve" smooth="yes"/>
      <point x="186" y="0"/>
      <point x="199" y="6"/>
      <point x="200" y="23" type="curve" smooth="yes"/>
    </contour>
  </outline>
</glyph>
<glyph name="two" format="2">
	<advance width="445"/>
	<unicode hex="0032"/>
	<outline>
		<contour>
			<point x="79" y="0" type="line"/>
			<point x="126" y="49" type="line"/>
			<point x="178" y="115"/>
			<point x="296" y="263"/>
			<point x="308" y="278" type="curve" smooth="yes"/>
			<point x="422" y="431"/>
			<point x="428" y="501"/>
			<point x="346" y="549" type="curve" smooth="yes"/>
			<point x="274" y="591"/>
			<point x="157" y="558"/>
			<point x="98" y="505" type="curve" smooth="yes"/>
			<point x="75" y="485"/>
			<point x="80" y="472"/>
			<point x="89" y="463" type="curve" smooth="yes"/>
			<point x="97" y="454"/>
			<point x="113" y="451"/>
			<point x="137" y="471" type="curve" smooth="yes"/>
			<point x="186" y="513"/>
			<point x="281" y="531"/>
			<point x="326" y="505" type="curve" smooth="yes"/>
			<point x="378" y="475"/>
			<point x="331" y="393"/>
			<point x="283" y="332" type="curve" smooth="yes"/>
			<point x="259" y="301"/>
			<point x="164" y="185"/>
			<point x="40" y="35" type="curve" smooth="yes"/>
			<point x="24" y="16"/>
			<point x="36" y="0"/>
			<point x="58" y="0" type="curve"/>
		</contour>
		<contour>
			<point x="75" y="0" type="line"/>
			<point x="330" y="0" type="line" smooth="yes"/>
			<point x="350" y="0"/>
			<point x="355" y="13"/>
			<point x="354" y="25" type="curve" smooth="yes"/>
			<point x="353" y="37"/>
			<point x="347" y="50"/>
			<point x="327" y="50" type="curve" smooth="yes"/>
			<point x="72" y="50" type="line"/>
		</contour>
	</outline>
</glyph>
<glyph name="three" format="2">
	<advance width="445"/>
	<unicode hex="0033"/>
	<outline>
		<contour>
			<point x="126" y="275" type="line"/>
			<point x="172" y="296"/>
			<point x="210" y="305"/>
			<point x="238" y="305" type="curve" smooth="yes"/>
			<point x="297" y="305"/>
			<point x="318" y="266"/>
			<point x="321" y="225" type="curve" smooth="yes"/>
			<point x="328" y="125"/>
			<point x="216" y="47"/>
			<point x="128" y="47" type="curve" smooth="yes"/>
			<point x="104" y="47"/>
			<point x="81" y="53"/>
			<point x="63" y="66" type="curve" smooth="yes"/>
			<point x="38" y="84"/>
			<point x="25" y="72"/>
			<point x="20" y="65" type="curve" smooth="yes"/>
			<point x="16" y="58"/>
			<point x="12" y="45"/>
			<point x="38" y="25" type="curve" smooth="yes"/>
			<point x="64" y="5"/>
			<point x="96" y="-4"/>
			<point x="130" y="-4" type="curve" smooth="yes"/>
			<point x="244" y="-4"/>
			<point x="380" y="98"/>
			<point x="371" y="226" type="curve" smooth="yes"/>
			<point x="366" y="303"/>
			<point x="311" y="354"/>
			<point x="228" y="354" type="curve" smooth="yes"/>
			<point x="192" y="354"/>
			<point x="151" y="345"/>
			<point x="106" y="324" type="curve"/>
		</contour>
		<contour>
			<point x="124" y="273" type="curve" smooth="yes"/>
			<point x="241" y="355"/>
			<point x="353" y="437"/>
			<point x="349" y="499" type="curve" smooth="yes"/>
			<point x="346" y="542"/>
			<point x="305" y="568"/>
			<point x="246" y="568" type="curve" smooth="yes"/>
			<point x="198" y="568"/>
			<point x="137" y="551"/>
			<point x="80" y="511" type="curve" smooth="yes"/>
			<point x="56" y="495"/>
			<point x="63" y="478"/>
			<point x="68" y="470" type="curve" smooth="yes"/>
			<point x="75" y="460"/>
			<point x="91" y="455"/>
			<point x="104" y="464" type="curve" smooth="yes"/>
			<point x="162" y="505"/>
			<point x="218" y="522"/>
			<point x="255" y="522" type="curve" smooth="yes"/>
			<point x="282" y="522"/>
			<point x="298" y="513"/>
			<point x="299" y="499" type="curve" smooth="yes"/>
			<point x="301" y="466"/>
			<point x="173" y="368"/>
			<point x="93" y="316" type="curve" smooth="yes"/>
			<point x="77" y="305"/>
			<point x="81" y="288"/>
			<point x="85" y="280" type="curve" smooth="yes"/>
			<point x="91" y="270"/>
			<point x="110" y="263"/>
		</contour>
	</outline>
</glyph>
<glyph name="four" format="2">
  <advance width="445"/>
  <unicode hex="0034"/>
  <outline>
    <contour>
      <point x="129" y="540" type="line" smooth="yes"/>
      <point x="131" y="558"/>
      <point x="118" y="568"/>
      <point x="106" y="568" type="curve" smooth="yes"/>
      <point x="94" y="568"/>
      <point x="81" y="562"/>
      <point x="79" y="544" type="curve" smooth="yes"/>
      <point x="37" y="159" type="line" smooth="yes"/>
      <point x="36" y="147"/>
      <point x="46" y="135"/>
      <point x="64" y="135" type="curve" smooth="yes"/>
      <point x="81" y="135"/>
      <point x="87" y="148"/>
      <point x="88" y="160" type="curve" smooth="yes"/>
    </contour>
    <contour>
      <point x="259" y="282" type="line" smooth="yes"/>
      <point x="261" y="299"/>
      <point x="249" y="309"/>
      <point x="237" y="311" type="curve" smooth="yes"/>
      <point x="224" y="313"/>
      <point x="211" y="306"/>
      <point x="209" y="289" type="curve" smooth="yes"/>
      <point x="180" y="31" type="line" smooth="yes"/>
      <point x="177" y="11"/>
      <point x="189" y="1"/>
      <point x="202" y="0" type="curve" smooth="yes"/>
      <point x="214" y="-1"/>
      <point x="228" y="6"/>
      <point x="230" y="26" type="curve" smooth="yes"/>
    </contour>
    <contour>
      <point x="65" y="135" type="line"/>
      <point x="364" y="135" type="line" smooth="yes"/>
      <point x="380" y="135"/>
      <point x="389" y="146"/>
      <point x="388" y="158" type="curve" smooth="yes"/>
      <point x="387" y="170"/>
      <point x="376" y="180"/>
      <point x="360" y="180" type="curve" smooth="yes"/>
      <point x="61" y="180" type="line"/>
    </contour>
  </outline>
</glyph>
<glyph name="five" format="2">
	<advance width="445"/>
	<unicode hex="0035"/>
	<outline>
		<contour>
			<point x="103" y="288" type="line"/>
			<point x="139" y="299"/>
			<point x="167" y="304"/>
			<point x="192" y="304" type="curve" smooth="yes"/>
			<point x="271" y="304"/>
			<point x="308" y="252"/>
			<point x="311" y="211" type="curve" smooth="yes"/>
			<point x="316" y="149"/>
			<point x="247" y="47"/>
			<point x="150" y="47" type="curve" smooth="yes"/>
			<point x="125" y="47"/>
			<point x="102" y="54"/>
			<point x="87" y="67" type="curve" smooth="yes"/>
			<point x="80" y="74"/>
			<point x="73" y="76"/>
			<point x="66" y="76" type="curve" smooth="yes"/>
			<point x="53" y="76"/>
			<point x="42" y="67"/>
			<point x="43" y="54" type="curve" smooth="yes"/>
			<point x="44" y="46"/>
			<point x="48" y="37"/>
			<point x="58" y="28" type="curve" smooth="yes"/>
			<point x="80" y="8"/>
			<point x="114" y="-3"/>
			<point x="153" y="-3" type="curve" smooth="yes"/>
			<point x="284" y="-3"/>
			<point x="367" y="125"/>
			<point x="361" y="212" type="curve" smooth="yes"/>
			<point x="356" y="287"/>
			<point x="287" y="354"/>
			<point x="185" y="354" type="curve" smooth="yes"/>
			<point x="157" y="354"/>
			<point x="130" y="349"/>
			<point x="95" y="337" type="curve"/>
		</contour>
		<contour>
			<point x="145" y="541" type="line"/>
			<point x="126" y="568" type="line"/>
			<point x="116" y="568"/>
			<point x="108" y="566"/>
			<point x="104" y="562" type="curve" smooth="yes"/>
			<point x="99" y="558"/>
			<point x="95" y="551"/>
			<point x="94" y="541" type="curve" smooth="yes"/>
			<point x="69" y="310" type="line" smooth="yes"/>
			<point x="67" y="295"/>
			<point x="81" y="286"/>
			<point x="94" y="286" type="curve" smooth="yes"/>
			<point x="106" y="286"/>
			<point x="118" y="294"/>
			<point x="120" y="310" type="curve" smooth="yes"/>
		</contour>
		<contour>
			<point x="128" y="523" type="line"/>
			<point x="372" y="523" type="line" smooth="yes"/>
			<point x="392" y="523"/>
			<point x="398" y="533"/>
			<point x="397" y="545" type="curve" smooth="yes"/>
			<point x="396" y="557"/>
			<point x="389" y="568"/>
			<point x="369" y="568" type="curve" smooth="yes"/>
			<point x="125" y="568" type="line"/>
		</contour>
	</outline>
</glyph>
<glyph name="six" format="2">
	<advance width="445"/>
	<unicode hex="0036"/>
	<outline>
		<contour>
			<point x="118" y="113" type="line"/>
			<point x="111" y="209"/>
			<point x="140" y="288"/>
			<point x="203" y="387" type="curve" smooth="yes"/>
			<point x="227" y="425"/>
			<point x="270" y="471"/>
			<point x="341" y="523" type="curve" smooth="yes"/>
			<point x="352" y="530"/>
			<point x="355" y="540"/>
			<point x="355" y="548" type="curve" smooth="yes"/>
			<point x="353" y="559"/>
			<point x="344" y="568"/>
			<point x="331" y="568" type="curve" smooth="yes"/>
			<point x="325" y="568"/>
			<point x="318" y="566"/>
			<point x="311" y="562" type="curve" smooth="yes"/>
			<point x="266" y="535"/>
			<point x="188" y="460"/>
			<point x="157" y="412" type="curve" smooth="yes"/>
			<point x="96" y="316"/>
			<point x="62" y="213"/>
			<point x="69" y="113" type="curve"/>
		</contour>
		<contour>
			<point x="69" y="114" type="line"/>
			<point x="73" y="53"/>
			<point x="125" y="0"/>
			<point x="193" y="0" type="curve" smooth="yes"/>
			<point x="295" y="0"/>
			<point x="393" y="149"/>
			<point x="385" y="257" type="curve" smooth="yes"/>
			<point x="381" y="321"/>
			<point x="340" y="353"/>
			<point x="268" y="353" type="curve" smooth="yes"/>
			<point x="181" y="353"/>
			<point x="124" y="306"/>
			<point x="93" y="244" type="curve"/>
		</contour>
		<contour>
			<point x="188" y="50" type="curve" smooth="yes"/>
			<point x="155" y="50"/>
			<point x="122" y="78"/>
			<point x="118" y="135" type="curve" smooth="yes"/>
			<point x="112" y="215"/>
			<point x="167" y="303"/>
			<point x="270" y="303" type="curve" smooth="yes"/>
			<point x="311" y="303"/>
			<point x="333" y="289"/>
			<point x="335" y="251" type="curve" smooth="yes"/>
			<point x="341" y="173"/>
			<point x="258" y="50"/>
		</contour>
	</outline>
</glyph>
<glyph name="seven" format="2">
	<advance width="445"/>
	<unicode hex="0037"/>
	<outline>
		<contour>
			<point x="352" y="544" type="line" smooth="yes"/>
			<point x="353" y="556"/>
			<point x="346" y="568"/>
			<point x="326" y="568" type="curve" smooth="yes"/>
			<point x="315" y="568"/>
			<point x="304" y="560"/>
			<point x="303" y="549" type="curve" smooth="yes"/>
			<point x="246" y="26" type="line" smooth="yes"/>
			<point x="244" y="8"/>
			<point x="256" y="0"/>
			<point x="269" y="0" type="curve" smooth="yes"/>
			<point x="281" y="0"/>
			<point x="294" y="8"/>
			<point x="296" y="26" type="curve" smooth="yes"/>
		</contour>
		<contour>
			<point x="330" y="523" type="line"/>
			<point x="327" y="568" type="line"/>
			<point x="80" y="568" type="line" smooth="yes"/>
			<point x="62" y="568"/>
			<point x="54" y="557"/>
			<point x="55" y="546" type="curve" smooth="yes"/>
			<point x="56" y="534"/>
			<point x="65" y="523"/>
			<point x="83" y="523" type="curve" smooth="yes"/>
		</contour>
	</outline>
</glyph>
<glyph name="eight" format="2">
	<advance width="445"/>
	<unicode hex="0038"/>
	<outline>
		<contour>
			<point x="228" y="321" type="line"/>
			<point x="161" y="325" type="line"/>
			<point x="76" y="259"/>
			<point x="56" y="185"/>
			<point x="60" y="132" type="curve" smooth="yes"/>
			<point x="64" y="74"/>
			<point x="98" y="-4"/>
			<point x="195" y="-4" type="curve" smooth="yes"/>
			<point x="299" y="-4"/>
			<point x="349" y="84"/>
			<point x="345" y="149" type="curve" smooth="yes"/>
			<point x="340" y="208"/>
			<point x="290" y="266"/>
			<point x="244" y="307" type="curve" smooth="yes"/>
		</contour>
		<contour>
			<point x="209" y="273" type="line" smooth="yes"/>
			<point x="246" y="238"/>
			<point x="291" y="190"/>
			<point x="294" y="149" type="curve" smooth="yes"/>
			<point x="297" y="105"/>
			<point x="255" y="45"/>
			<point x="198" y="45" type="curve" smooth="yes"/>
			<point x="148" y="45"/>
			<point x="112" y="90"/>
			<point x="108" y="139" type="curve" smooth="yes"/>
			<point x="106" y="178"/>
			<point x="123" y="231"/>
			<point x="196" y="285" type="curve"/>
		</contour>
		<contour>
			<point x="230" y="312" type="line"/>
			<point x="307" y="368"/>
			<point x="384" y="431"/>
			<point x="380" y="488" type="curve" smooth="yes"/>
			<point x="376" y="542"/>
			<point x="300" y="568"/>
			<point x="241" y="568" type="curve" smooth="yes"/>
			<point x="168" y="568"/>
			<point x="84" y="529"/>
			<point x="90" y="442" type="curve" smooth="yes"/>
			<point x="94" y="386"/>
			<point x="134" y="350"/>
			<point x="161" y="323" type="curve"/>
			<point x="203" y="349" type="line"/>
			<point x="178" y="371"/>
			<point x="144" y="405"/>
			<point x="141" y="447" type="curve" smooth="yes"/>
			<point x="137" y="504"/>
			<point x="194" y="518"/>
			<point x="235" y="518" type="curve" smooth="yes"/>
			<point x="271" y="518"/>
			<point x="332" y="507"/>
			<point x="333" y="488" type="curve" smooth="yes"/>
			<point x="335" y="462"/>
			<point x="232" y="369"/>
			<point x="160" y="322" type="curve"/>
		</contour>
	</outline>
</glyph>
<glyph name="nine" format="2">
  <advance width="445"/>
  <unicode hex="0039"/>
  <outline>
    <contour>
      <point x="369" y="546" type="line" smooth="yes"/>
      <point x="370" y="558"/>
      <point x="363" y="568"/>
      <point x="351" y="568" type="curve"/>
      <point x="320" y="568" type="line"/>
      <point x="263" y="24" type="line" smooth="yes"/>
      <point x="261" y="8"/>
      <point x="274" y="0"/>
      <point x="286" y="0" type="curve" smooth="yes"/>
      <point x="299" y="0"/>
      <point x="311" y="8"/>
      <point x="313" y="24" type="curve" smooth="yes"/>
    </contour>
    <contour>
      <point x="303" y="315" type="curve"/>
      <point x="318" y="470" type="line"/>
      <point x="310" y="470" type="line"/>
      <point x="301" y="381"/>
      <point x="216" y="264"/>
      <point x="179" y="264" type="curve" smooth="yes"/>
      <point x="151" y="264"/>
      <point x="142" y="295"/>
      <point x="143" y="323" type="curve" smooth="yes"/>
      <point x="145" y="399"/>
      <point x="173" y="518"/>
      <point x="247" y="518" type="curve" smooth="yes"/>
      <point x="323" y="518" type="line"/>
      <point x="328" y="568" type="line"/>
      <point x="247" y="568" type="line" smooth="yes"/>
      <point x="134" y="568"/>
      <point x="94" y="425"/>
      <point x="93" y="313" type="curve" smooth="yes"/>
      <point x="93" y="238"/>
      <point x="138" y="214"/>
      <point x="179" y="214" type="curve" smooth="yes"/>
      <point x="223" y="214"/>
      <point x="269" y="259"/>
    </contour>
  </outline>
</glyph>
<glyph name="colon" format="2">
	<advance width="141"/>
	<unicode hex="003A"/>
	<outline>
		<contour>
			<point x="55" y="-30" type="curve" smooth="yes"/>
			<point x="76" y="-30"/>
			<point x="93" y="-12"/>
			<point x="91" y="9" type="curve" smooth="yes"/>
			<point x="90" y="29"/>
			<point x="71" y="46"/>
			<point x="50" y="46" type="curve" smooth="yes"/>
			<point x="29" y="46"/>
			<point x="14" y="29"/>
			<point x="15" y="9" type="curve" smooth="yes"/>
			<point x="17" y="-11"/>
			<point x="34" y="-30"/>
		</contour>
		<contour>
			<point x="77" y="175" type="curve" smooth="yes"/>
			<point x="97" y="175"/>
			<point x="113" y="194"/>
			<point x="112" y="214" type="curve" smooth="yes"/>
			<point x="111" y="235"/>
			<point x="91" y="251"/>
			<point x="71" y="251" type="curve" smooth="yes"/>
			<point x="50" y="251"/>
			<point x="36" y="234"/>
			<point x="37" y="214" type="curve" smooth="yes"/>
			<point x="38" y="195"/>
			<point x="56" y="175"/>
		</contour>
	</outline>
</glyph>
<glyph name="semicolon" format="2">
  <advance width="164"/>
  <unicode hex="003B"/>
  <outline>
    <contour>
      <point x="74" y="21" type="line" smooth="yes"/>
      <point x="75" y="39"/>
      <point x="64" y="49"/>
      <point x="51" y="50" type="curve" smooth="yes"/>
      <point x="37" y="52"/>
      <point x="25" y="45"/>
      <point x="23" y="28" type="curve" smooth="yes"/>
      <point x="13" y="-71" type="line" smooth="yes"/>
      <point x="11" y="-90"/>
      <point x="24" y="-101"/>
      <point x="37" y="-102" type="curve" smooth="yes"/>
      <point x="48" y="-103"/>
      <point x="61" y="-95"/>
      <point x="62" y="-78" type="curve" smooth="yes"/>
    </contour>
    <contour>
      <point x="70" y="175" type="curve" smooth="yes"/>
      <point x="90" y="175"/>
      <point x="106" y="194"/>
      <point x="105" y="214" type="curve" smooth="yes"/>
      <point x="104" y="235"/>
      <point x="84" y="251"/>
      <point x="64" y="251" type="curve" smooth="yes"/>
      <point x="43" y="251"/>
      <point x="29" y="234"/>
      <point x="30" y="214" type="curve" smooth="yes"/>
      <point x="31" y="195"/>
      <point x="49" y="175"/>
    </contour>
  </outline>
</glyph>
<glyph name="less" format="2">
	<advance width="380"/>
	<unicode hex="003C"/>
	<outline>
		<contour>
			<point x="105" y="177" type="line"/>
			<point x="312" y="290" type="line" smooth="yes"/>
			<point x="331" y="300"/>
			<point x="333" y="312"/>
			<point x="328" y="323" type="curve" smooth="yes"/>
			<point x="324" y="333"/>
			<point x="312" y="343"/>
			<point x="294" y="333" type="curve" smooth="yes"/>
			<point x="76" y="214" type="line"/>
		</contour>
		<contour>
			<point x="265" y="63" type="line" smooth="yes"/>
			<point x="281" y="53"/>
			<point x="294" y="54"/>
			<point x="302" y="64" type="curve" smooth="yes"/>
			<point x="309" y="75"/>
			<point x="305" y="89"/>
			<point x="289" y="99" type="curve" smooth="yes"/>
			<point x="103" y="212" type="line" smooth="yes"/>
			<point x="87" y="222"/>
			<point x="77" y="217"/>
			<point x="71" y="207" type="curve" smooth="yes"/>
			<point x="63" y="196"/>
			<point x="64" y="186"/>
			<point x="80" y="176" type="curve" smooth="yes"/>
		</contour>
	</outline>
</glyph>
<glyph name="equal" format="2">
	<advance width="410"/>
	<unicode hex="003D"/>
	<outline>
		<contour>
			<point x="330" y="248" type="line" smooth="yes"/>
			<point x="348" y="248"/>
			<point x="356" y="260"/>
			<point x="355" y="271" type="curve" smooth="yes"/>
			<point x="354" y="282"/>
			<point x="345" y="293"/>
			<point x="327" y="293" type="curve" smooth="yes"/>
			<point x="100" y="293" type="line" smooth="yes"/>
			<point x="82" y="293"/>
			<point x="73" y="282"/>
			<point x="74" y="271" type="curve" smooth="yes"/>
			<point x="75" y="260"/>
			<point x="85" y="248"/>
			<point x="103" y="248" type="curve" smooth="yes"/>
		</contour>
		<contour>
			<point x="314" y="97" type="line" smooth="yes"/>
			<point x="332" y="97"/>
			<point x="340" y="108"/>
			<point x="340" y="120" type="curve" smooth="yes"/>
			<point x="339" y="131"/>
			<point x="329" y="142"/>
			<point x="311" y="142" type="curve" smooth="yes"/>
			<point x="84" y="142" type="line" smooth="yes"/>
			<point x="66" y="142"/>
			<point x="58" y="131"/>
			<point x="59" y="120" type="curve" smooth="yes"/>
			<point x="59" y="109"/>
			<point x="69" y="97"/>
			<point x="87" y="97" type="curve" smooth="yes"/>
		</contour>
	</outline>
</glyph>
<glyph name="greater" format="2">
	<advance width="340"/>
	<unicode hex="003E"/>
	<outline>
		<contour>
			<point x="288" y="179" type="line"/>
			<point x="260" y="216" type="line"/>
			<point x="53" y="103" type="line" smooth="yes"/>
			<point x="33" y="93"/>
			<point x="31" y="81"/>
			<point x="36" y="70" type="curve" smooth="yes"/>
			<point x="41" y="60"/>
			<point x="53" y="50"/>
			<point x="71" y="60" type="curve" smooth="yes"/>
		</contour>
		<contour>
			<point x="261" y="181" type="line" smooth="yes"/>
			<point x="277" y="171"/>
			<point x="288" y="176"/>
			<point x="294" y="186" type="curve" smooth="yes"/>
			<point x="301" y="197"/>
			<point x="301" y="207"/>
			<point x="285" y="217" type="curve" smooth="yes"/>
			<point x="100" y="330" type="line" smooth="yes"/>
			<point x="83" y="340"/>
			<point x="70" y="339"/>
			<point x="63" y="329" type="curve" smooth="yes"/>
			<point x="56" y="318"/>
			<point x="60" y="304"/>
			<point x="75" y="294" type="curve" smooth="yes"/>
		</contour>
	</outline>
</glyph>
<glyph name="question" format="2">
	<advance width="451"/>
	<unicode hex="003F"/>
	<outline>
		<contour>
			<point x="206" y="272" type="line"/>
			<point x="362" y="272"/>
			<point x="424" y="364"/>
			<point x="439" y="503" type="curve" smooth="yes"/>
			<point x="447" y="582"/>
			<point x="374" y="654"/>
			<point x="283" y="654" type="curve" smooth="yes"/>
			<point x="168" y="654"/>
			<point x="109" y="590"/>
			<point x="98" y="495" type="curve" smooth="yes"/>
			<point x="96" y="473"/>
			<point x="102" y="460"/>
			<point x="113" y="457" type="curve" smooth="yes"/>
			<point x="126" y="454"/>
			<point x="146" y="463"/>
			<point x="148" y="485" type="curve" smooth="yes"/>
			<point x="154" y="542"/>
			<point x="188" y="604"/>
			<point x="273" y="604" type="curve" smooth="yes"/>
			<point x="339" y="604"/>
			<point x="395" y="568"/>
			<point x="389" y="507" type="curve" smooth="yes"/>
			<point x="384" y="461"/>
			<point x="369" y="322"/>
			<point x="207" y="322" type="curve"/>
		</contour>
		<contour>
			<point x="177" y="-24" type="curve" smooth="yes"/>
			<point x="195" y="-24"/>
			<point x="210" y="-9"/>
			<point x="209" y="7" type="curve" smooth="yes"/>
			<point x="207" y="26"/>
			<point x="191" y="41"/>
			<point x="172" y="41" type="curve" smooth="yes"/>
			<point x="155" y="41"/>
			<point x="142" y="25"/>
			<point x="144" y="7" type="curve" smooth="yes"/>
			<point x="145" y="-8"/>
			<point x="160" y="-24"/>
		</contour>
		<contour>
			<point x="233" y="303" type="line" smooth="yes"/>
			<point x="233" y="310"/>
			<point x="225" y="322"/>
			<point x="205" y="322" type="curve" smooth="yes"/>
			<point x="194" y="322"/>
			<point x="183" y="314"/>
			<point x="182" y="303" type="curve" smooth="yes"/>
			<point x="171" y="202" type="line" smooth="yes"/>
			<point x="170" y="188"/>
			<point x="181" y="178"/>
			<point x="193" y="175" type="curve" smooth="yes"/>
			<point x="206" y="173"/>
			<point x="219" y="180"/>
			<point x="222" y="202" type="curve" smooth="yes"/>
		</contour>
	</outline>
</glyph>
<glyph name="at" format="2">
  <advance width="657"/>
  <unicode hex="0040"/>
  <outline>
    <contour>
      <point x="568" y="98" type="line"/>
      <point x="602" y="153"/>
      <point x="614" y="204"/>
      <point x="615" y="238" type="curve" smooth="yes"/>
      <point x="626" y="403"/>
      <point x="538" y="476"/>
      <point x="381" y="476" type="curve" smooth="yes"/>
      <point x="291" y="476"/>
      <point x="192" y="458"/>
      <point x="138" y="418" type="curve" smooth="yes"/>
      <point x="54" y="356"/>
      <point x="20" y="228"/>
      <point x="14" y="124" type="curve" smooth="yes"/>
      <point x="5" y="-20"/>
      <point x="65" y="-118"/>
      <point x="212" y="-118" type="curve" smooth="yes"/>
      <point x="266" y="-118"/>
      <point x="307" y="-105"/>
      <point x="339" y="-84" type="curve" smooth="yes"/>
      <point x="375" y="-60"/>
      <point x="382" y="-36"/>
      <point x="370" y="-22" type="curve" smooth="yes"/>
      <point x="361" y="-11"/>
      <point x="348" y="-15"/>
      <point x="328" y="-29" type="curve" smooth="yes"/>
      <point x="286" y="-60"/>
      <point x="242" y="-68"/>
      <point x="205" y="-68" type="curve" smooth="yes"/>
      <point x="94" y="-68"/>
      <point x="55" y="4"/>
      <point x="65" y="123" type="curve" smooth="yes"/>
      <point x="72" y="192"/>
      <point x="92" y="317"/>
      <point x="167" y="375" type="curve" smooth="yes"/>
      <point x="210" y="409"/>
      <point x="298" y="426"/>
      <point x="382" y="426" type="curve" smooth="yes"/>
      <point x="504" y="426"/>
      <point x="572" y="379"/>
      <point x="567" y="256" type="curve" smooth="yes"/>
      <point x="565" y="214"/>
      <point x="551" y="166"/>
      <point x="525" y="125" type="curve"/>
    </contour>
    <contour>
      <point x="453" y="300" type="line"/>
      <point x="408" y="300" type="line"/>
      <point x="383" y="253"/>
      <point x="354" y="204"/>
      <point x="316" y="152" type="curve" smooth="yes"/>
      <point x="261" y="76"/>
      <point x="226" y="46"/>
      <point x="207" y="46" type="curve" smooth="yes"/>
      <point x="193" y="46"/>
      <point x="192" y="61"/>
      <point x="191" y="77" type="curve" smooth="yes"/>
      <point x="188" y="115"/>
      <point x="200" y="205"/>
      <point x="223" y="244" type="curve" smooth="yes"/>
      <point x="250" y="289"/>
      <point x="300" y="299"/>
      <point x="334" y="299" type="curve" smooth="yes"/>
      <point x="341" y="299"/>
      <point x="409" y="299"/>
      <point x="417" y="299" type="curve"/>
      <point x="428" y="299" type="line"/>
      <point x="428" y="301"/>
      <point x="425" y="346"/>
      <point x="425" y="349" type="curve"/>
      <point x="413" y="349"/>
      <point x="351" y="349"/>
      <point x="331" y="349" type="curve" smooth="yes"/>
      <point x="274" y="349"/>
      <point x="216" y="332"/>
      <point x="182" y="275" type="curve" smooth="yes"/>
      <point x="153" y="227"/>
      <point x="137" y="130"/>
      <point x="141" y="72" type="curve" smooth="yes"/>
      <point x="145" y="21"/>
      <point x="169" y="0"/>
      <point x="202" y="0" type="curve" smooth="yes"/>
      <point x="260" y="0"/>
      <point x="306" y="49"/>
      <point x="344" y="101" type="curve" smooth="yes"/>
      <point x="388" y="162"/>
      <point x="430" y="239"/>
      <point x="450" y="291" type="curve" smooth="yes"/>
    </contour>
    <contour>
      <point x="532" y="135" type="line"/>
      <point x="506" y="92"/>
      <point x="465" y="48"/>
      <point x="449" y="48" type="curve" smooth="yes"/>
      <point x="438" y="48"/>
      <point x="439" y="66"/>
      <point x="439" y="78" type="curve" smooth="yes"/>
      <point x="437" y="93"/>
      <point x="440" y="124"/>
      <point x="441" y="132" type="curve" smooth="yes"/>
      <point x="462" y="327" type="line" smooth="yes"/>
      <point x="464" y="343"/>
      <point x="458" y="349"/>
      <point x="443" y="349" type="curve" smooth="yes"/>
      <point x="413" y="349" type="line"/>
      <point x="391" y="146" type="line" smooth="yes"/>
      <point x="388" y="122"/>
      <point x="387" y="95"/>
      <point x="389" y="75" type="curve" smooth="yes"/>
      <point x="392" y="26"/>
      <point x="411" y="0"/>
      <point x="447" y="0" type="curve" smooth="yes"/>
      <point x="500" y="0"/>
      <point x="540" y="54"/>
      <point x="573" y="105" type="curve"/>
    </contour>
  </outline>
</glyph>
<glyph name="A" format="2">
	<advance width="433"/>
	<unicode hex="0041"/>
	<outline>
		<contour>
			<point x="306" y="619" type="line"/>
			<point x="307" y="625" type="line" smooth="yes"/>
			<point x="311" y="636"/>
			<point x="302" y="650"/>
			<point x="283" y="650" type="curve" smooth="yes"/>
			<point x="261" y="650"/>
			<point x="260" y="639"/>
			<point x="254" y="625" type="curve" smooth="yes"/>
			<point x="-13" y="32" type="line" smooth="yes"/>
			<point x="-22" y="12"/>
			<point x="-9" y="0"/>
			<point x="6" y="0" type="curve" smooth="yes"/>
			<point x="26" y="0"/>
			<point x="31" y="7"/>
			<point x="38" y="25" type="curve" smooth="yes"/>
		</contour>
		<contour>
			<point x="162" y="327" type="line"/>
			<point x="321" y="327" type="line"/>
			<point x="313" y="372" type="line"/>
			<point x="181" y="372" type="line"/>
		</contour>
		<contour>
			<point x="308" y="635" type="line"/>
			<point x="270" y="563" type="line"/>
			<point x="354" y="19" type="line" smooth="yes"/>
			<point x="355" y="9"/>
			<point x="359" y="0"/>
			<point x="381" y="0" type="curve"/>
			<point x="399" y="0"/>
			<point x="404" y="11"/>
			<point x="402" y="26" type="curve" smooth="yes"/>
		</contour>
	</outline>
</glyph>
<glyph name="B" format="2">
	<advance width="443"/>
	<unicode hex="0042"/>
	<outline>
		<contour>
			<point x="89" y="300" type="line"/>
			<point x="392" y="300"/>
			<point x="415" y="367"/>
			<point x="427" y="475" type="curve" smooth="yes"/>
			<point x="440" y="593"/>
			<point x="333" y="650"/>
			<point x="108" y="650" type="curve"/>
			<point x="102" y="605" type="line"/>
			<point x="288" y="605"/>
			<point x="386" y="565"/>
			<point x="377" y="477" type="curve" smooth="yes"/>
			<point x="369" y="405"/>
			<point x="361" y="350"/>
			<point x="94" y="350" type="curve"/>
		</contour>
		<contour>
			<point x="39" y="0" type="line"/>
			<point x="330" y="0"/>
			<point x="405" y="31"/>
			<point x="417" y="144" type="curve" smooth="yes"/>
			<point x="430" y="270"/>
			<point x="300" y="350"/>
			<point x="90" y="350" type="curve"/>
			<point x="86" y="300" type="line"/>
			<point x="276" y="300"/>
			<point x="376" y="239"/>
			<point x="367" y="151" type="curve" smooth="yes"/>
			<point x="358" y="66"/>
			<point x="253" y="45"/>
			<point x="43" y="45" type="curve"/>
		</contour>
		<contour>
			<point x="130" y="619" type="line" smooth="yes"/>
			<point x="132" y="641"/>
			<point x="127" y="650"/>
			<point x="108" y="650" type="curve" smooth="yes"/>
			<point x="91" y="650"/>
			<point x="82" y="643"/>
			<point x="80" y="623" type="curve" smooth="yes"/>
			<point x="18" y="31" type="line" smooth="yes"/>
			<point x="16" y="14"/>
			<point x="27" y="0"/>
			<point x="44" y="0" type="curve" smooth="yes"/>
			<point x="58" y="0"/>
			<point x="66" y="9"/>
			<point x="68" y="29" type="curve" smooth="yes"/>
		</contour>
	</outline>
</glyph>
<glyph name="C" format="2">
	<advance width="444"/>
	<unicode hex="0043"/>
	<outline>
		<contour>
			<point x="427" y="584" type="curve" smooth="yes"/>
			<point x="437" y="580"/>
			<point x="454" y="578"/>
			<point x="462" y="595" type="curve" smooth="yes"/>
			<point x="470" y="611"/>
			<point x="460" y="625"/>
			<point x="450" y="629" type="curve" smooth="yes"/>
			<point x="419" y="642"/>
			<point x="387" y="649"/>
			<point x="300" y="649" type="curve" smooth="yes"/>
			<point x="145" y="649"/>
			<point x="66" y="510"/>
			<point x="49" y="338" type="curve" smooth="yes"/>
			<point x="48" y="318"/>
			<point x="37" y="218"/>
			<point x="40" y="172" type="curve" smooth="yes"/>
			<point x="46" y="85"/>
			<point x="81" y="-4"/>
			<point x="207" y="-4" type="curve" smooth="yes"/>
			<point x="297" y="-4"/>
			<point x="377" y="60"/>
			<point x="406" y="119" type="curve" smooth="yes"/>
			<point x="421" y="152"/>
			<point x="424" y="164"/>
			<point x="407" y="173" type="curve" smooth="yes"/>
			<point x="386" y="183"/>
			<point x="374" y="171"/>
			<point x="363" y="148" type="curve" smooth="yes"/>
			<point x="337" y="98"/>
			<point x="275" y="46"/>
			<point x="203" y="46" type="curve" smooth="yes"/>
			<point x="112" y="46"/>
			<point x="94" y="114"/>
			<point x="90" y="171" type="curve" smooth="yes"/>
			<point x="86" y="225"/>
			<point x="97" y="310"/>
			<point x="102" y="349" type="curve" smooth="yes"/>
			<point x="115" y="484"/>
			<point x="184" y="599"/>
			<point x="303" y="599" type="curve" smooth="yes"/>
			<point x="381" y="599"/>
			<point x="405" y="592"/>
		</contour>
	</outline>
</glyph>
<glyph name="D" format="2">
	<advance width="443"/>
	<unicode hex="0044"/>
	<outline>
		<contour>
			<point x="43" y="0" type="line"/>
			<point x="106" y="0" type="line" smooth="yes"/>
			<point x="298" y="0"/>
			<point x="415" y="128"/>
			<point x="438" y="351" type="curve" smooth="yes"/>
			<point x="457" y="521"/>
			<point x="333" y="650"/>
			<point x="144" y="650" type="curve" smooth="yes"/>
			<point x="108" y="650" type="line"/>
			<point x="106" y="600" type="line"/>
			<point x="151" y="600" type="line" smooth="yes"/>
			<point x="310" y="600"/>
			<point x="403" y="489"/>
			<point x="389" y="350" type="curve" smooth="yes"/>
			<point x="368" y="155"/>
			<point x="265" y="50"/>
			<point x="103" y="50" type="curve" smooth="yes"/>
			<point x="50" y="50" type="line"/>
		</contour>
		<contour>
			<point x="130" y="619" type="line" smooth="yes"/>
			<point x="131" y="637"/>
			<point x="130" y="650"/>
			<point x="109" y="650" type="curve" smooth="yes"/>
			<point x="87" y="650"/>
			<point x="82" y="639"/>
			<point x="80" y="623" type="curve" smooth="yes"/>
			<point x="17" y="27" type="line" smooth="yes"/>
			<point x="15" y="12"/>
			<point x="24" y="0"/>
			<point x="42" y="0" type="curve" smooth="yes"/>
			<point x="64" y="0"/>
			<point x="66" y="15"/>
			<point x="67" y="25" type="curve" smooth="yes"/>
		</contour>
	</outline>
</glyph>
<glyph name="E" format="2">
	<advance width="452"/>
	<unicode hex="0045"/>
	<outline>
		<contour>
			<point x="130" y="619" type="line"/>
			<point x="131" y="637"/>
			<point x="130" y="650"/>
			<point x="109" y="650" type="curve" smooth="yes"/>
			<point x="87" y="650"/>
			<point x="82" y="639"/>
			<point x="80" y="623" type="curve"/>
			<point x="17" y="27" type="line"/>
			<point x="15" y="12"/>
			<point x="24" y="0"/>
			<point x="42" y="0" type="curve" smooth="yes"/>
			<point x="64" y="0"/>
			<point x="66" y="15"/>
			<point x="67" y="25" type="curve"/>
		</contour>
		<contour>
			<point x="43" y="0" type="line"/>
			<point x="379" y="0" type="line" smooth="yes"/>
			<point x="399" y="0"/>
			<point x="403" y="14"/>
			<point x="403" y="26" type="curve" smooth="yes"/>
			<point x="403" y="38"/>
			<point x="396" y="50"/>
			<point x="376" y="50" type="curve" smooth="yes"/>
			<point x="48" y="50" type="line"/>
		</contour>
		<contour>
			<point x="78" y="328" type="line"/>
			<point x="390" y="328" type="line" smooth="yes"/>
			<point x="410" y="328"/>
			<point x="415" y="338"/>
			<point x="415" y="350" type="curve" smooth="yes"/>
			<point x="415" y="362"/>
			<point x="407" y="373"/>
			<point x="387" y="373" type="curve" smooth="yes"/>
			<point x="83" y="373" type="line"/>
		</contour>
		<contour>
			<point x="107" y="600" type="line"/>
			<point x="443" y="600" type="line" smooth="yes"/>
			<point x="463" y="600"/>
			<point x="467" y="613"/>
			<point x="467" y="625" type="curve" smooth="yes"/>
			<point x="467" y="637"/>
			<point x="460" y="650"/>
			<point x="440" y="650" type="curve" smooth="yes"/>
			<point x="113" y="650" type="line"/>
		</contour>
	</outline>
</glyph>
<glyph name="F" format="2">
	<advance width="452"/>
	<unicode hex="0046"/>
	<outline>
		<contour>
			<point x="130" y="619" type="line" smooth="yes"/>
			<point x="132" y="637"/>
			<point x="130" y="650"/>
			<point x="109" y="650" type="curve" smooth="yes"/>
			<point x="87" y="650"/>
			<point x="82" y="639"/>
			<point x="80" y="623" type="curve" smooth="yes"/>
			<point x="17" y="27" type="line" smooth="yes"/>
			<point x="15" y="12"/>
			<point x="24" y="0"/>
			<point x="42" y="0" type="curve" smooth="yes"/>
			<point x="64" y="0"/>
			<point x="66" y="15"/>
			<point x="67" y="25" type="curve" smooth="yes"/>
		</contour>
		<contour>
			<point x="78" y="328" type="line"/>
			<point x="381" y="328" type="line" smooth="yes"/>
			<point x="401" y="328"/>
			<point x="406" y="338"/>
			<point x="406" y="350" type="curve" smooth="yes"/>
			<point x="406" y="362"/>
			<point x="398" y="373"/>
			<point x="378" y="373" type="curve" smooth="yes"/>
			<point x="82" y="373" type="line"/>
		</contour>
		<contour>
			<point x="106" y="600" type="line"/>
			<point x="443" y="600" type="line" smooth="yes"/>
			<point x="463" y="600"/>
			<point x="467" y="613"/>
			<point x="467" y="625" type="curve" smooth="yes"/>
			<point x="467" y="637"/>
			<point x="460" y="650"/>
			<point x="440" y="650" type="curve" smooth="yes"/>
			<point x="110" y="650" type="line"/>
		</contour>
	</outline>
</glyph>
<glyph name="G" format="2">
	<advance width="452"/>
	<unicode hex="0047"/>
	<outline>
		<contour>
			<point x="415" y="350" type="line"/>
			<point x="391" y="350"/>
			<point x="387" y="343"/>
			<point x="335" y="255" type="curve" smooth="yes"/>
			<point x="302" y="199"/>
			<point x="210" y="46"/>
			<point x="155" y="46" type="curve" smooth="yes"/>
			<point x="105" y="46"/>
			<point x="93" y="89"/>
			<point x="90" y="135" type="curve" smooth="yes"/>
			<point x="85" y="200"/>
			<point x="97" y="310"/>
			<point x="103" y="364" type="curve" smooth="yes"/>
			<point x="113" y="450"/>
			<point x="139" y="600"/>
			<point x="334" y="600" type="curve" smooth="yes"/>
			<point x="376" y="600"/>
			<point x="401" y="581"/>
			<point x="411" y="544" type="curve" smooth="yes"/>
			<point x="415" y="531"/>
			<point x="434" y="528"/>
			<point x="446" y="531" type="curve" smooth="yes"/>
			<point x="461" y="535"/>
			<point x="460" y="549"/>
			<point x="457" y="559" type="curve" smooth="yes"/>
			<point x="443" y="617"/>
			<point x="391" y="650"/>
			<point x="328" y="650" type="curve" smooth="yes"/>
			<point x="107" y="650"/>
			<point x="64" y="483"/>
			<point x="49" y="338" type="curve" smooth="yes"/>
			<point x="48" y="318"/>
			<point x="35" y="203"/>
			<point x="39" y="140" type="curve" smooth="yes"/>
			<point x="44" y="70"/>
			<point x="74" y="-4"/>
			<point x="155" y="-4" type="curve" smooth="yes"/>
			<point x="235" y="-4"/>
			<point x="325" y="134"/>
			<point x="407" y="275" type="curve"/>
		</contour>
		<contour>
			<point x="434" y="323" type="line" smooth="yes"/>
			<point x="436" y="340"/>
			<point x="431" y="350"/>
			<point x="414" y="350" type="curve" smooth="yes"/>
			<point x="394" y="350"/>
			<point x="386" y="342"/>
			<point x="384" y="323" type="curve" smooth="yes"/>
			<point x="353" y="27" type="line" smooth="yes"/>
			<point x="352" y="15"/>
			<point x="355" y="1"/>
			<point x="375" y="0" type="curve" smooth="yes"/>
			<point x="398" y="-1"/>
			<point x="402" y="16"/>
			<point x="403" y="27" type="curve" smooth="yes"/>
		</contour>
	</outline>
</glyph>
<glyph name="H" format="2">
	<advance width="452"/>
	<unicode hex="0048"/>
	<outline>
		<contour>
			<point x="130" y="619" type="line" smooth="yes"/>
			<point x="132" y="637"/>
			<point x="126" y="650"/>
			<point x="109" y="650" type="curve" smooth="yes"/>
			<point x="90" y="650"/>
			<point x="82" y="639"/>
			<point x="80" y="623" type="curve" smooth="yes"/>
			<point x="17" y="27" type="line" smooth="yes"/>
			<point x="15" y="12"/>
			<point x="24" y="0"/>
			<point x="42" y="0" type="curve" smooth="yes"/>
			<point x="64" y="0"/>
			<point x="66" y="15"/>
			<point x="67" y="25" type="curve" smooth="yes"/>
		</contour>
		<contour>
			<point x="88" y="328" type="line"/>
			<point x="397" y="328" type="line"/>
			<point x="402" y="373" type="line"/>
			<point x="93" y="373" type="line"/>
		</contour>
		<contour>
			<point x="467" y="621" type="line" smooth="yes"/>
			<point x="469" y="638"/>
			<point x="462" y="650"/>
			<point x="442" y="650" type="curve" smooth="yes"/>
			<point x="424" y="650"/>
			<point x="418" y="638"/>
			<point x="417" y="628" type="curve" smooth="yes"/>
			<point x="353" y="27" type="line" smooth="yes"/>
			<point x="352" y="15"/>
			<point x="355" y="0"/>
			<point x="378" y="0" type="curve" smooth="yes"/>
			<point x="397" y="0"/>
			<point x="402" y="13"/>
			<point x="403" y="22" type="curve" smooth="yes"/>
		</contour>
	</outline>
</glyph>
<glyph name="I" format="2">
	<advance width="155"/>
	<unicode hex="0049"/>
	<outline>
		<contour>
			<point x="150" y="619" type="line" smooth="yes"/>
			<point x="152" y="637"/>
			<point x="149" y="650"/>
			<point x="129" y="650" type="curve" smooth="yes"/>
			<point x="109" y="650"/>
			<point x="102" y="639"/>
			<point x="100" y="623" type="curve" smooth="yes"/>
			<point x="37" y="27" type="line" smooth="yes"/>
			<point x="35" y="12"/>
			<point x="44" y="0"/>
			<point x="62" y="0" type="curve" smooth="yes"/>
			<point x="84" y="0"/>
			<point x="86" y="15"/>
			<point x="87" y="25" type="curve" smooth="yes"/>
		</contour>
	</outline>
</glyph>
<glyph name="J" format="2">
	<advance width="351"/>
	<unicode hex="004A"/>
	<outline>
		<contour>
			<point x="315" y="627" type="curve" smooth="yes"/>
			<point x="272" y="205" type="line" smooth="yes"/>
			<point x="267" y="157"/>
			<point x="258" y="105"/>
			<point x="228" y="76" type="curve" smooth="yes"/>
			<point x="210" y="57"/>
			<point x="181" y="50"/>
			<point x="147" y="50" type="curve" smooth="yes"/>
			<point x="121" y="50"/>
			<point x="97" y="64"/>
			<point x="78" y="88" type="curve" smooth="yes"/>
			<point x="65" y="105"/>
			<point x="44" y="113"/>
			<point x="33" y="103" type="curve" smooth="yes"/>
			<point x="18" y="90"/>
			<point x="23" y="77"/>
			<point x="42" y="55" type="curve" smooth="yes"/>
			<point x="67" y="26"/>
			<point x="103" y="0"/>
			<point x="150" y="0" type="curve" smooth="yes"/>
			<point x="201" y="0"/>
			<point x="237" y="13"/>
			<point x="262" y="37" type="curve" smooth="yes"/>
			<point x="299" y="72"/>
			<point x="314" y="131"/>
			<point x="322" y="205" type="curve" smooth="yes"/>
			<point x="365" y="623" type="line" smooth="yes"/>
			<point x="367" y="641"/>
			<point x="363" y="654"/>
			<point x="343" y="654" type="curve" smooth="yes"/>
			<point x="323" y="654"/>
			<point x="317" y="643"/>
		</contour>
	</outline>
</glyph>
<glyph name="K" format="2">
	<advance width="452"/>
	<unicode hex="004B"/>
	<outline>
		<contour>
			<point x="157" y="344" type="line"/>
			<point x="450" y="600" type="line" smooth="yes"/>
			<point x="461" y="610"/>
			<point x="467" y="619"/>
			<point x="468" y="628" type="curve" smooth="yes"/>
			<point x="468" y="640"/>
			<point x="460" y="650"/>
			<point x="447" y="650" type="curve" smooth="yes"/>
			<point x="438" y="651"/>
			<point x="428" y="647"/>
			<point x="416" y="637" type="curve" smooth="yes"/>
			<point x="99" y="360" type="line"/>
			<point x="100" y="348" type="line"/>
		</contour>
		<contour>
			<point x="156" y="354" type="line"/>
			<point x="99" y="356" type="line"/>
			<point x="100" y="345" type="line"/>
			<point x="350" y="19" type="line" smooth="yes"/>
			<point x="357" y="9"/>
			<point x="368" y="0"/>
			<point x="381" y="0" type="curve" smooth="yes"/>
			<point x="391" y="0"/>
			<point x="401" y="6"/>
			<point x="403" y="17" type="curve" smooth="yes"/>
			<point x="404" y="24"/>
			<point x="403" y="32"/>
			<point x="395" y="42" type="curve" smooth="yes"/>
		</contour>
		<contour>
			<point x="131" y="619" type="line" smooth="yes"/>
			<point x="133" y="637"/>
			<point x="129" y="650"/>
			<point x="110" y="650" type="curve" smooth="yes"/>
			<point x="90" y="650"/>
			<point x="83" y="639"/>
			<point x="81" y="623" type="curve" smooth="yes"/>
			<point x="18" y="32" type="line" smooth="yes"/>
			<point x="16" y="17"/>
			<point x="25" y="0"/>
			<point x="43" y="0" type="curve" smooth="yes"/>
			<point x="64" y="0"/>
			<point x="67" y="18"/>
			<point x="68" y="31" type="curve" smooth="yes"/>
		</contour>
	</outline>
</glyph>
<glyph name="L" format="2">
	<advance width="451"/>
	<unicode hex="004C"/>
	<outline>
		<contour>
			<point x="131" y="619" type="line" smooth="yes"/>
			<point x="132" y="637"/>
			<point x="129" y="650"/>
			<point x="109" y="650" type="curve" smooth="yes"/>
			<point x="89" y="650"/>
			<point x="82" y="639"/>
			<point x="80" y="623" type="curve" smooth="yes"/>
			<point x="17" y="27" type="line" smooth="yes"/>
			<point x="15" y="12"/>
			<point x="24" y="0"/>
			<point x="42" y="0" type="curve" smooth="yes"/>
			<point x="64" y="0"/>
			<point x="66" y="15"/>
			<point x="67" y="25" type="curve" smooth="yes"/>
		</contour>
		<contour>
			<point x="47" y="0" type="line"/>
			<point x="379" y="0" type="line" smooth="yes"/>
			<point x="397" y="0"/>
			<point x="404" y="14"/>
			<point x="403" y="26" type="curve" smooth="yes"/>
			<point x="402" y="38"/>
			<point x="394" y="50"/>
			<point x="376" y="50" type="curve" smooth="yes"/>
			<point x="44" y="50" type="line"/>
		</contour>
	</outline>
</glyph>
<glyph name="M" format="2">
  <advance width="769"/>
  <unicode hex="004D"/>
  <outline>
    <contour>
      <point x="358" y="67" type="line"/>
      <point x="156" y="630" type="line" smooth="yes"/>
      <point x="153" y="639"/>
      <point x="143" y="650"/>
      <point x="122" y="650" type="curve"/>
      <point x="118" y="589" type="line"/>
      <point x="322" y="18" type="line" smooth="yes"/>
      <point x="326" y="8"/>
      <point x="337" y="0"/>
      <point x="351" y="0" type="curve"/>
    </contour>
    <contour>
      <point x="143" y="612" type="line"/>
      <point x="123" y="650" type="line"/>
      <point x="101" y="650"/>
      <point x="96" y="639"/>
      <point x="94" y="623" type="curve" smooth="yes"/>
      <point x="31" y="27" type="line" smooth="yes"/>
      <point x="29" y="12"/>
      <point x="38" y="0"/>
      <point x="56" y="0" type="curve" smooth="yes"/>
      <point x="78" y="0"/>
      <point x="80" y="16"/>
      <point x="81" y="28" type="curve" smooth="yes"/>
    </contour>
    <contour>
      <point x="644" y="0" type="curve"/>
      <point x="666" y="0"/>
      <point x="669" y="15"/>
      <point x="670" y="25" type="curve" smooth="yes"/>
      <point x="733" y="619" type="line" smooth="yes"/>
      <point x="735" y="637"/>
      <point x="731" y="650"/>
      <point x="712" y="650" type="curve"/>
      <point x="677" y="569" type="line"/>
      <point x="620" y="27" type="line" smooth="yes"/>
      <point x="619" y="15"/>
      <point x="625" y="0"/>
    </contour>
    <contour>
      <point x="343" y="62" type="line"/>
      <point x="350" y="0" type="line"/>
      <point x="364" y="0"/>
      <point x="369" y="8"/>
      <point x="375" y="18" type="curve" smooth="yes"/>
      <point x="708" y="573" type="line"/>
      <point x="711" y="650" type="line"/>
      <point x="693" y="650"/>
      <point x="691" y="643"/>
      <point x="686" y="634" type="curve" smooth="yes"/>
    </contour>
  </outline>
</glyph>
<glyph name="N" format="2">
	<advance width="584"/>
	<unicode hex="004E"/>
	<outline>
		<contour>
			<point x="483" y="67" type="line"/>
			<point x="173" y="630" type="line" smooth="yes"/>
			<point x="168" y="639"/>
			<point x="159" y="650"/>
			<point x="141" y="650" type="curve"/>
			<point x="138" y="589" type="line"/>
			<point x="453" y="18" type="line" smooth="yes"/>
			<point x="458" y="8"/>
			<point x="467" y="0"/>
			<point x="481" y="0" type="curve"/>
		</contour>
		<contour>
			<point x="162" y="612" type="line"/>
			<point x="142" y="650" type="line"/>
			<point x="120" y="650"/>
			<point x="115" y="639"/>
			<point x="113" y="623" type="curve" smooth="yes"/>
			<point x="50" y="27" type="line" smooth="yes"/>
			<point x="48" y="12"/>
			<point x="57" y="0"/>
			<point x="75" y="0" type="curve" smooth="yes"/>
			<point x="97" y="0"/>
			<point x="99" y="16"/>
			<point x="100" y="28" type="curve" smooth="yes"/>
		</contour>
		<contour>
			<point x="480" y="0" type="line"/>
			<point x="502" y="0"/>
			<point x="503" y="15"/>
			<point x="504" y="25" type="curve" smooth="yes"/>
			<point x="567" y="619" type="line" smooth="yes"/>
			<point x="569" y="637"/>
			<point x="565" y="650"/>
			<point x="546" y="650" type="curve" smooth="yes"/>
			<point x="526" y="650"/>
			<point x="519" y="639"/>
			<point x="517" y="623" type="curve" smooth="yes"/>
			<point x="456" y="48" type="line"/>
		</contour>
	</outline>
</glyph>
<glyph name="O" format="2">
	<advance width="497"/>
	<unicode hex="004F"/>
	<outline>
		<contour>
			<point x="194" y="-4" type="curve" smooth="yes"/>
			<point x="355" y="-4"/>
			<point x="458" y="247"/>
			<point x="478" y="435" type="curve" smooth="yes"/>
			<point x="490" y="548"/>
			<point x="428" y="650"/>
			<point x="300" y="650" type="curve" smooth="yes"/>
			<point x="177" y="650"/>
			<point x="124" y="557"/>
			<point x="92" y="409" type="curve" smooth="yes"/>
			<point x="84" y="369"/>
			<point x="78" y="322"/>
			<point x="78" y="278" type="curve" smooth="yes"/>
			<point x="75" y="143"/>
			<point x="107" y="-4"/>
		</contour>
		<contour>
			<point x="190" y="42" type="curve" smooth="yes"/>
			<point x="143" y="42"/>
			<point x="128" y="178"/>
			<point x="128" y="268" type="curve" smooth="yes"/>
			<point x="129" y="310"/>
			<point x="132" y="355"/>
			<point x="139" y="388" type="curve" smooth="yes"/>
			<point x="167" y="526"/>
			<point x="209" y="604"/>
			<point x="296" y="604" type="curve" smooth="yes"/>
			<point x="417" y="604"/>
			<point x="436" y="511"/>
			<point x="427" y="425" type="curve" smooth="yes"/>
			<point x="410" y="263"/>
			<point x="311" y="42"/>
		</contour>
	</outline>
</glyph>
<glyph name="P" format="2">
  <advance width="435"/>
  <unicode hex="0050"/>
  <outline>
    <contour>
      <point x="106" y="304" type="line"/>
      <point x="278" y="304"/>
      <point x="432" y="321"/>
      <point x="448" y="476" type="curve" smooth="yes"/>
      <point x="460" y="597"/>
      <point x="323" y="650"/>
      <point x="127" y="650" type="curve"/>
      <point x="130" y="604" type="line"/>
      <point x="311" y="604"/>
      <point x="407" y="561"/>
      <point x="398" y="481" type="curve" smooth="yes"/>
      <point x="386" y="367"/>
      <point x="254" y="350"/>
      <point x="110" y="350" type="curve"/>
    </contour>
    <contour>
      <point x="144" y="619" type="line" smooth="yes"/>
      <point x="146" y="637"/>
      <point x="144" y="650"/>
      <point x="123" y="650" type="curve" smooth="yes"/>
      <point x="101" y="650"/>
      <point x="96" y="639"/>
      <point x="94" y="623" type="curve" smooth="yes"/>
      <point x="31" y="27" type="line" smooth="yes"/>
      <point x="29" y="12"/>
      <point x="38" y="-4"/>
      <point x="56" y="-4" type="curve" smooth="yes"/>
      <point x="78" y="-4"/>
      <point x="80" y="15"/>
      <point x="81" y="25" type="curve" smooth="yes"/>
    </contour>
  </outline>
</glyph>
<glyph name="Q" format="2">
	<advance width="496"/>
	<unicode hex="0051"/>
	<outline>
		<contour>
			<point x="249" y="134" type="line" smooth="yes"/>
			<point x="236" y="146"/>
			<point x="217" y="149"/>
			<point x="206" y="135" type="curve" smooth="yes"/>
			<point x="197" y="125"/>
			<point x="201" y="111"/>
			<point x="215" y="97" type="curve" smooth="yes"/>
			<point x="353" y="-34" type="line" smooth="yes"/>
			<point x="367" y="-47"/>
			<point x="386" y="-51"/>
			<point x="396" y="-41" type="curve" smooth="yes"/>
			<point x="407" y="-32"/>
			<point x="403" y="-13"/>
			<point x="392" y="-2" type="curve" smooth="yes"/>
		</contour>
		<contour>
			<point x="194" y="-4" type="curve" smooth="yes"/>
			<point x="355" y="-4"/>
			<point x="460" y="250"/>
			<point x="478" y="438" type="curve" smooth="yes"/>
			<point x="489" y="551"/>
			<point x="428" y="650"/>
			<point x="300" y="650" type="curve" smooth="yes"/>
			<point x="177" y="650"/>
			<point x="124" y="557"/>
			<point x="92" y="409" type="curve" smooth="yes"/>
			<point x="84" y="369"/>
			<point x="78" y="322"/>
			<point x="78" y="278" type="curve" smooth="yes"/>
			<point x="75" y="143"/>
			<point x="107" y="-4"/>
		</contour>
		<contour>
			<point x="190" y="46" type="curve" smooth="yes"/>
			<point x="143" y="46"/>
			<point x="127" y="178"/>
			<point x="127" y="268" type="curve" smooth="yes"/>
			<point x="128" y="310"/>
			<point x="132" y="355"/>
			<point x="139" y="388" type="curve" smooth="yes"/>
			<point x="167" y="526"/>
			<point x="209" y="600"/>
			<point x="296" y="600" type="curve" smooth="yes"/>
			<point x="417" y="600"/>
			<point x="436" y="511"/>
			<point x="427" y="425" type="curve" smooth="yes"/>
			<point x="410" y="263"/>
			<point x="311" y="46"/>
		</contour>
	</outline>
</glyph>
<glyph name="R" format="2">
	<advance width="443"/>
	<unicode hex="0052"/>
	<outline>
		<contour>
			<point x="84" y="303" type="line"/>
			<point x="274" y="303"/>
			<point x="436" y="321"/>
			<point x="452" y="476" type="curve" smooth="yes"/>
			<point x="464" y="597"/>
			<point x="330" y="650"/>
			<point x="113" y="650" type="curve"/>
			<point x="116" y="600" type="line"/>
			<point x="309" y="600"/>
			<point x="411" y="560"/>
			<point x="402" y="481" type="curve" smooth="yes"/>
			<point x="390" y="368"/>
			<point x="249" y="350"/>
			<point x="88" y="350" type="curve"/>
		</contour>
		<contour>
			<point x="148" y="319" type="line"/>
			<point x="83" y="319" type="line"/>
			<point x="353" y="19" type="line" smooth="yes"/>
			<point x="364" y="6"/>
			<point x="372" y="0"/>
			<point x="380" y="0" type="curve" smooth="yes"/>
			<point x="390" y="0"/>
			<point x="400" y="7"/>
			<point x="402" y="15" type="curve" smooth="yes"/>
			<point x="404" y="23"/>
			<point x="404" y="34"/>
			<point x="397" y="42" type="curve" smooth="yes"/>
		</contour>
		<contour>
			<point x="130" y="619" type="line" smooth="yes"/>
			<point x="132" y="637"/>
			<point x="130" y="650"/>
			<point x="109" y="650" type="curve" smooth="yes"/>
			<point x="87" y="650"/>
			<point x="82" y="639"/>
			<point x="80" y="623" type="curve" smooth="yes"/>
			<point x="18" y="33" type="line" smooth="yes"/>
			<point x="16" y="16"/>
			<point x="24" y="0"/>
			<point x="42" y="0" type="curve" smooth="yes"/>
			<point x="64" y="0"/>
			<point x="66" y="16"/>
			<point x="68" y="31" type="curve" smooth="yes"/>
		</contour>
	</outline>
</glyph>
<glyph name="S" format="2">
  <advance width="421"/>
  <unicode hex="0053"/>
  <outline>
    <contour>
      <point x="153" y="-4" type="curve" smooth="yes"/>
      <point x="269" y="-4"/>
      <point x="354" y="49"/>
      <point x="366" y="162" type="curve" smooth="yes"/>
      <point x="376" y="258"/>
      <point x="315" y="323"/>
      <point x="235" y="369" type="curve" smooth="yes"/>
      <point x="153" y="416"/>
      <point x="102" y="455"/>
      <point x="108" y="512" type="curve" smooth="yes"/>
      <point x="114" y="569"/>
      <point x="169" y="608"/>
      <point x="264" y="608" type="curve" smooth="yes"/>
      <point x="315" y="608"/>
      <point x="346" y="583"/>
      <point x="359" y="547" type="curve" smooth="yes"/>
      <point x="364" y="534"/>
      <point x="378" y="528"/>
      <point x="391" y="532" type="curve" smooth="yes"/>
      <point x="405" y="536"/>
      <point x="407" y="552"/>
      <point x="401" y="570" type="curve" smooth="yes"/>
      <point x="385" y="617"/>
      <point x="340" y="654"/>
      <point x="262" y="654" type="curve" smooth="yes"/>
      <point x="134" y="654"/>
      <point x="68" y="590"/>
      <point x="60" y="516" type="curve" smooth="yes"/>
      <point x="52" y="436"/>
      <point x="118" y="378"/>
      <point x="197" y="333" type="curve" smooth="yes"/>
      <point x="285" y="283"/>
      <point x="323" y="236"/>
      <point x="317" y="169" type="curve" smooth="yes"/>
      <point x="309" y="82"/>
      <point x="239" y="42"/>
      <point x="169" y="42" type="curve" smooth="yes"/>
      <point x="106" y="42"/>
      <point x="69" y="68"/>
      <point x="61" y="99" type="curve" smooth="yes"/>
      <point x="57" y="116"/>
      <point x="42" y="122"/>
      <point x="28" y="118" type="curve" smooth="yes"/>
      <point x="13" y="114"/>
      <point x="11" y="98"/>
      <point x="15" y="82" type="curve" smooth="yes"/>
      <point x="28" y="30"/>
      <point x="84" y="-4"/>
    </contour>
  </outline>
</glyph>
<glyph name="T" format="2">
	<advance width="452"/>
	<unicode hex="0054"/>
	<outline>
		<contour>
			<point x="298" y="611" type="line"/>
			<point x="248" y="611" type="line"/>
			<point x="186" y="27" type="line" smooth="yes"/>
			<point x="184" y="12"/>
			<point x="192" y="0"/>
			<point x="210" y="0" type="curve" smooth="yes"/>
			<point x="232" y="0"/>
			<point x="235" y="18"/>
			<point x="236" y="28" type="curve" smooth="yes"/>
		</contour>
		<contour>
			<point x="443" y="600" type="line" smooth="yes"/>
			<point x="463" y="600"/>
			<point x="467" y="613"/>
			<point x="467" y="625" type="curve" smooth="yes"/>
			<point x="467" y="637"/>
			<point x="460" y="650"/>
			<point x="440" y="650" type="curve" smooth="yes"/>
			<point x="106" y="650" type="line" smooth="yes"/>
			<point x="86" y="650"/>
			<point x="81" y="637"/>
			<point x="81" y="625" type="curve" smooth="yes"/>
			<point x="81" y="613"/>
			<point x="89" y="600"/>
			<point x="109" y="600" type="curve" smooth="yes"/>
		</contour>
	</outline>
</glyph>
<glyph name="U" format="2">
  <advance width="509"/>
  <unicode hex="0055"/>
  <outline>
    <contour>
      <point x="119" y="-4" type="curve" smooth="yes"/>
      <point x="196" y="-4"/>
      <point x="329" y="139"/>
      <point x="414" y="376" type="curve"/>
      <point x="423" y="520" type="line"/>
      <point x="412" y="522" type="line"/>
      <point x="365" y="230"/>
      <point x="172" y="42"/>
      <point x="122" y="42" type="curve" smooth="yes"/>
      <point x="75" y="42"/>
      <point x="82" y="116"/>
      <point x="89" y="180" type="curve" smooth="yes"/>
      <point x="139" y="619" type="line" smooth="yes"/>
      <point x="141" y="634"/>
      <point x="131" y="650"/>
      <point x="116" y="650" type="curve" smooth="yes"/>
      <point x="100" y="650"/>
      <point x="90" y="636"/>
      <point x="88" y="620" type="curve" smooth="yes"/>
      <point x="39" y="183" type="line" smooth="yes"/>
      <point x="24" y="52"/>
      <point x="59" y="-4"/>
    </contour>
    <contour>
      <point x="384" y="-1" type="curve" smooth="yes"/>
      <point x="396" y="-1"/>
      <point x="407" y="7"/>
      <point x="409" y="22" type="curve" smooth="yes"/>
      <point x="473" y="624" type="line" smooth="yes"/>
      <point x="475" y="639"/>
      <point x="466" y="650"/>
      <point x="448" y="650" type="curve" smooth="yes"/>
      <point x="430" y="650"/>
      <point x="424" y="638"/>
      <point x="423" y="626" type="curve" smooth="yes"/>
      <point x="359" y="27" type="line" smooth="yes"/>
      <point x="357" y="8"/>
      <point x="370" y="-1"/>
    </contour>
  </outline>
</glyph>
<glyph name="V" format="2">
	<advance width="402"/>
	<unicode hex="0056"/>
	<outline>
		<contour>
			<point x="168" y="0" type="line"/>
			<point x="187" y="0"/>
			<point x="190" y="11"/>
			<point x="196" y="25" type="curve" smooth="yes"/>
			<point x="433" y="618" type="line" smooth="yes"/>
			<point x="440" y="638"/>
			<point x="429" y="650"/>
			<point x="414" y="650" type="curve" smooth="yes"/>
			<point x="395" y="650"/>
			<point x="386" y="642"/>
			<point x="379" y="625" type="curve" smooth="yes"/>
			<point x="146" y="39" type="line"/>
		</contour>
		<contour>
			<point x="187" y="37" type="line"/>
			<point x="98" y="626" type="line" smooth="yes"/>
			<point x="97" y="636"/>
			<point x="92" y="650"/>
			<point x="70" y="650" type="curve"/>
			<point x="52" y="650"/>
			<point x="46" y="639"/>
			<point x="48" y="624" type="curve" smooth="yes"/>
			<point x="139" y="28" type="line" smooth="yes"/>
			<point x="141" y="15"/>
			<point x="150" y="0"/>
			<point x="169" y="0" type="curve"/>
		</contour>
	</outline>
</glyph>
<glyph name="W" format="2">
	<advance width="789"/>
	<unicode hex="0057"/>
	<outline>
		<contour>
			<point x="539" y="0" type="line"/>
			<point x="558" y="0"/>
			<point x="562" y="11"/>
			<point x="568" y="25" type="curve" smooth="yes"/>
			<point x="806" y="618" type="line" smooth="yes"/>
			<point x="815" y="639"/>
			<point x="801" y="650"/>
			<point x="787" y="650" type="curve" smooth="yes"/>
			<point x="768" y="650"/>
			<point x="762" y="644"/>
			<point x="755" y="625" type="curve" smooth="yes"/>
			<point x="541" y="92" type="line"/>
		</contour>
		<contour>
			<point x="214" y="87" type="line"/>
			<point x="131" y="626" type="line" smooth="yes"/>
			<point x="129" y="636"/>
			<point x="125" y="650"/>
			<point x="103" y="650" type="curve"/>
			<point x="85" y="650"/>
			<point x="79" y="639"/>
			<point x="81" y="624" type="curve" smooth="yes"/>
			<point x="172" y="28" type="line" smooth="yes"/>
			<point x="174" y="12"/>
			<point x="186" y="0"/>
			<point x="201" y="0" type="curve"/>
		</contour>
		<contour>
			<point x="200" y="0" type="line"/>
			<point x="220" y="0"/>
			<point x="225" y="15"/>
			<point x="229" y="26" type="curve" smooth="yes"/>
			<point x="444" y="570" type="line"/>
			<point x="441" y="650" type="line"/>
			<point x="425" y="650"/>
			<point x="415" y="633"/>
			<point x="412" y="626" type="curve" smooth="yes"/>
			<point x="200" y="89" type="line"/>
		</contour>
		<contour>
			<point x="553" y="89" type="line"/>
			<point x="471" y="626" type="line" smooth="yes"/>
			<point x="469" y="636"/>
			<point x="465" y="650"/>
			<point x="440" y="650" type="curve"/>
			<point x="428" y="575" type="line"/>
			<point x="513" y="19" type="line" smooth="yes"/>
			<point x="514" y="13"/>
			<point x="522" y="0"/>
			<point x="540" y="0" type="curve"/>
		</contour>
	</outline>
</glyph>
<glyph name="X" format="2">
	<advance width="498"/>
	<unicode hex="0058"/>
	<outline>
		<contour>
			<point x="493" y="609" type="line" smooth="yes"/>
			<point x="503" y="624"/>
			<point x="500" y="638"/>
			<point x="491" y="645" type="curve" smooth="yes"/>
			<point x="480" y="653"/>
			<point x="461" y="652"/>
			<point x="451" y="637" type="curve" smooth="yes"/>
			<point x="53" y="38" type="line" smooth="yes"/>
			<point x="45" y="26"/>
			<point x="48" y="13"/>
			<point x="58" y="6" type="curve" smooth="yes"/>
			<point x="69" y="-3"/>
			<point x="86" y="-2"/>
			<point x="96" y="13" type="curve" smooth="yes"/>
		</contour>
		<contour>
			<point x="166" y="631" type="line" smooth="yes"/>
			<point x="158" y="650"/>
			<point x="137" y="654"/>
			<point x="126" y="649" type="curve" smooth="yes"/>
			<point x="114" y="645"/>
			<point x="111" y="632"/>
			<point x="119" y="614" type="curve" smooth="yes"/>
			<point x="385" y="20" type="line" smooth="yes"/>
			<point x="393" y="1"/>
			<point x="411" y="-3"/>
			<point x="424" y="3" type="curve" smooth="yes"/>
			<point x="433" y="8"/>
			<point x="440" y="20"/>
			<point x="433" y="35" type="curve" smooth="yes"/>
		</contour>
	</outline>
</glyph>
<glyph name="Y" format="2">
	<advance width="400"/>
	<unicode hex="0059"/>
	<outline>
		<contour>
			<point x="224" y="295" type="line"/>
			<point x="253" y="353" type="line"/>
			<point x="133" y="630" type="line" smooth="yes"/>
			<point x="128" y="642"/>
			<point x="113" y="655"/>
			<point x="94" y="648" type="curve" smooth="yes"/>
			<point x="77" y="642"/>
			<point x="79" y="629"/>
			<point x="86" y="613" type="curve" smooth="yes"/>
		</contour>
		<contour>
			<point x="411" y="609" type="line" smooth="yes"/>
			<point x="418" y="624"/>
			<point x="417" y="638"/>
			<point x="408" y="645" type="curve" smooth="yes"/>
			<point x="397" y="653"/>
			<point x="375" y="650"/>
			<point x="368" y="635" type="curve" smooth="yes"/>
			<point x="98" y="38" type="line" smooth="yes"/>
			<point x="93" y="26"/>
			<point x="92" y="13"/>
			<point x="102" y="6" type="curve" smooth="yes"/>
			<point x="113" y="-3"/>
			<point x="134" y="-4"/>
			<point x="141" y="11" type="curve" smooth="yes"/>
		</contour>
	</outline>
</glyph>
<glyph name="Z" format="2">
	<advance width="452"/>
	<unicode hex="005A"/>
	<outline>
		<contour>
			<point x="461" y="608" type="line" smooth="yes"/>
			<point x="469" y="619"/>
			<point x="469" y="630"/>
			<point x="464" y="638" type="curve" smooth="yes"/>
			<point x="459" y="645"/>
			<point x="448" y="650"/>
			<point x="437" y="650" type="curve" smooth="yes"/>
			<point x="430" y="650"/>
			<point x="426" y="644"/>
			<point x="421" y="638" type="curve" smooth="yes"/>
			<point x="23" y="39" type="line" smooth="yes"/>
			<point x="19" y="32"/>
			<point x="14" y="22"/>
			<point x="20" y="13" type="curve" smooth="yes"/>
			<point x="25" y="6"/>
			<point x="35" y="0"/>
			<point x="52" y="0" type="curve" smooth="yes"/>
			<point x="58" y="0"/>
			<point x="63" y="7"/>
			<point x="65" y="11" type="curve" smooth="yes"/>
		</contour>
		<contour>
			<point x="45" y="0" type="line"/>
			<point x="379" y="0" type="line" smooth="yes"/>
			<point x="399" y="0"/>
			<point x="404" y="13"/>
			<point x="403" y="25" type="curve" smooth="yes"/>
			<point x="402" y="37"/>
			<point x="396" y="50"/>
			<point x="376" y="50" type="curve" smooth="yes"/>
			<point x="83" y="50" type="line"/>
		</contour>
		<contour>
			<point x="401" y="600" type="line"/>
			<point x="441" y="650" type="line"/>
			<point x="106" y="650" type="line" smooth="yes"/>
			<point x="86" y="650"/>
			<point x="80" y="637"/>
			<point x="81" y="625" type="curve" smooth="yes"/>
			<point x="82" y="613"/>
			<point x="89" y="600"/>
			<point x="109" y="600" type="curve" smooth="yes"/>
		</contour>
	</outline>
</glyph>
<glyph name="bracketleft" format="2">
	<advance width="261"/>
	<unicode hex="005B"/>
	<outline>
		<contour>
			<point x="132" y="618" type="line" smooth="yes"/>
			<point x="134" y="636"/>
			<point x="133" y="650"/>
			<point x="112" y="650" type="curve" smooth="yes"/>
			<point x="91" y="650"/>
			<point x="83" y="639"/>
			<point x="81" y="623" type="curve" smooth="yes"/>
			<point x="-14" y="-273" type="line" smooth="yes"/>
			<point x="-16" y="-288"/>
			<point x="-7" y="-300"/>
			<point x="13" y="-300" type="curve" smooth="yes"/>
			<point x="35" y="-300"/>
			<point x="36" y="-283"/>
			<point x="37" y="-273" type="curve" smooth="yes"/>
		</contour>
		<contour>
			<point x="10" y="-300" type="line"/>
			<point x="155" y="-300" type="line" smooth="yes"/>
			<point x="172" y="-300"/>
			<point x="180" y="-288"/>
			<point x="179" y="-277" type="curve" smooth="yes"/>
			<point x="179" y="-266"/>
			<point x="170" y="-255"/>
			<point x="152" y="-255" type="curve" smooth="yes"/>
			<point x="13" y="-255" type="line"/>
		</contour>
		<contour>
			<point x="108" y="605" type="line"/>
			<point x="251" y="605" type="line" smooth="yes"/>
			<point x="268" y="605"/>
			<point x="276" y="616"/>
			<point x="276" y="627" type="curve" smooth="yes"/>
			<point x="276" y="638"/>
			<point x="267" y="650"/>
			<point x="248" y="650" type="curve" smooth="yes"/>
			<point x="110" y="650" type="line"/>
		</contour>
	</outline>
</glyph>
<glyph name="backslash" format="2">
  <advance width="336"/>
  <unicode hex="005C"/>
  <outline>
    <contour>
      <point x="44" y="627" type="line" smooth="yes"/>
      <point x="36" y="644"/>
      <point x="25" y="650"/>
      <point x="14" y="650" type="curve" smooth="yes"/>
      <point x="-1" y="650"/>
      <point x="-16" y="637"/>
      <point x="-5" y="616" type="curve" smooth="yes"/>
      <point x="294" y="20" type="line" smooth="yes"/>
      <point x="301" y="5"/>
      <point x="313" y="0"/>
      <point x="324" y="0" type="curve" smooth="yes"/>
      <point x="339" y="0"/>
      <point x="352" y="13"/>
      <point x="343" y="31" type="curve" smooth="yes"/>
    </contour>
  </outline>
</glyph>
<glyph name="bracketright" format="2">
  <advance width="325"/>
  <unicode hex="005D"/>
  <outline>
    <contour>
      <point x="289" y="623" type="line" smooth="yes"/>
      <point x="291" y="638"/>
      <point x="283" y="650"/>
      <point x="263" y="650" type="curve" smooth="yes"/>
      <point x="241" y="650"/>
      <point x="240" y="634"/>
      <point x="238" y="624" type="curve" smooth="yes"/>
      <point x="144" y="-268" type="line" smooth="yes"/>
      <point x="142" y="-286"/>
      <point x="143" y="-300"/>
      <point x="164" y="-300" type="curve"/>
      <point x="186" y="-300"/>
      <point x="192" y="-289"/>
      <point x="194" y="-273" type="curve" smooth="yes"/>
    </contour>
    <contour>
      <point x="167" y="-300" type="line"/>
      <point x="171" y="-255" type="line"/>
      <point x="26" y="-255" type="line" smooth="yes"/>
      <point x="9" y="-255"/>
      <point x="0" y="-266"/>
      <point x="0" y="-277" type="curve" smooth="yes"/>
      <point x="1" y="-289"/>
      <point x="10" y="-300"/>
      <point x="29" y="-300" type="curve" smooth="yes"/>
    </contour>
    <contour>
      <point x="262" y="605" type="line"/>
      <point x="267" y="650" type="line"/>
      <point x="122" y="650" type="line" smooth="yes"/>
      <point x="104" y="650"/>
      <point x="95" y="638"/>
      <point x="96" y="627" type="curve" smooth="yes"/>
      <point x="97" y="616"/>
      <point x="107" y="605"/>
      <point x="125" y="605" type="curve" smooth="yes"/>
    </contour>
  </outline>
</glyph>
<glyph name="asciicircum" format="2">
	<advance width="345"/>
	<unicode hex="005E"/>
	<outline>
		<contour>
			<point x="240" y="607" type="line" smooth="yes"/>
			<point x="253" y="619"/>
			<point x="250" y="634"/>
			<point x="240" y="642" type="curve" smooth="yes"/>
			<point x="230" y="651"/>
			<point x="214" y="654"/>
			<point x="201" y="642" type="curve" smooth="yes"/>
			<point x="76" y="531" type="line" smooth="yes"/>
			<point x="65" y="521"/>
			<point x="68" y="506"/>
			<point x="76" y="497" type="curve" smooth="yes"/>
			<point x="86" y="488"/>
			<point x="101" y="484"/>
			<point x="116" y="497" type="curve" smooth="yes"/>
		</contour>
		<contour>
			<point x="241" y="641" type="line"/>
			<point x="204" y="609" type="line"/>
			<point x="305" y="499" type="line" smooth="yes"/>
			<point x="317" y="486"/>
			<point x="332" y="488"/>
			<point x="340" y="496" type="curve" smooth="yes"/>
			<point x="350" y="504"/>
			<point x="352" y="520"/>
			<point x="341" y="532" type="curve" smooth="yes"/>
		</contour>
	</outline>
</glyph>
<glyph name="underscore" format="2">
  <advance width="431"/>
  <unicode hex="005F"/>
  <outline>
    <contour>
      <point x="318" y="-77" type="line" smooth="yes"/>
      <point x="336" y="-77"/>
      <point x="345" y="-66"/>
      <point x="344" y="-54" type="curve" smooth="yes"/>
      <point x="343" y="-43"/>
      <point x="333" y="-32"/>
      <point x="315" y="-32" type="curve" smooth="yes"/>
      <point x="26" y="-32" type="line" smooth="yes"/>
      <point x="7" y="-32"/>
      <point x="0" y="-43"/>
      <point x="1" y="-55" type="curve" smooth="yes"/>
      <point x="2" y="-66"/>
      <point x="12" y="-77"/>
      <point x="29" y="-77" type="curve" smooth="yes"/>
    </contour>
  </outline>
</glyph>
<glyph name="grave" format="2">
	<advance width="248"/>
	<unicode hex="0060"/>
	<outline>
		<contour>
			<point x="172" y="683" type="line" smooth="yes"/>
			<point x="165" y="696"/>
			<point x="152" y="701"/>
			<point x="141" y="701" type="curve" smooth="yes"/>
			<point x="125" y="700"/>
			<point x="111" y="686"/>
			<point x="126" y="664" type="curve" smooth="yes"/>
			<point x="186" y="572" type="line" smooth="yes"/>
			<point x="196" y="557"/>
			<point x="209" y="554"/>
			<point x="218" y="559" type="curve" smooth="yes"/>
			<point x="226" y="563"/>
			<point x="228" y="573"/>
			<point x="221" y="587" type="curve" smooth="yes"/>
		</contour>
	</outline>
</glyph>
<glyph name="a" format="2">
	<advance width="376"/>
	<unicode hex="0061"/>
	<outline>
		<contour>
			<point x="267" y="109" type="curve"/>
			<point x="280" y="241" type="line"/>
			<point x="227" y="110"/>
			<point x="170" y="46"/>
			<point x="141" y="46" type="curve" smooth="yes"/>
			<point x="114" y="46"/>
			<point x="104" y="61"/>
			<point x="104" y="126" type="curve" smooth="yes"/>
			<point x="104" y="184"/>
			<point x="137" y="300"/>
			<point x="208" y="300" type="curve" smooth="yes"/>
			<point x="221" y="300"/>
			<point x="274" y="300"/>
			<point x="282" y="300" type="curve"/>
			<point x="287" y="350" type="line"/>
			<point x="275" y="350"/>
			<point x="221" y="350"/>
			<point x="205" y="350" type="curve" smooth="yes"/>
			<point x="102" y="350"/>
			<point x="54" y="211"/>
			<point x="54" y="121" type="curve" smooth="yes"/>
			<point x="54" y="21"/>
			<point x="95" y="-4"/>
			<point x="133" y="-4" type="curve" smooth="yes"/>
			<point x="187" y="-4"/>
			<point x="231" y="45"/>
		</contour>
		<contour>
			<point x="327" y="316" type="line" smooth="yes"/>
			<point x="328" y="329"/>
			<point x="327" y="337"/>
			<point x="324" y="342" type="curve" smooth="yes"/>
			<point x="321" y="347"/>
			<point x="317" y="350"/>
			<point x="310" y="350" type="curve" smooth="yes"/>
			<point x="280" y="350" type="line"/>
			<point x="245" y="23" type="line" smooth="yes"/>
			<point x="244" y="15"/>
			<point x="246" y="0"/>
			<point x="268" y="0" type="curve" smooth="yes"/>
			<point x="294" y="0"/>
			<point x="294" y="18"/>
			<point x="295" y="23" type="curve" smooth="yes"/>
		</contour>
	</outline>
</glyph>
<glyph name="b" format="2">
	<advance width="332"/>
	<unicode hex="0062"/>
	<outline>
		<contour>
			<point x="77" y="0" type="line"/>
			<point x="143" y="621" type="line" smooth="yes"/>
			<point x="145" y="640"/>
			<point x="134" y="650"/>
			<point x="122" y="650" type="curve" smooth="yes"/>
			<point x="109" y="650"/>
			<point x="95" y="641"/>
			<point x="93" y="621" type="curve" smooth="yes"/>
			<point x="28" y="22" type="line" smooth="yes"/>
			<point x="27" y="10"/>
			<point x="34" y="0"/>
			<point x="46" y="0" type="curve"/>
		</contour>
		<contour>
			<point x="89" y="240" type="curve"/>
			<point x="76" y="108" type="line"/>
			<point x="129" y="239"/>
			<point x="186" y="303"/>
			<point x="215" y="303" type="curve" smooth="yes"/>
			<point x="242" y="303"/>
			<point x="252" y="288"/>
			<point x="252" y="223" type="curve" smooth="yes"/>
			<point x="252" y="165"/>
			<point x="219" y="50"/>
			<point x="148" y="50" type="curve" smooth="yes"/>
			<point x="135" y="50"/>
			<point x="82" y="50"/>
			<point x="74" y="50" type="curve"/>
			<point x="69" y="0" type="line"/>
			<point x="81" y="0"/>
			<point x="135" y="0"/>
			<point x="151" y="0" type="curve" smooth="yes"/>
			<point x="254" y="0"/>
			<point x="302" y="138"/>
			<point x="302" y="228" type="curve" smooth="yes"/>
			<point x="302" y="328"/>
			<point x="261" y="353"/>
			<point x="223" y="353" type="curve" smooth="yes"/>
			<point x="169" y="353"/>
			<point x="125" y="304"/>
		</contour>
	</outline>
</glyph>
<glyph name="c" format="2">
  <advance width="300"/>
  <unicode hex="0063"/>
  <outline>
    <contour>
      <point x="242" y="131" type="curve" smooth="yes"/>
      <point x="247" y="141"/>
      <point x="237" y="154"/>
      <point x="230" y="158" type="curve" smooth="yes"/>
      <point x="222" y="162"/>
      <point x="204" y="165"/>
      <point x="198" y="154" type="curve" smooth="yes"/>
      <point x="168" y="96"/>
      <point x="123" y="46"/>
      <point x="99" y="46" type="curve" smooth="yes"/>
      <point x="71" y="46"/>
      <point x="63" y="77"/>
      <point x="64" y="105" type="curve" smooth="yes"/>
      <point x="66" y="181"/>
      <point x="93" y="300"/>
      <point x="167" y="300" type="curve" smooth="yes"/>
      <point x="185" y="300"/>
      <point x="210" y="296"/>
      <point x="223" y="294" type="curve" smooth="yes"/>
      <point x="235" y="292"/>
      <point x="251" y="292"/>
      <point x="259" y="309" type="curve" smooth="yes"/>
      <point x="266" y="324"/>
      <point x="262" y="337"/>
      <point x="248" y="340" type="curve" smooth="yes"/>
      <point x="229" y="344"/>
      <point x="194" y="350"/>
      <point x="167" y="350" type="curve" smooth="yes"/>
      <point x="54" y="350"/>
      <point x="14" y="207"/>
      <point x="13" y="95" type="curve" smooth="yes"/>
      <point x="13" y="20"/>
      <point x="58" y="-4"/>
      <point x="99" y="-4" type="curve" smooth="yes"/>
      <point x="152" y="-4"/>
      <point x="206" y="60"/>
    </contour>
  </outline>
</glyph>
<glyph name="d" format="2">
	<advance width="303"/>
	<unicode hex="0064"/>
	<outline>
		<contour>
			<point x="318" y="624" type="line" smooth="yes"/>
			<point x="320" y="640"/>
			<point x="307" y="650"/>
			<point x="293" y="650" type="curve" smooth="yes"/>
			<point x="282" y="650"/>
			<point x="270" y="644"/>
			<point x="268" y="629" type="curve" smooth="yes"/>
			<point x="204" y="27" type="line" smooth="yes"/>
			<point x="202" y="9"/>
			<point x="217" y="0"/>
			<point x="231" y="0" type="curve" smooth="yes"/>
			<point x="242" y="0"/>
			<point x="252" y="7"/>
			<point x="254" y="22" type="curve" smooth="yes"/>
		</contour>
		<contour>
			<point x="226" y="109" type="curve"/>
			<point x="239" y="241" type="line"/>
			<point x="186" y="110"/>
			<point x="129" y="46"/>
			<point x="100" y="46" type="curve" smooth="yes"/>
			<point x="73" y="46"/>
			<point x="63" y="61"/>
			<point x="63" y="126" type="curve" smooth="yes"/>
			<point x="63" y="184"/>
			<point x="96" y="300"/>
			<point x="167" y="300" type="curve" smooth="yes"/>
			<point x="180" y="300"/>
			<point x="233" y="300"/>
			<point x="241" y="300" type="curve"/>
			<point x="246" y="350" type="line"/>
			<point x="234" y="350"/>
			<point x="180" y="350"/>
			<point x="164" y="350" type="curve" smooth="yes"/>
			<point x="61" y="350"/>
			<point x="13" y="211"/>
			<point x="13" y="121" type="curve" smooth="yes"/>
			<point x="13" y="21"/>
			<point x="54" y="-4"/>
			<point x="92" y="-4" type="curve" smooth="yes"/>
			<point x="146" y="-4"/>
			<point x="190" y="45"/>
		</contour>
	</outline>
</glyph>
<glyph name="e" format="2">
	<advance width="348"/>
	<unicode hex="0065"/>
	<outline>
		<contour>
			<point x="88" y="145" type="line"/>
			<point x="180" y="145"/>
			<point x="299" y="222"/>
			<point x="306" y="287" type="curve" smooth="yes"/>
			<point x="310" y="328"/>
			<point x="267" y="350"/>
			<point x="216" y="350" type="curve" smooth="yes"/>
			<point x="100" y="350"/>
			<point x="56" y="225"/>
			<point x="52" y="107" type="curve" smooth="yes"/>
			<point x="48" y="19"/>
			<point x="93" y="-4"/>
			<point x="131" y="-4" type="curve" smooth="yes"/>
			<point x="184" y="-4"/>
			<point x="236" y="37"/>
			<point x="256" y="68" type="curve" smooth="yes"/>
			<point x="275" y="97"/>
			<point x="277" y="114"/>
			<point x="266" y="121" type="curve" smooth="yes"/>
			<point x="255" y="129"/>
			<point x="237" y="130"/>
			<point x="220" y="105" type="curve" smooth="yes"/>
			<point x="209" y="92"/>
			<point x="171" y="46"/>
			<point x="134" y="46" type="curve" smooth="yes"/>
			<point x="121" y="46"/>
			<point x="101" y="64"/>
			<point x="102" y="98" type="curve" smooth="yes"/>
			<point x="105" y="193"/>
			<point x="128" y="300"/>
			<point x="225" y="300" type="curve" smooth="yes"/>
			<point x="243" y="300"/>
			<point x="256" y="292"/>
			<point x="255" y="284" type="curve" smooth="yes"/>
			<point x="253" y="267"/>
			<point x="160" y="194"/>
			<point x="96" y="194" type="curve"/>
		</contour>
	</outline>
</glyph>
<glyph name="f" format="2">
	<advance width="309"/>
	<unicode hex="0066"/>
	<outline>
		<contour>
			<point x="310" y="596" type="curve" smooth="yes"/>
			<point x="318" y="594"/>
			<point x="336" y="592"/>
			<point x="343" y="611" type="curve" smooth="yes"/>
			<point x="350" y="629"/>
			<point x="338" y="639"/>
			<point x="330" y="642" type="curve" smooth="yes"/>
			<point x="313" y="647"/>
			<point x="294" y="650"/>
			<point x="275" y="650" type="curve" smooth="yes"/>
			<point x="225" y="650"/>
			<point x="175" y="616"/>
			<point x="166" y="527" type="curve" smooth="yes"/>
			<point x="113" y="28" type="line" smooth="yes"/>
			<point x="112" y="16"/>
			<point x="121" y="0"/>
			<point x="139" y="0" type="curve" smooth="yes"/>
			<point x="156" y="0"/>
			<point x="162" y="15"/>
			<point x="163" y="27" type="curve" smooth="yes"/>
			<point x="215" y="518" type="line" smooth="yes"/>
			<point x="221" y="578"/>
			<point x="245" y="600"/>
			<point x="278" y="600" type="curve" smooth="yes"/>
			<point x="289" y="600"/>
			<point x="300" y="599"/>
		</contour>
		<contour>
			<point x="271" y="305" type="line" smooth="yes"/>
			<point x="291" y="305"/>
			<point x="295" y="316"/>
			<point x="295" y="328" type="curve" smooth="yes"/>
			<point x="295" y="340"/>
			<point x="288" y="350"/>
			<point x="268" y="350" type="curve" smooth="yes"/>
			<point x="73" y="350" type="line" smooth="yes"/>
			<point x="53" y="350"/>
			<point x="48" y="340"/>
			<point x="48" y="328" type="curve" smooth="yes"/>
			<point x="48" y="316"/>
			<point x="56" y="305"/>
			<point x="76" y="305" type="curve" smooth="yes"/>
		</contour>
	</outline>
</glyph>
<glyph name="g" format="2">
  <advance width="326"/>
  <unicode hex="0067"/>
  <outline>
    <contour>
      <point x="10" y="121" type="curve" smooth="yes"/>
      <point x="10" y="21"/>
      <point x="51" y="-4"/>
      <point x="89" y="-4" type="curve" smooth="yes"/>
      <point x="143" y="-4"/>
      <point x="189" y="59"/>
      <point x="225" y="124" type="curve"/>
      <point x="236" y="241" type="line"/>
      <point x="183" y="110"/>
      <point x="126" y="46"/>
      <point x="97" y="46" type="curve" smooth="yes"/>
      <point x="70" y="46"/>
      <point x="60" y="61"/>
      <point x="60" y="126" type="curve" smooth="yes"/>
      <point x="60" y="184"/>
      <point x="93" y="300"/>
      <point x="164" y="300" type="curve" smooth="yes"/>
      <point x="247" y="300" type="line"/>
      <point x="252" y="350" type="line"/>
      <point x="161" y="350" type="line" smooth="yes"/>
      <point x="58" y="350"/>
      <point x="10" y="211"/>
    </contour>
    <contour>
      <point x="-24" y="-240" type="curve" smooth="yes"/>
      <point x="-34" y="-252"/>
      <point x="-31" y="-266"/>
      <point x="-20" y="-274" type="curve" smooth="yes"/>
      <point x="-2" y="-287"/>
      <point x="32" y="-300"/>
      <point x="68" y="-300" type="curve" smooth="yes"/>
      <point x="119" y="-300"/>
      <point x="155" y="-287"/>
      <point x="180" y="-263" type="curve" smooth="yes"/>
      <point x="217" y="-228"/>
      <point x="231" y="-169"/>
      <point x="239" y="-95" type="curve" smooth="yes"/>
      <point x="284" y="326" type="line" smooth="yes"/>
      <point x="286" y="343"/>
      <point x="275" y="350"/>
      <point x="258" y="350" type="curve"/>
      <point x="236" y="350" type="line"/>
      <point x="219" y="198" type="line"/>
      <point x="189" y="-95" type="line" smooth="yes"/>
      <point x="184" y="-143"/>
      <point x="176" y="-195"/>
      <point x="146" y="-224" type="curve" smooth="yes"/>
      <point x="128" y="-243"/>
      <point x="98" y="-250"/>
      <point x="64" y="-250" type="curve" smooth="yes"/>
      <point x="45" y="-250"/>
      <point x="22" y="-240"/>
      <point x="7" y="-233" type="curve" smooth="yes"/>
      <point x="0" y="-230"/>
      <point x="-14" y="-228"/>
    </contour>
  </outline>
</glyph>
<glyph name="h" format="2">
	<advance width="340"/>
	<unicode hex="0068"/>
	<outline>
		<contour>
			<point x="88" y="246" type="curve"/>
			<point x="78" y="114" type="line"/>
			<point x="140" y="251"/>
			<point x="179" y="305"/>
			<point x="221" y="305" type="curve" smooth="yes"/>
			<point x="246" y="305"/>
			<point x="255" y="261"/>
			<point x="252" y="234" type="curve" smooth="yes"/>
			<point x="229" y="23" type="line" smooth="yes"/>
			<point x="228" y="15"/>
			<point x="230" y="0"/>
			<point x="252" y="0" type="curve"/>
			<point x="278" y="0"/>
			<point x="278" y="18"/>
			<point x="279" y="23" type="curve" smooth="yes"/>
			<point x="302" y="234" type="line" smooth="yes"/>
			<point x="308" y="291"/>
			<point x="282" y="354"/>
			<point x="224" y="354" type="curve" smooth="yes"/>
			<point x="169" y="354"/>
			<point x="132" y="313"/>
		</contour>
		<contour>
			<point x="142" y="623" type="line" smooth="yes"/>
			<point x="144" y="641"/>
			<point x="134" y="650"/>
			<point x="121" y="650" type="curve" smooth="yes"/>
			<point x="108" y="650"/>
			<point x="94" y="641"/>
			<point x="92" y="623" type="curve" smooth="yes"/>
			<point x="28" y="23" type="line" smooth="yes"/>
			<point x="26" y="8"/>
			<point x="38" y="0"/>
			<point x="51" y="0" type="curve" smooth="yes"/>
			<point x="64" y="0"/>
			<point x="76" y="7"/>
			<point x="78" y="23" type="curve" smooth="yes"/>
		</contour>
	</outline>
</glyph>
<glyph name="i" format="2">
	<advance width="143"/>
	<unicode hex="0069"/>
	<outline>
		<contour>
			<point x="112" y="320" type="line" smooth="yes"/>
			<point x="114" y="340"/>
			<point x="102" y="350"/>
			<point x="90" y="350" type="curve" smooth="yes"/>
			<point x="77" y="350"/>
			<point x="64" y="341"/>
			<point x="62" y="323" type="curve" smooth="yes"/>
			<point x="31" y="28" type="line" smooth="yes"/>
			<point x="29" y="9"/>
			<point x="41" y="0"/>
			<point x="54" y="0" type="curve" smooth="yes"/>
			<point x="66" y="0"/>
			<point x="79" y="10"/>
			<point x="81" y="28" type="curve" smooth="yes"/>
		</contour>
		<contour>
			<point x="103" y="440" type="curve" smooth="yes"/>
			<point x="118" y="440"/>
			<point x="130" y="454"/>
			<point x="130" y="468" type="curve" smooth="yes"/>
			<point x="130" y="483"/>
			<point x="118" y="495"/>
			<point x="103" y="495" type="curve" smooth="yes"/>
			<point x="89" y="495"/>
			<point x="75" y="483"/>
			<point x="75" y="468" type="curve" smooth="yes"/>
			<point x="75" y="454"/>
			<point x="89" y="440"/>
		</contour>
	</outline>
</glyph>
<glyph name="j" format="2">
	<advance width="183"/>
	<unicode hex="006A"/>
	<outline>
		<contour>
			<point x="35" y="-129"/>
			<point x="27" y="-197"/>
			<point x="-3" y="-226" type="curve" smooth="yes"/>
			<point x="-21" y="-245"/>
			<point x="-52" y="-250"/>
			<point x="-86" y="-250" type="curve" smooth="yes"/>
			<point x="-105" y="-250"/>
			<point x="-128" y="-240"/>
			<point x="-143" y="-233" type="curve" smooth="yes"/>
			<point x="-150" y="-230"/>
			<point x="-164" y="-228"/>
			<point x="-174" y="-240" type="curve" smooth="yes"/>
			<point x="-184" y="-252"/>
			<point x="-181" y="-266"/>
			<point x="-170" y="-274" type="curve" smooth="yes"/>
			<point x="-152" y="-287"/>
			<point x="-118" y="-300"/>
			<point x="-82" y="-300" type="curve" smooth="yes"/>
			<point x="-31" y="-300"/>
			<point x="5" y="-287"/>
			<point x="30" y="-263" type="curve" smooth="yes"/>
			<point x="71" y="-224"/>
			<point x="83" y="-156"/>
			<point x="89" y="-94" type="curve" smooth="yes"/>
			<point x="133" y="327" type="line" smooth="yes"/>
			<point x="135" y="344"/>
			<point x="123" y="351"/>
			<point x="106" y="351" type="curve" smooth="yes"/>
			<point x="95" y="351"/>
			<point x="84" y="340"/>
			<point x="83" y="329" type="curve" smooth="yes"/>
			<point x="39" y="-94" type="line" smooth="yes"/>
		</contour>
		<contour>
			<point x="124" y="440" type="curve" smooth="yes"/>
			<point x="139" y="440"/>
			<point x="150" y="453"/>
			<point x="150" y="469" type="curve" smooth="yes"/>
			<point x="150" y="484"/>
			<point x="139" y="495"/>
			<point x="124" y="495" type="curve" smooth="yes"/>
			<point x="109" y="495"/>
			<point x="95" y="484"/>
			<point x="95" y="469" type="curve" smooth="yes"/>
			<point x="95" y="453"/>
			<point x="109" y="440"/>
		</contour>
	</outline>
</glyph>
<glyph name="k" format="2">
	<advance width="340"/>
	<unicode hex="006B"/>
	<outline>
		<contour>
			<point x="142" y="621" type="line" smooth="yes"/>
			<point x="144" y="642"/>
			<point x="133" y="650"/>
			<point x="117" y="650" type="curve" smooth="yes"/>
			<point x="102" y="650"/>
			<point x="94" y="639"/>
			<point x="92" y="622" type="curve" smooth="yes"/>
			<point x="28" y="26" type="line" smooth="yes"/>
			<point x="26" y="10"/>
			<point x="37" y="0"/>
			<point x="50" y="0" type="curve" smooth="yes"/>
			<point x="66" y="0"/>
			<point x="76" y="7"/>
			<point x="78" y="26" type="curve" smooth="yes"/>
		</contour>
		<contour>
			<point x="148" y="175" type="line"/>
			<point x="80" y="175" type="line"/>
			<point x="226" y="18" type="line" smooth="yes"/>
			<point x="235" y="8"/>
			<point x="244" y="-1"/>
			<point x="257" y="-1" type="curve" smooth="yes"/>
			<point x="267" y="-1"/>
			<point x="277" y="5"/>
			<point x="279" y="16" type="curve" smooth="yes"/>
			<point x="280" y="23"/>
			<point x="282" y="32"/>
			<point x="273" y="42" type="curve" smooth="yes"/>
		</contour>
		<contour>
			<point x="80" y="158" type="line"/>
			<point x="86" y="167"/>
			<point x="100" y="189"/>
			<point x="107" y="197" type="curve" smooth="yes"/>
			<point x="122" y="215"/>
			<point x="148" y="259"/>
			<point x="165" y="274" type="curve" smooth="yes"/>
			<point x="184" y="290"/>
			<point x="204" y="305"/>
			<point x="224" y="305" type="curve" smooth="yes"/>
			<point x="238" y="305"/>
			<point x="248" y="287"/>
			<point x="247" y="274" type="curve" smooth="yes"/>
			<point x="244" y="248"/>
			<point x="227" y="236"/>
			<point x="199" y="219" type="curve" smooth="yes"/>
			<point x="179" y="207"/>
			<point x="108" y="185"/>
			<point x="80" y="175" type="curve"/>
			<point x="142" y="144" type="line"/>
			<point x="155" y="148"/>
			<point x="204" y="164"/>
			<point x="222" y="175" type="curve" smooth="yes"/>
			<point x="257" y="196"/>
			<point x="293" y="225"/>
			<point x="296" y="254" type="curve" smooth="yes"/>
			<point x="300" y="288"/>
			<point x="285" y="354"/>
			<point x="226" y="354" type="curve" smooth="yes"/>
			<point x="193" y="354"/>
			<point x="161" y="336"/>
			<point x="132" y="311" type="curve" smooth="yes"/>
			<point x="116" y="297"/>
			<point x="100" y="271"/>
			<point x="84" y="254" type="curve"/>
		</contour>
	</outline>
</glyph>
<glyph name="l" format="2">
	<advance width="115"/>
	<unicode hex="006C"/>
	<outline>
		<contour>
			<point x="130" y="624" type="line" smooth="yes"/>
			<point x="132" y="640"/>
			<point x="118" y="650"/>
			<point x="104" y="650" type="curve" smooth="yes"/>
			<point x="93" y="650"/>
			<point x="82" y="644"/>
			<point x="80" y="629" type="curve" smooth="yes"/>
			<point x="16" y="27" type="line" smooth="yes"/>
			<point x="14" y="9"/>
			<point x="28" y="0"/>
			<point x="42" y="0" type="curve" smooth="yes"/>
			<point x="53" y="0"/>
			<point x="65" y="7"/>
			<point x="66" y="22" type="curve" smooth="yes"/>
		</contour>
	</outline>
</glyph>
<glyph name="m" format="2">
  <advance width="529"/>
  <unicode hex="006D"/>
  <outline>
    <contour>
      <point x="91" y="323" type="line" smooth="yes"/>
      <point x="93" y="340"/>
      <point x="90" y="350"/>
      <point x="73" y="350" type="curve"/>
      <point x="54" y="350"/>
      <point x="43" y="342"/>
      <point x="41" y="323" type="curve" smooth="yes"/>
      <point x="9" y="23" type="line" smooth="yes"/>
      <point x="8" y="15"/>
      <point x="11" y="0"/>
      <point x="33" y="0" type="curve" smooth="yes"/>
      <point x="59" y="0"/>
      <point x="58" y="18"/>
      <point x="59" y="23" type="curve" smooth="yes"/>
    </contour>
    <contour>
      <point x="63" y="246" type="curve"/>
      <point x="53" y="114" type="line"/>
      <point x="115" y="251"/>
      <point x="154" y="305"/>
      <point x="196" y="305" type="curve" smooth="yes"/>
      <point x="221" y="305"/>
      <point x="230" y="261"/>
      <point x="227" y="234" type="curve" smooth="yes"/>
      <point x="204" y="23" type="line" smooth="yes"/>
      <point x="203" y="15"/>
      <point x="205" y="0"/>
      <point x="227" y="0" type="curve"/>
      <point x="253" y="0"/>
      <point x="253" y="18"/>
      <point x="254" y="23" type="curve" smooth="yes"/>
      <point x="277" y="234" type="line" smooth="yes"/>
      <point x="283" y="291"/>
      <point x="257" y="354"/>
      <point x="199" y="354" type="curve" smooth="yes"/>
      <point x="144" y="354"/>
      <point x="107" y="313"/>
    </contour>
    <contour>
      <point x="258" y="246" type="curve"/>
      <point x="248" y="114" type="line"/>
      <point x="310" y="251"/>
      <point x="349" y="305"/>
      <point x="391" y="305" type="curve" smooth="yes"/>
      <point x="416" y="305"/>
      <point x="425" y="261"/>
      <point x="422" y="234" type="curve" smooth="yes"/>
      <point x="399" y="23" type="line" smooth="yes"/>
      <point x="398" y="15"/>
      <point x="400" y="0"/>
      <point x="422" y="0" type="curve"/>
      <point x="448" y="0"/>
      <point x="448" y="18"/>
      <point x="449" y="23" type="curve" smooth="yes"/>
      <point x="472" y="234" type="line" smooth="yes"/>
      <point x="478" y="291"/>
      <point x="452" y="354"/>
      <point x="394" y="354" type="curve" smooth="yes"/>
      <point x="339" y="354"/>
      <point x="302" y="313"/>
    </contour>
  </outline>
</glyph>
<glyph name="n" format="2">
	<advance width="334"/>
	<unicode hex="006E"/>
	<outline>
		<contour>
			<point x="110" y="323" type="line" smooth="yes"/>
			<point x="112" y="340"/>
			<point x="109" y="350"/>
			<point x="92" y="350" type="curve" smooth="yes"/>
			<point x="72" y="350"/>
			<point x="62" y="341"/>
			<point x="60" y="323" type="curve" smooth="yes"/>
			<point x="28" y="23" type="line" smooth="yes"/>
			<point x="27" y="15"/>
			<point x="30" y="0"/>
			<point x="52" y="0" type="curve" smooth="yes"/>
			<point x="78" y="0"/>
			<point x="77" y="18"/>
			<point x="78" y="23" type="curve" smooth="yes"/>
		</contour>
		<contour>
			<point x="82" y="246" type="curve"/>
			<point x="72" y="114" type="line"/>
			<point x="134" y="251"/>
			<point x="173" y="305"/>
			<point x="215" y="305" type="curve" smooth="yes"/>
			<point x="240" y="305"/>
			<point x="249" y="261"/>
			<point x="246" y="234" type="curve" smooth="yes"/>
			<point x="223" y="23" type="line" smooth="yes"/>
			<point x="222" y="15"/>
			<point x="224" y="0"/>
			<point x="246" y="0" type="curve"/>
			<point x="272" y="0"/>
			<point x="272" y="18"/>
			<point x="273" y="23" type="curve" smooth="yes"/>
			<point x="296" y="234" type="line" smooth="yes"/>
			<point x="302" y="291"/>
			<point x="276" y="354"/>
			<point x="218" y="354" type="curve" smooth="yes"/>
			<point x="163" y="354"/>
			<point x="126" y="313"/>
		</contour>
	</outline>
</glyph>
<glyph name="o" format="2">
  <advance width="314"/>
  <unicode hex="006F"/>
  <outline>
    <contour>
      <point x="96" y="-4" type="curve" smooth="yes"/>
      <point x="180" y="-4"/>
      <point x="267" y="157"/>
      <point x="277" y="248" type="curve" smooth="yes"/>
      <point x="283" y="308"/>
      <point x="234" y="350"/>
      <point x="164" y="350" type="curve" smooth="yes"/>
      <point x="51" y="350"/>
      <point x="11" y="207"/>
      <point x="10" y="95" type="curve" smooth="yes"/>
      <point x="9" y="20"/>
      <point x="55" y="-4"/>
    </contour>
    <contour>
      <point x="96" y="46" type="curve" smooth="yes"/>
      <point x="68" y="46"/>
      <point x="60" y="77"/>
      <point x="61" y="105" type="curve" smooth="yes"/>
      <point x="63" y="181"/>
      <point x="90" y="300"/>
      <point x="164" y="300" type="curve" smooth="yes"/>
      <point x="208" y="300"/>
      <point x="230" y="281"/>
      <point x="226" y="247" type="curve" smooth="yes"/>
      <point x="216" y="163"/>
      <point x="133" y="46"/>
    </contour>
  </outline>
</glyph>
<glyph name="p" format="2">
	<advance width="332"/>
	<unicode hex="0070"/>
	<outline>
		<contour>
			<point x="112" y="327" type="line" smooth="yes"/>
			<point x="114" y="342"/>
			<point x="103" y="350"/>
			<point x="90" y="350" type="curve" smooth="yes"/>
			<point x="78" y="350"/>
			<point x="64" y="342"/>
			<point x="62" y="327" type="curve" smooth="yes"/>
			<point x="-3" y="-276" type="line" smooth="yes"/>
			<point x="-5" y="-292"/>
			<point x="8" y="-300"/>
			<point x="21" y="-300" type="curve" smooth="yes"/>
			<point x="33" y="-300"/>
			<point x="45" y="-292"/>
			<point x="47" y="-277" type="curve" smooth="yes"/>
		</contour>
		<contour>
			<point x="89" y="240" type="curve"/>
			<point x="76" y="108" type="line"/>
			<point x="129" y="239"/>
			<point x="186" y="303"/>
			<point x="215" y="303" type="curve" smooth="yes"/>
			<point x="242" y="303"/>
			<point x="252" y="288"/>
			<point x="252" y="223" type="curve" smooth="yes"/>
			<point x="252" y="165"/>
			<point x="219" y="50"/>
			<point x="148" y="50" type="curve" smooth="yes"/>
			<point x="135" y="50"/>
			<point x="82" y="50"/>
			<point x="74" y="50" type="curve"/>
			<point x="69" y="0" type="line"/>
			<point x="81" y="0"/>
			<point x="135" y="0"/>
			<point x="151" y="0" type="curve" smooth="yes"/>
			<point x="254" y="0"/>
			<point x="302" y="138"/>
			<point x="302" y="228" type="curve" smooth="yes"/>
			<point x="302" y="328"/>
			<point x="261" y="353"/>
			<point x="223" y="353" type="curve" smooth="yes"/>
			<point x="169" y="353"/>
			<point x="125" y="304"/>
		</contour>
	</outline>
</glyph>
<glyph name="q" format="2">
	<advance width="337"/>
	<unicode hex="0071"/>
	<outline>
		<contour>
			<point x="260" y="350" type="line"/>
			<point x="207" y="-154" type="line" smooth="yes"/>
			<point x="200" y="-223"/>
			<point x="205" y="-300"/>
			<point x="275" y="-300" type="curve" smooth="yes"/>
			<point x="326" y="-300"/>
			<point x="358" y="-218"/>
			<point x="357" y="-206" type="curve" smooth="yes"/>
			<point x="356" y="-191"/>
			<point x="344" y="-184"/>
			<point x="333" y="-184" type="curve" smooth="yes"/>
			<point x="321" y="-184"/>
			<point x="313" y="-192"/>
			<point x="311" y="-196" type="curve" smooth="yes"/>
			<point x="285" y="-241"/>
			<point x="278" y="-252"/>
			<point x="271" y="-252" type="curve" smooth="yes"/>
			<point x="251" y="-252"/>
			<point x="252" y="-203"/>
			<point x="256" y="-168" type="curve" smooth="yes"/>
			<point x="308" y="327" type="line" smooth="yes"/>
			<point x="309" y="335"/>
			<point x="307" y="350"/>
			<point x="285" y="350" type="curve" smooth="yes"/>
		</contour>
		<contour>
			<point x="247" y="109" type="curve"/>
			<point x="260" y="241" type="line"/>
			<point x="207" y="110"/>
			<point x="150" y="46"/>
			<point x="121" y="46" type="curve" smooth="yes"/>
			<point x="94" y="46"/>
			<point x="84" y="61"/>
			<point x="84" y="126" type="curve" smooth="yes"/>
			<point x="84" y="184"/>
			<point x="117" y="300"/>
			<point x="188" y="300" type="curve" smooth="yes"/>
			<point x="201" y="300"/>
			<point x="254" y="300"/>
			<point x="262" y="300" type="curve"/>
			<point x="267" y="350" type="line"/>
			<point x="255" y="350"/>
			<point x="201" y="350"/>
			<point x="185" y="350" type="curve" smooth="yes"/>
			<point x="82" y="350"/>
			<point x="34" y="211"/>
			<point x="34" y="121" type="curve" smooth="yes"/>
			<point x="34" y="21"/>
			<point x="75" y="-4"/>
			<point x="113" y="-4" type="curve" smooth="yes"/>
			<point x="167" y="-4"/>
			<point x="211" y="45"/>
		</contour>
	</outline>
</glyph>
<glyph name="r" format="2">
  <advance width="299"/>
  <unicode hex="0072"/>
  <outline>
    <contour>
      <point x="91" y="320" type="line" smooth="yes"/>
      <point x="93" y="340"/>
      <point x="82" y="350"/>
      <point x="69" y="350" type="curve" smooth="yes"/>
      <point x="57" y="350"/>
      <point x="43" y="341"/>
      <point x="41" y="323" type="curve" smooth="yes"/>
      <point x="10" y="27" type="line" smooth="yes"/>
      <point x="8" y="9"/>
      <point x="20" y="0"/>
      <point x="33" y="0" type="curve" smooth="yes"/>
      <point x="46" y="0"/>
      <point x="58" y="9"/>
      <point x="60" y="27" type="curve" smooth="yes"/>
    </contour>
    <contour>
      <point x="226" y="262" type="curve" smooth="yes"/>
      <point x="228" y="251"/>
      <point x="246" y="247"/>
      <point x="258" y="253" type="curve" smooth="yes"/>
      <point x="269" y="258"/>
      <point x="277" y="268"/>
      <point x="273" y="287" type="curve" smooth="yes"/>
      <point x="264" y="324"/>
      <point x="239" y="354"/>
      <point x="199" y="354" type="curve" smooth="yes"/>
      <point x="144" y="354"/>
      <point x="107" y="313"/>
      <point x="63" y="246" type="curve"/>
      <point x="53" y="114" type="line"/>
      <point x="115" y="251"/>
      <point x="154" y="305"/>
      <point x="196" y="305" type="curve" smooth="yes"/>
      <point x="213" y="305"/>
      <point x="221" y="284"/>
    </contour>
  </outline>
</glyph>
<glyph name="s" format="2">
	<advance width="341"/>
	<unicode hex="0073"/>
	<outline>
		<contour>
			<point x="172" y="46" type="curve" smooth="yes"/>
			<point x="140" y="46"/>
			<point x="108" y="68"/>
			<point x="92" y="80" type="curve" smooth="yes"/>
			<point x="77" y="90"/>
			<point x="55" y="85"/>
			<point x="49" y="73" type="curve" smooth="yes"/>
			<point x="40" y="56"/>
			<point x="55" y="45"/>
			<point x="73" y="32" type="curve" smooth="yes"/>
			<point x="109" y="7"/>
			<point x="148" y="-4"/>
			<point x="175" y="-4" type="curve" smooth="yes"/>
			<point x="223" y="-4"/>
			<point x="271" y="22"/>
			<point x="277" y="80" type="curve" smooth="yes"/>
			<point x="281" y="117"/>
			<point x="264" y="145"/>
			<point x="245" y="162" type="curve" smooth="yes"/>
			<point x="221" y="184"/>
			<point x="194" y="197"/>
			<point x="166" y="216" type="curve" smooth="yes"/>
			<point x="143" y="231"/>
			<point x="115" y="246"/>
			<point x="117" y="265" type="curve" smooth="yes"/>
			<point x="119" y="287"/>
			<point x="150" y="300"/>
			<point x="182" y="300" type="curve" smooth="yes"/>
			<point x="214" y="300"/>
			<point x="242" y="289"/>
			<point x="254" y="279" type="curve" smooth="yes"/>
			<point x="267" y="269"/>
			<point x="291" y="272"/>
			<point x="297" y="284" type="curve" smooth="yes"/>
			<point x="306" y="301"/>
			<point x="293" y="315"/>
			<point x="274" y="325" type="curve" smooth="yes"/>
			<point x="237" y="346"/>
			<point x="206" y="350"/>
			<point x="179" y="350" type="curve" smooth="yes"/>
			<point x="119" y="350"/>
			<point x="74" y="319"/>
			<point x="67" y="265" type="curve" smooth="yes"/>
			<point x="63" y="226"/>
			<point x="104" y="194"/>
			<point x="135" y="176" type="curve" smooth="yes"/>
			<point x="163" y="159"/>
			<point x="188" y="144"/>
			<point x="203" y="133" type="curve" smooth="yes"/>
			<point x="216" y="122"/>
			<point x="229" y="102"/>
			<point x="227" y="83" type="curve" smooth="yes"/>
			<point x="224" y="55"/>
			<point x="199" y="48"/>
		</contour>
	</outline>
</glyph>
<glyph name="t" format="2">
	<advance width="286"/>
	<unicode hex="0074"/>
	<outline>
		<contour>
			<point x="211" y="622" type="line" smooth="yes"/>
			<point x="213" y="640"/>
			<point x="199" y="650"/>
			<point x="185" y="650" type="curve" smooth="yes"/>
			<point x="174" y="650"/>
			<point x="162" y="643"/>
			<point x="161" y="629" type="curve" smooth="yes"/>
			<point x="96" y="24" type="line" smooth="yes"/>
			<point x="94" y="8"/>
			<point x="108" y="0"/>
			<point x="121" y="0" type="curve" smooth="yes"/>
			<point x="134" y="0"/>
			<point x="144" y="7"/>
			<point x="146" y="23" type="curve" smooth="yes"/>
		</contour>
		<contour>
			<point x="268" y="305" type="line" smooth="yes"/>
			<point x="288" y="305"/>
			<point x="292" y="316"/>
			<point x="292" y="328" type="curve" smooth="yes"/>
			<point x="292" y="340"/>
			<point x="285" y="350"/>
			<point x="265" y="350" type="curve" smooth="yes"/>
			<point x="41" y="350" type="line" smooth="yes"/>
			<point x="21" y="350"/>
			<point x="16" y="340"/>
			<point x="16" y="328" type="curve" smooth="yes"/>
			<point x="16" y="316"/>
			<point x="24" y="305"/>
			<point x="44" y="305" type="curve" smooth="yes"/>
		</contour>
	</outline>
</glyph>
<glyph name="u" format="2">
	<advance width="375"/>
	<unicode hex="0075"/>
	<outline>
		<contour>
			<point x="245" y="27" type="line" smooth="yes"/>
			<point x="243" y="10"/>
			<point x="247" y="0"/>
			<point x="264" y="0" type="curve"/>
			<point x="284" y="0"/>
			<point x="293" y="9"/>
			<point x="295" y="27" type="curve" smooth="yes"/>
			<point x="327" y="327" type="line" smooth="yes"/>
			<point x="328" y="335"/>
			<point x="326" y="350"/>
			<point x="304" y="350" type="curve" smooth="yes"/>
			<point x="278" y="350"/>
			<point x="278" y="332"/>
			<point x="277" y="327" type="curve" smooth="yes"/>
		</contour>
		<contour>
			<point x="272" y="104" type="curve"/>
			<point x="282" y="236" type="line"/>
			<point x="220" y="99"/>
			<point x="181" y="45"/>
			<point x="139" y="45" type="curve" smooth="yes"/>
			<point x="114" y="45"/>
			<point x="105" y="89"/>
			<point x="108" y="116" type="curve" smooth="yes"/>
			<point x="131" y="327" type="line" smooth="yes"/>
			<point x="132" y="335"/>
			<point x="130" y="350"/>
			<point x="108" y="350" type="curve"/>
			<point x="82" y="350"/>
			<point x="82" y="332"/>
			<point x="81" y="327" type="curve" smooth="yes"/>
			<point x="58" y="116" type="line" smooth="yes"/>
			<point x="52" y="59"/>
			<point x="78" y="-4"/>
			<point x="136" y="-4" type="curve" smooth="yes"/>
			<point x="191" y="-4"/>
			<point x="228" y="37"/>
		</contour>
	</outline>
</glyph>
<glyph name="v" format="2">
	<advance width="377"/>
	<unicode hex="0076"/>
	<outline>
		<contour>
			<point x="130" y="320" type="line" smooth="yes"/>
			<point x="132" y="340"/>
			<point x="122" y="350"/>
			<point x="109" y="350" type="curve" smooth="yes"/>
			<point x="97" y="350"/>
			<point x="82" y="341"/>
			<point x="80" y="323" type="curve" smooth="yes"/>
			<point x="57" y="102" type="line" smooth="yes"/>
			<point x="51" y="49"/>
			<point x="70" y="-4"/>
			<point x="112" y="-4" type="curve" smooth="yes"/>
			<point x="172" y="-4"/>
			<point x="231" y="69"/>
			<point x="261" y="138" type="curve" smooth="yes"/>
			<point x="283" y="189"/>
			<point x="312" y="269"/>
			<point x="326" y="314" type="curve" smooth="yes"/>
			<point x="333" y="336"/>
			<point x="328" y="350"/>
			<point x="308" y="350" type="curve" smooth="yes"/>
			<point x="290" y="350"/>
			<point x="281" y="336"/>
			<point x="276" y="322" type="curve" smooth="yes"/>
			<point x="261" y="279"/>
			<point x="245" y="229"/>
			<point x="226" y="183" type="curve" smooth="yes"/>
			<point x="209" y="142"/>
			<point x="155" y="47"/>
			<point x="121" y="47" type="curve" smooth="yes"/>
			<point x="100" y="47"/>
			<point x="105" y="79"/>
			<point x="107" y="102" type="curve" smooth="yes"/>
		</contour>
	</outline>
</glyph>
<glyph name="w" format="2">
	<advance width="575"/>
	<unicode hex="0077"/>
	<outline>
		<contour>
			<point x="130" y="320" type="line" smooth="yes"/>
			<point x="132" y="340"/>
			<point x="122" y="350"/>
			<point x="109" y="350" type="curve" smooth="yes"/>
			<point x="97" y="350"/>
			<point x="82" y="341"/>
			<point x="80" y="323" type="curve" smooth="yes"/>
			<point x="57" y="102" type="line" smooth="yes"/>
			<point x="51" y="49"/>
			<point x="70" y="-4"/>
			<point x="112" y="-4" type="curve" smooth="yes"/>
			<point x="172" y="-4"/>
			<point x="233" y="68"/>
			<point x="261" y="138" type="curve" smooth="yes"/>
			<point x="284" y="195" type="line"/>
			<point x="308" y="350" type="line"/>
			<point x="290" y="350"/>
			<point x="281" y="336"/>
			<point x="276" y="322" type="curve" smooth="yes"/>
			<point x="261" y="279"/>
			<point x="245" y="229"/>
			<point x="226" y="183" type="curve" smooth="yes"/>
			<point x="209" y="142"/>
			<point x="155" y="47"/>
			<point x="121" y="47" type="curve" smooth="yes"/>
			<point x="100" y="47"/>
			<point x="105" y="79"/>
			<point x="107" y="102" type="curve" smooth="yes"/>
		</contour>
		<contour>
			<point x="328" y="320" type="line" smooth="yes"/>
			<point x="330" y="340"/>
			<point x="320" y="350"/>
			<point x="307" y="350" type="curve"/>
			<point x="265" y="196" type="line"/>
			<point x="255" y="102" type="line" smooth="yes"/>
			<point x="249" y="49"/>
			<point x="268" y="-4"/>
			<point x="310" y="-4" type="curve" smooth="yes"/>
			<point x="370" y="-4"/>
			<point x="429" y="69"/>
			<point x="459" y="138" type="curve" smooth="yes"/>
			<point x="481" y="189"/>
			<point x="510" y="269"/>
			<point x="524" y="314" type="curve" smooth="yes"/>
			<point x="531" y="336"/>
			<point x="526" y="350"/>
			<point x="506" y="350" type="curve" smooth="yes"/>
			<point x="488" y="350"/>
			<point x="479" y="336"/>
			<point x="474" y="322" type="curve" smooth="yes"/>
			<point x="459" y="279"/>
			<point x="443" y="229"/>
			<point x="424" y="183" type="curve" smooth="yes"/>
			<point x="407" y="142"/>
			<point x="353" y="47"/>
			<point x="319" y="47" type="curve" smooth="yes"/>
			<point x="298" y="47"/>
			<point x="303" y="79"/>
			<point x="305" y="102" type="curve" smooth="yes"/>
		</contour>
	</outline>
</glyph>
<glyph name="x" format="2">
  <advance width="276"/>
  <unicode hex="0078"/>
  <outline>
    <contour>
      <point x="4" y="0" type="curve" smooth="yes"/>
      <point x="12" y="0"/>
      <point x="19" y="6"/>
      <point x="28" y="18" type="curve" smooth="yes"/>
      <point x="243" y="304" type="line" smooth="yes"/>
      <point x="251" y="314"/>
      <point x="255" y="323"/>
      <point x="255" y="330" type="curve" smooth="yes"/>
      <point x="255.0" y="341.0"/>
      <point x="240.0" y="350.0"/>
      <point x="228" y="350" type="curve" smooth="yes"/>
      <point x="221" y="350"/>
      <point x="213" y="347"/>
      <point x="206" y="338" type="curve" smooth="yes"/>
      <point x="-9" y="49" type="line" smooth="yes"/>
      <point x="-20" y="34"/>
      <point x="-23" y="29"/>
      <point x="-23" y="22" type="curve" smooth="yes"/>
      <point x="-23" y="10.0"/>
      <point x="-7.0" y="0"/>
    </contour>
    <contour>
      <point x="197" y="0" type="curve" smooth="yes"/>
      <point x="210.0" y="0.0"/>
      <point x="224" y="10"/>
      <point x="224" y="24" type="curve" smooth="yes"/>
      <point x="224" y="30"/>
      <point x="218" y="41"/>
      <point x="214" y="49" type="curve" smooth="yes"/>
      <point x="61" y="333" type="line" smooth="yes"/>
      <point x="55" y="343"/>
      <point x="46" y="350"/>
      <point x="36" y="350.0" type="curve" smooth="yes"/>
      <point x="24.0" y="350.0"/>
      <point x="10.0" y="339.0"/>
      <point x="10" y="327" type="curve" smooth="yes"/>
      <point x="10" y="321"/>
      <point x="14" y="314"/>
      <point x="17" y="309" type="curve" smooth="yes"/>
      <point x="173" y="21" type="line" smooth="yes"/>
      <point x="182" y="5"/>
      <point x="189" y="0"/>
    </contour>
  </outline>
</glyph>
<glyph name="y" format="2">
	<advance width="316"/>
	<unicode hex="0079"/>
	<outline>
		<contour>
			<point x="255" y="236" type="line"/>
			<point x="193" y="99"/>
			<point x="154" y="45"/>
			<point x="112" y="45" type="curve" smooth="yes"/>
			<point x="87" y="45"/>
			<point x="78" y="89"/>
			<point x="81" y="116" type="curve" smooth="yes"/>
			<point x="104" y="327" type="line" smooth="yes"/>
			<point x="105" y="335"/>
			<point x="103" y="350"/>
			<point x="81" y="350" type="curve"/>
			<point x="55" y="350"/>
			<point x="55" y="332"/>
			<point x="54" y="327" type="curve" smooth="yes"/>
			<point x="31" y="116" type="line" smooth="yes"/>
			<point x="25" y="59"/>
			<point x="51" y="-4"/>
			<point x="109" y="-4" type="curve" smooth="yes"/>
			<point x="164" y="-4"/>
			<point x="201" y="37"/>
			<point x="245" y="104" type="curve"/>
		</contour>
		<contour>
			<point x="300" y="327" type="line" smooth="yes"/>
			<point x="302" y="344"/>
			<point x="290" y="351"/>
			<point x="273" y="351" type="curve" smooth="yes"/>
			<point x="262" y="351"/>
			<point x="251" y="340"/>
			<point x="250" y="329" type="curve" smooth="yes"/>
			<point x="206" y="-94" type="line" smooth="yes"/>
			<point x="202" y="-129"/>
			<point x="194" y="-197"/>
			<point x="164" y="-226" type="curve" smooth="yes"/>
			<point x="146" y="-245"/>
			<point x="115" y="-250"/>
			<point x="81" y="-250" type="curve" smooth="yes"/>
			<point x="62" y="-250"/>
			<point x="39" y="-240"/>
			<point x="24" y="-233" type="curve" smooth="yes"/>
			<point x="17" y="-230"/>
			<point x="3" y="-228"/>
			<point x="-7" y="-240" type="curve" smooth="yes"/>
			<point x="-17" y="-252"/>
			<point x="-14" y="-266"/>
			<point x="-3" y="-274" type="curve" smooth="yes"/>
			<point x="15" y="-287"/>
			<point x="49" y="-300"/>
			<point x="85" y="-300" type="curve" smooth="yes"/>
			<point x="136" y="-300"/>
			<point x="172" y="-287"/>
			<point x="197" y="-263" type="curve" smooth="yes"/>
			<point x="238" y="-224"/>
			<point x="250" y="-156"/>
			<point x="256" y="-94" type="curve" smooth="yes"/>
		</contour>
	</outline>
</glyph>
<glyph name="z" format="2">
	<advance width="335"/>
	<unicode hex="007A"/>
	<outline>
		<contour>
			<point x="299" y="309" type="line" smooth="yes"/>
			<point x="312" y="326"/>
			<point x="306" y="337"/>
			<point x="299" y="344" type="curve" smooth="yes"/>
			<point x="294" y="349"/>
			<point x="287" y="350"/>
			<point x="280" y="350" type="curve" smooth="yes"/>
			<point x="273" y="349"/>
			<point x="265" y="347"/>
			<point x="261" y="341" type="curve" smooth="yes"/>
			<point x="35" y="44" type="line" smooth="yes"/>
			<point x="25" y="31"/>
			<point x="27" y="19"/>
			<point x="38" y="6" type="curve" smooth="yes"/>
			<point x="42" y="2"/>
			<point x="47" y="0"/>
			<point x="54" y="0" type="curve" smooth="yes"/>
			<point x="62" y="0"/>
			<point x="69" y="6"/>
			<point x="73" y="11" type="curve" smooth="yes"/>
		</contour>
		<contour>
			<point x="52" y="0" type="line"/>
			<point x="251" y="0" type="line" smooth="yes"/>
			<point x="271" y="0"/>
			<point x="275" y="13"/>
			<point x="275" y="25" type="curve" smooth="yes"/>
			<point x="275" y="37"/>
			<point x="268" y="50"/>
			<point x="248" y="50" type="curve" smooth="yes"/>
			<point x="89" y="50" type="line"/>
		</contour>
		<contour>
			<point x="245" y="300" type="line"/>
			<point x="282" y="350" type="line"/>
			<point x="85" y="350" type="line" smooth="yes"/>
			<point x="65" y="350"/>
			<point x="60" y="337"/>
			<point x="60" y="325" type="curve" smooth="yes"/>
			<point x="60" y="313"/>
			<point x="68" y="300"/>
			<point x="88" y="300" type="curve" smooth="yes"/>
		</contour>
	</outline>
</glyph>
<glyph name="braceleft" format="2">
	<advance width="233"/>
	<unicode hex="007B"/>
	<outline>
		<contour>
			<point x="80" y="198" type="line"/>
			<point x="118" y="237"/>
			<point x="129" y="268"/>
			<point x="134" y="312" type="curve" smooth="yes"/>
			<point x="139" y="365"/>
			<point x="117" y="476"/>
			<point x="133" y="535" type="curve" smooth="yes"/>
			<point x="148" y="585"/>
			<point x="192" y="606"/>
			<point x="223" y="617" type="curve" smooth="yes"/>
			<point x="236" y="622"/>
			<point x="239" y="631"/>
			<point x="234" y="642" type="curve" smooth="yes"/>
			<point x="228" y="655"/>
			<point x="212" y="649"/>
			<point x="199" y="644" type="curve" smooth="yes"/>
			<point x="171" y="630"/>
			<point x="115" y="603"/>
			<point x="99" y="551" type="curve" smooth="yes"/>
			<point x="82" y="489"/>
			<point x="103" y="376"/>
			<point x="97" y="318" type="curve" smooth="yes"/>
			<point x="92" y="290"/>
			<point x="81" y="265"/>
			<point x="58" y="241" type="curve" smooth="yes"/>
			<point x="46" y="229"/>
			<point x="36" y="222"/>
			<point x="36" y="206" type="curve"/>
		</contour>
		<contour>
			<point x="36" y="206" type="line"/>
			<point x="37" y="188"/>
			<point x="44" y="179"/>
			<point x="54" y="163" type="curve" smooth="yes"/>
			<point x="72" y="130"/>
			<point x="79" y="101"/>
			<point x="78" y="72" type="curve" smooth="yes"/>
			<point x="75" y="15"/>
			<point x="38" y="-93"/>
			<point x="45" y="-159" type="curve" smooth="yes"/>
			<point x="52" y="-216"/>
			<point x="91" y="-266"/>
			<point x="117" y="-293" type="curve" smooth="yes"/>
			<point x="129" y="-305"/>
			<point x="142" y="-309"/>
			<point x="149" y="-299" type="curve" smooth="yes"/>
			<point x="156" y="-290"/>
			<point x="148" y="-281"/>
			<point x="137" y="-271" type="curve" smooth="yes"/>
			<point x="108" y="-244"/>
			<point x="87" y="-211"/>
			<point x="81" y="-157" type="curve" smooth="yes"/>
			<point x="75" y="-94"/>
			<point x="113" y="10"/>
			<point x="116" y="64" type="curve" smooth="yes"/>
			<point x="117" y="108"/>
			<point x="111" y="145"/>
			<point x="80" y="198" type="curve"/>
		</contour>
	</outline>
</glyph>
<glyph name="bar" format="2">
	<advance width="182"/>
	<unicode hex="007C"/>
	<outline>
		<contour>
			<point x="170" y="668" type="line" smooth="yes"/>
			<point x="173" y="690"/>
			<point x="161" y="700"/>
			<point x="148" y="700" type="curve" smooth="yes"/>
			<point x="136" y="700"/>
			<point x="122" y="690"/>
			<point x="120" y="672" type="curve" smooth="yes"/>
			<point x="19" y="-273" type="line" smooth="yes"/>
			<point x="17" y="-288"/>
			<point x="27" y="-300"/>
			<point x="45" y="-300" type="curve" smooth="yes"/>
			<point x="67" y="-300"/>
			<point x="69" y="-285"/>
			<point x="70" y="-275" type="curve" smooth="yes"/>
		</contour>
	</outline>
</glyph>
<glyph name="braceright" format="2">
	<advance width="228"/>
	<unicode hex="007D"/>
	<outline>
		<contour>
			<point x="149" y="166" type="line"/>
			<point x="109" y="125"/>
			<point x="96" y="91"/>
			<point x="90" y="48" type="curve" smooth="yes"/>
			<point x="81" y="-5"/>
			<point x="98" y="-119"/>
			<point x="80" y="-178" type="curve" smooth="yes"/>
			<point x="64" y="-228"/>
			<point x="38" y="-253"/>
			<point x="4" y="-270" type="curve" smooth="yes"/>
			<point x="-8" y="-276"/>
			<point x="-18" y="-282"/>
			<point x="-13" y="-293" type="curve" smooth="yes"/>
			<point x="-8" y="-305"/>
			<point x="5" y="-305"/>
			<point x="19" y="-297" type="curve" smooth="yes"/>
			<point x="50" y="-280"/>
			<point x="97" y="-244"/>
			<point x="114" y="-191" type="curve" smooth="yes"/>
			<point x="135" y="-130"/>
			<point x="119" y="-13"/>
			<point x="127" y="43" type="curve" smooth="yes"/>
			<point x="132" y="72"/>
			<point x="144" y="97"/>
			<point x="168" y="123" type="curve" smooth="yes"/>
			<point x="180" y="136"/>
			<point x="189" y="142"/>
			<point x="194" y="159" type="curve"/>
		</contour>
		<contour>
			<point x="194" y="159" type="line"/>
			<point x="196" y="175"/>
			<point x="188" y="185"/>
			<point x="179" y="200" type="curve" smooth="yes"/>
			<point x="161" y="231"/>
			<point x="156" y="259"/>
			<point x="156" y="288" type="curve" smooth="yes"/>
			<point x="162" y="346"/>
			<point x="204" y="448"/>
			<point x="198" y="514" type="curve" smooth="yes"/>
			<point x="193" y="569"/>
			<point x="144" y="614"/>
			<point x="120" y="636" type="curve" smooth="yes"/>
			<point x="108" y="645"/>
			<point x="93" y="657"/>
			<point x="85" y="646" type="curve" smooth="yes"/>
			<point x="78" y="637"/>
			<point x="80" y="627"/>
			<point x="92" y="618" type="curve" smooth="yes"/>
			<point x="119" y="597"/>
			<point x="158" y="563"/>
			<point x="163" y="509" type="curve" smooth="yes"/>
			<point x="167" y="447"/>
			<point x="124" y="347"/>
			<point x="118" y="294" type="curve" smooth="yes"/>
			<point x="115" y="250"/>
			<point x="120" y="216"/>
			<point x="149" y="166" type="curve"/>
		</contour>
	</outline>
</glyph>
<glyph name="asciitilde" format="2">
	<advance width="346"/>
	<unicode hex="007E"/>
	<outline>
		<contour>
			<point x="220" y="158" type="curve" smooth="yes"/>
			<point x="252" y="158"/>
			<point x="271" y="168"/>
			<point x="292" y="177" type="curve" smooth="yes"/>
			<point x="309" y="185"/>
			<point x="317" y="191"/>
			<point x="316" y="202" type="curve" smooth="yes"/>
			<point x="315" y="213"/>
			<point x="302" y="233"/>
			<point x="285" y="225" type="curve" smooth="yes"/>
			<point x="267" y="216"/>
			<point x="255" y="203"/>
			<point x="225" y="203" type="curve" smooth="yes"/>
			<point x="197" y="203"/>
			<point x="151" y="241"/>
			<point x="120" y="241" type="curve" smooth="yes"/>
			<point x="94" y="241"/>
			<point x="78" y="232"/>
			<point x="60" y="225" type="curve" smooth="yes"/>
			<point x="43" y="218"/>
			<point x="34" y="213"/>
			<point x="35" y="202" type="curve" smooth="yes"/>
			<point x="36" y="190"/>
			<point x="47" y="169"/>
			<point x="65" y="177" type="curve" smooth="yes"/>
			<point x="79" y="184"/>
			<point x="92" y="196"/>
			<point x="115" y="196" type="curve" smooth="yes"/>
			<point x="146" y="196"/>
			<point x="192" y="158"/>
		</contour>
	</outline>
</glyph>
<glyph name="exclamdown" format="2">
	<advance width="196"/>
	<unicode hex="00A1"/>
	<outline>
		<contour>
			<point x="149" y="424" type="line" smooth="yes"/>
			<point x="151" y="441"/>
			<point x="139" y="450"/>
			<point x="126" y="451" type="curve" smooth="yes"/>
			<point x="114" y="452"/>
			<point x="100" y="443"/>
			<point x="98" y="424" type="curve" smooth="yes"/>
			<point x="53" y="21" type="line" smooth="yes"/>
			<point x="51" y="6"/>
			<point x="63" y="-1"/>
			<point x="76" y="0" type="curve" smooth="yes"/>
			<point x="88" y="0"/>
			<point x="102" y="7"/>
			<point x="104" y="21" type="curve" smooth="yes"/>
		</contour>
		<contour>
			<point x="149" y="585" type="curve" smooth="yes"/>
			<point x="167" y="585"/>
			<point x="179" y="601"/>
			<point x="178" y="617" type="curve" smooth="yes"/>
			<point x="177" y="633"/>
			<point x="163" y="650"/>
			<point x="145" y="650" type="curve" smooth="yes"/>
			<point x="127" y="650"/>
			<point x="112" y="634"/>
			<point x="113" y="617" type="curve" smooth="yes"/>
			<point x="114" y="600"/>
			<point x="131" y="585"/>
		</contour>
	</outline>
</glyph>
<glyph name="brokenbar" format="2">
	<advance width="117"/>
	<unicode hex="00A6"/>
	<outline>
		<contour>
			<point x="81" y="135" type="line" smooth="yes"/>
			<point x="82" y="152"/>
			<point x="71" y="162"/>
			<point x="59" y="162" type="curve" smooth="yes"/>
			<point x="46" y="162"/>
			<point x="31" y="152"/>
			<point x="30" y="135" type="curve" smooth="yes"/>
			<point x="-14" y="-273" type="line" smooth="yes"/>
			<point x="-16" y="-288"/>
			<point x="-6" y="-300"/>
			<point x="12" y="-300" type="curve" smooth="yes"/>
			<point x="34" y="-300"/>
			<point x="36" y="-285"/>
			<point x="37" y="-275" type="curve" smooth="yes"/>
		</contour>
		<contour>
			<point x="137" y="668" type="line" smooth="yes"/>
			<point x="140" y="690"/>
			<point x="128" y="700"/>
			<point x="115" y="700" type="curve" smooth="yes"/>
			<point x="103" y="700"/>
			<point x="89" y="690"/>
			<point x="87" y="672" type="curve" smooth="yes"/>
			<point x="43" y="266" type="line" smooth="yes"/>
			<point x="42" y="249"/>
			<point x="53" y="238"/>
			<point x="66" y="239" type="curve" smooth="yes"/>
			<point x="79" y="239"/>
			<point x="93" y="249"/>
			<point x="94" y="266" type="curve" smooth="yes"/>
		</contour>
	</outline>
</glyph>
<glyph name="degree" format="2">
	<advance width="217"/>
	<unicode hex="00B0"/>
	<outline>
		<contour>
			<point x="118" y="433" type="curve" smooth="yes"/>
			<point x="182" y="433"/>
			<point x="241" y="532"/>
			<point x="236" y="595" type="curve" smooth="yes"/>
			<point x="234" y="634"/>
			<point x="209" y="655"/>
			<point x="164" y="655" type="curve" smooth="yes"/>
			<point x="127" y="655"/>
			<point x="103" y="630"/>
			<point x="90" y="604" type="curve" smooth="yes"/>
			<point x="80" y="583"/>
			<point x="66" y="543"/>
			<point x="69" y="496" type="curve" smooth="yes"/>
			<point x="73" y="449"/>
			<point x="91" y="433"/>
		</contour>
		<contour>
			<point x="122" y="472" type="curve" smooth="yes"/>
			<point x="110" y="472"/>
			<point x="109" y="486"/>
			<point x="108" y="503" type="curve" smooth="yes"/>
			<point x="106" y="530"/>
			<point x="116" y="559"/>
			<point x="128" y="588" type="curve"/>
			<point x="138" y="608"/>
			<point x="148" y="615"/>
			<point x="165" y="615" type="curve" smooth="yes"/>
			<point x="187" y="615"/>
			<point x="195" y="609"/>
			<point x="197" y="588" type="curve" smooth="yes"/>
			<point x="200" y="550"/>
			<point x="153" y="472"/>
		</contour>
	</outline>
</glyph>
<glyph name="plusminus" format="2">
  <advance width="340"/>
  <unicode hex="00B1"/>
  <outline>
    <contour>
      <point x="193" y="345" type="line" smooth="yes"/>
      <point x="195" y="364"/>
      <point x="182" y="375"/>
      <point x="170" y="375" type="curve" smooth="yes"/>
      <point x="160" y="375"/>
      <point x="150" y="368"/>
      <point x="148" y="352" type="curve" smooth="yes"/>
      <point x="131" y="196" type="line" smooth="yes"/>
      <point x="130" y="177"/>
      <point x="142" y="166"/>
      <point x="154" y="166" type="curve" smooth="yes"/>
      <point x="164" y="166"/>
      <point x="174" y="173"/>
      <point x="176" y="189" type="curve" smooth="yes"/>
    </contour>
    <contour>
      <point x="245" y="97" type="line" smooth="yes"/>
      <point x="263" y="97"/>
      <point x="271" y="108"/>
      <point x="271" y="120" type="curve" smooth="yes"/>
      <point x="270" y="131"/>
      <point x="260" y="142"/>
      <point x="242" y="142" type="curve" smooth="yes"/>
      <point x="45" y="142" type="line" smooth="yes"/>
      <point x="27" y="142"/>
      <point x="19" y="131"/>
      <point x="20" y="120" type="curve" smooth="yes"/>
      <point x="20" y="109"/>
      <point x="30" y="97"/>
      <point x="48" y="97" type="curve" smooth="yes"/>
    </contour>
    <contour>
      <point x="261" y="248" type="line" smooth="yes"/>
      <point x="279" y="248"/>
      <point x="287" y="260"/>
      <point x="286" y="271" type="curve" smooth="yes"/>
      <point x="285" y="282"/>
      <point x="276" y="293"/>
      <point x="258" y="293" type="curve" smooth="yes"/>
      <point x="61" y="293" type="line" smooth="yes"/>
      <point x="43" y="293"/>
      <point x="34" y="282"/>
      <point x="35" y="271" type="curve" smooth="yes"/>
      <point x="36" y="260"/>
      <point x="46" y="248"/>
      <point x="64" y="248" type="curve" smooth="yes"/>
    </contour>
  </outline>
</glyph>
<glyph name="periodcentered" format="2">
	<advance width="164"/>
	<unicode hex="00B7"/>
	<outline>
		<contour>
			<point x="84" y="138" type="curve" smooth="yes"/>
			<point x="104" y="138"/>
			<point x="121" y="157"/>
			<point x="120" y="177" type="curve" smooth="yes"/>
			<point x="118" y="198"/>
			<point x="99" y="214"/>
			<point x="79" y="214" type="curve" smooth="yes"/>
			<point x="58" y="214"/>
			<point x="43" y="197"/>
			<point x="45" y="177" type="curve" smooth="yes"/>
			<point x="46" y="158"/>
			<point x="63" y="138"/>
		</contour>
	</outline>
</glyph>
<glyph name="questiondown" format="2">
	<advance width="395"/>
	<unicode hex="00BF"/>
	<outline>
		<contour>
			<point x="262" y="382" type="line"/>
			<point x="106" y="382"/>
			<point x="45" y="290"/>
			<point x="29" y="151" type="curve" smooth="yes"/>
			<point x="21" y="72"/>
			<point x="94" y="0"/>
			<point x="185" y="0" type="curve" smooth="yes"/>
			<point x="300" y="0"/>
			<point x="360" y="64"/>
			<point x="370" y="159" type="curve" smooth="yes"/>
			<point x="372" y="181"/>
			<point x="366" y="194"/>
			<point x="355" y="197" type="curve" smooth="yes"/>
			<point x="342" y="200"/>
			<point x="323" y="191"/>
			<point x="320" y="169" type="curve" smooth="yes"/>
			<point x="314" y="112"/>
			<point x="281" y="50"/>
			<point x="196" y="50" type="curve" smooth="yes"/>
			<point x="130" y="50"/>
			<point x="73" y="86"/>
			<point x="80" y="147" type="curve" smooth="yes"/>
			<point x="85" y="193"/>
			<point x="99" y="332"/>
			<point x="261" y="332" type="curve"/>
		</contour>
		<contour>
			<point x="297" y="452" type="line" smooth="yes"/>
			<point x="298" y="466"/>
			<point x="288" y="476"/>
			<point x="276" y="479" type="curve" smooth="yes"/>
			<point x="262" y="481"/>
			<point x="249" y="474"/>
			<point x="246" y="452" type="curve" smooth="yes"/>
			<point x="235" y="351" type="line" smooth="yes"/>
			<point x="235" y="344"/>
			<point x="243" y="332"/>
			<point x="263" y="332" type="curve" smooth="yes"/>
			<point x="274" y="332"/>
			<point x="285" y="340"/>
			<point x="286" y="351" type="curve" smooth="yes"/>
		</contour>
		<contour>
			<point x="293" y="585" type="curve" smooth="yes"/>
			<point x="310" y="585"/>
			<point x="323" y="601"/>
			<point x="322" y="619" type="curve" smooth="yes"/>
			<point x="321" y="634"/>
			<point x="306" y="650"/>
			<point x="289" y="650" type="curve" smooth="yes"/>
			<point x="271" y="650"/>
			<point x="256" y="635"/>
			<point x="257" y="619" type="curve" smooth="yes"/>
			<point x="258" y="600"/>
			<point x="274" y="585"/>
		</contour>
	</outline>
</glyph>
<glyph name="multiply" format="2">
	<advance width="370"/>
	<unicode hex="00D7"/>
	<outline>
		<contour>
			<point x="331" y="290" type="line" smooth="yes"/>
			<point x="344" y="302"/>
			<point x="341" y="317"/>
			<point x="331" y="325" type="curve" smooth="yes"/>
			<point x="322" y="334"/>
			<point x="305" y="337"/>
			<point x="292" y="325" type="curve" smooth="yes"/>
			<point x="42" y="101" type="line" smooth="yes"/>
			<point x="31" y="91"/>
			<point x="34" y="76"/>
			<point x="42" y="67" type="curve" smooth="yes"/>
			<point x="52" y="58"/>
			<point x="67" y="54"/>
			<point x="82" y="67" type="curve" smooth="yes"/>
		</contour>
		<contour>
			<point x="105" y="321" type="line" smooth="yes"/>
			<point x="91" y="336"/>
			<point x="76" y="335"/>
			<point x="67" y="327" type="curve" smooth="yes"/>
			<point x="59" y="318"/>
			<point x="56" y="303"/>
			<point x="67" y="291" type="curve" smooth="yes"/>
			<point x="271" y="69" type="line" smooth="yes"/>
			<point x="283" y="56"/>
			<point x="298" y="58"/>
			<point x="306" y="66" type="curve" smooth="yes"/>
			<point x="316" y="74"/>
			<point x="319" y="89"/>
			<point x="307" y="102" type="curve" smooth="yes"/>
		</contour>
	</outline>
</glyph>
<glyph name="divide" format="2">
	<advance width="345"/>
	<unicode hex="00F7"/>
	<outline>
		<contour>
			<point x="290" y="175" type="line" smooth="yes"/>
			<point x="325" y="175"/>
			<point x="324" y="220"/>
			<point x="287" y="220" type="curve" smooth="yes"/>
			<point x="60" y="220" type="line" smooth="yes"/>
			<point x="23" y="220"/>
			<point x="28" y="175"/>
			<point x="63" y="175" type="curve" smooth="yes"/>
		</contour>
		<contour>
			<point x="164" y="57" type="curve" smooth="yes"/>
			<point x="182" y="57"/>
			<point x="197" y="73"/>
			<point x="196" y="90" type="curve" smooth="yes"/>
			<point x="194" y="108"/>
			<point x="176" y="122"/>
			<point x="159" y="122" type="curve" smooth="yes"/>
			<point x="140" y="122"/>
			<point x="130" y="106"/>
			<point x="131" y="90" type="curve" smooth="yes"/>
			<point x="132" y="73"/>
			<point x="146" y="57"/>
		</contour>
		<contour>
			<point x="188" y="273" type="curve" smooth="yes"/>
			<point x="205" y="273"/>
			<point x="220" y="289"/>
			<point x="219" y="306" type="curve" smooth="yes"/>
			<point x="217" y="323"/>
			<point x="200" y="338"/>
			<point x="183" y="338" type="curve" smooth="yes"/>
			<point x="165" y="338"/>
			<point x="152" y="322"/>
			<point x="154" y="306" type="curve" smooth="yes"/>
			<point x="155" y="290"/>
			<point x="170" y="273"/>
		</contour>
	</outline>
</glyph>
<glyph name="tilde" format="2">
	<advance width="410"/>
	<unicode hex="02DC"/>
	<outline>
		<contour>
			<point x="252" y="158" type="curve" smooth="yes"/>
			<point x="284" y="158"/>
			<point x="303" y="168"/>
			<point x="324" y="177" type="curve" smooth="yes"/>
			<point x="341" y="185"/>
			<point x="349" y="191"/>
			<point x="348" y="202" type="curve" smooth="yes"/>
			<point x="347" y="213"/>
			<point x="334" y="233"/>
			<point x="317" y="225" type="curve" smooth="yes"/>
			<point x="299" y="216"/>
			<point x="287" y="203"/>
			<point x="257" y="203" type="curve" smooth="yes"/>
			<point x="229" y="203"/>
			<point x="183" y="241"/>
			<point x="152" y="241" type="curve" smooth="yes"/>
			<point x="126" y="241"/>
			<point x="110" y="232"/>
			<point x="92" y="225" type="curve" smooth="yes"/>
			<point x="75" y="218"/>
			<point x="66" y="213"/>
			<point x="67" y="202" type="curve" smooth="yes"/>
			<point x="68" y="190"/>
			<point x="79" y="169"/>
			<point x="97" y="177" type="curve" smooth="yes"/>
			<point x="111" y="184"/>
			<point x="124" y="196"/>
			<point x="147" y="196" type="curve" smooth="yes"/>
			<point x="178" y="196"/>
			<point x="224" y="158"/>
		</contour>
	</outline>
</glyph>
<glyph name="endash" format="2">
	<advance width="370"/>
	<unicode hex="2013"/>
	<outline>
		<contour>
			<point x="303" y="175" type="line" smooth="yes"/>
			<point x="321" y="175"/>
			<point x="329" y="187"/>
			<point x="328" y="199" type="curve" smooth="yes"/>
			<point x="327" y="210"/>
			<point x="318" y="220"/>
			<point x="300" y="220" type="curve" smooth="yes"/>
			<point x="73" y="220" type="line" smooth="yes"/>
			<point x="55" y="220"/>
			<point x="46" y="210"/>
			<point x="47" y="199" type="curve" smooth="yes"/>
			<point x="48" y="187"/>
			<point x="58" y="175"/>
			<point x="76" y="175" type="curve" smooth="yes"/>
		</contour>
	</outline>
</glyph>
<glyph name="emdash" format="2">
	<advance width="449"/>
	<unicode hex="2014"/>
	<outline>
		<contour>
			<point x="390" y="175" type="line" smooth="yes"/>
			<point x="410" y="175"/>
			<point x="420" y="187"/>
			<point x="419" y="199" type="curve" smooth="yes"/>
			<point x="418" y="209"/>
			<point x="408" y="220"/>
			<point x="387" y="220" type="curve" smooth="yes"/>
			<point x="64" y="220" type="line" smooth="yes"/>
			<point x="44" y="220"/>
			<point x="34" y="209"/>
			<point x="35" y="199" type="curve" smooth="yes"/>
			<point x="36" y="187"/>
			<point x="48" y="175"/>
			<point x="67" y="175" type="curve" smooth="yes"/>
		</contour>
	</outline>
</glyph>
<glyph name="bullet" format="2">
	<advance width="216"/>
	<unicode hex="2022"/>
	<outline>
		<contour>
			<point x="131" y="278" type="curve" smooth="yes"/>
			<point x="171" y="278"/>
			<point x="205" y="314"/>
			<point x="202" y="355" type="curve" smooth="yes"/>
			<point x="199" y="396"/>
			<point x="161" y="430"/>
			<point x="121" y="430" type="curve" smooth="yes"/>
			<point x="79" y="430"/>
			<point x="49" y="395"/>
			<point x="52" y="355" type="curve" smooth="yes"/>
			<point x="55" y="316"/>
			<point x="89" y="278"/>
		</contour>
	</outline>
</glyph>
<glyph name="ellipsis" format="2">
	<advance width="424"/>
	<unicode hex="2026"/>
	<outline>
		<contour>
			<point x="307" y="-30" type="curve" smooth="yes"/>
			<point x="327" y="-30"/>
			<point x="344" y="-12"/>
			<point x="342" y="9" type="curve" smooth="yes"/>
			<point x="341" y="29"/>
			<point x="322" y="46"/>
			<point x="302" y="46" type="curve" smooth="yes"/>
			<point x="281" y="46"/>
			<point x="266" y="29"/>
			<point x="267" y="9" type="curve" smooth="yes"/>
			<point x="269" y="-11"/>
			<point x="286" y="-30"/>
		</contour>
		<contour>
			<point x="87" y="-30" type="curve" smooth="yes"/>
			<point x="107" y="-30"/>
			<point x="124" y="-12"/>
			<point x="122" y="9" type="curve" smooth="yes"/>
			<point x="121" y="29"/>
			<point x="102" y="46"/>
			<point x="82" y="46" type="curve" smooth="yes"/>
			<point x="61" y="46"/>
			<point x="46" y="29"/>
			<point x="47" y="9" type="curve" smooth="yes"/>
			<point x="49" y="-11"/>
			<point x="66" y="-30"/>
		</contour>
		<contour>
			<point x="197" y="-30" type="curve" smooth="yes"/>
			<point x="217" y="-30"/>
			<point x="234" y="-12"/>
			<point x="232" y="9" type="curve" smooth="yes"/>
			<point x="231" y="29"/>
			<point x="212" y="46"/>
			<point x="192" y="46" type="curve" smooth="yes"/>
			<point x="171" y="46"/>
			<point x="156" y="29"/>
			<point x="157" y="9" type="curve" smooth="yes"/>
			<point x="159" y="-11"/>
			<point x="176" y="-30"/>
		</contour>
	</outline>
</glyph>
<glyph name="infinity" format="2">
	<advance width="692"/>
	<unicode hex="221E"/>
	<outline>
		<contour>
			<point x="313" y="213" type="line"/>
			<point x="325" y="196" type="line" smooth="yes"/>
			<point x="362" y="146"/>
			<point x="415" y="90"/>
			<point x="473" y="80" type="curve" smooth="yes"/>
			<point x="538" y="69"/>
			<point x="631" y="109"/>
			<point x="642" y="211" type="curve" smooth="yes"/>
			<point x="653" y="307"/>
			<point x="578" y="349"/>
			<point x="520" y="359" type="curve" smooth="yes"/>
			<point x="467" y="368"/>
			<point x="391" y="356"/>
			<point x="315" y="279" type="curve"/>
		</contour>
		<contour>
			<point x="318" y="280" type="line"/>
			<point x="264" y="214"/>
			<point x="159" y="123"/>
			<point x="134" y="127" type="curve" smooth="yes"/>
			<point x="115" y="130"/>
			<point x="111" y="191"/>
			<point x="114" y="227" type="curve" smooth="yes"/>
			<point x="118" y="267"/>
			<point x="138" y="322"/>
			<point x="195" y="312" type="curve" smooth="yes"/>
			<point x="237" y="305"/>
			<point x="267" y="267"/>
			<point x="287" y="241" type="curve"/>
			<point x="317" y="279" type="line"/>
			<point x="293" y="309"/>
			<point x="261" y="352"/>
			<point x="206" y="361" type="curve" smooth="yes"/>
			<point x="119" y="377"/>
			<point x="71" y="298"/>
			<point x="63" y="226" type="curve" smooth="yes"/>
			<point x="57" y="168"/>
			<point x="75" y="90"/>
			<point x="129" y="81" type="curve" smooth="yes"/>
			<point x="186" y="71"/>
			<point x="257" y="140"/>
			<point x="321" y="210" type="curve"/>
		</contour>
		<contour>
			<point x="352" y="241" type="line"/>
			<point x="415" y="307"/>
			<point x="469" y="319"/>
			<point x="508" y="312" type="curve" smooth="yes"/>
			<point x="557" y="303"/>
			<point x="599" y="263"/>
			<point x="593" y="214" type="curve" smooth="yes"/>
			<point x="587" y="158"/>
			<point x="522" y="123"/>
			<point x="479" y="130" type="curve" smooth="yes"/>
			<point x="437" y="137"/>
			<point x="394" y="186"/>
			<point x="363" y="227" type="curve" smooth="yes"/>
		</contour>
	</outline>
</glyph>
<glyph name="approxequal" format="2">
	<advance width="346"/>
	<unicode hex="2248"/>
	<outline>
		<contour>
			<point x="227" y="227" type="curve" smooth="yes"/>
			<point x="259" y="227"/>
			<point x="278" y="237"/>
			<point x="299" y="246" type="curve" smooth="yes"/>
			<point x="316" y="254"/>
			<point x="324" y="260"/>
			<point x="323" y="271" type="curve" smooth="yes"/>
			<point x="322" y="282"/>
			<point x="309" y="302"/>
			<point x="292" y="294" type="curve" smooth="yes"/>
			<point x="274" y="285"/>
			<point x="262" y="272"/>
			<point x="232" y="272" type="curve" smooth="yes"/>
			<point x="204" y="272"/>
			<point x="158" y="310"/>
			<point x="127" y="310" type="curve" smooth="yes"/>
			<point x="101" y="310"/>
			<point x="85" y="301"/>
			<point x="67" y="294" type="curve" smooth="yes"/>
			<point x="50" y="287"/>
			<point x="41" y="282"/>
			<point x="42" y="271" type="curve" smooth="yes"/>
			<point x="43" y="259"/>
			<point x="54" y="238"/>
			<point x="72" y="246" type="curve" smooth="yes"/>
			<point x="86" y="253"/>
			<point x="99" y="265"/>
			<point x="122" y="265" type="curve" smooth="yes"/>
			<point x="153" y="265"/>
			<point x="199" y="227"/>
		</contour>
		<contour>
			<point x="212" y="76" type="curve" smooth="yes"/>
			<point x="244" y="76"/>
			<point x="263" y="86"/>
			<point x="283" y="95" type="curve" smooth="yes"/>
			<point x="301" y="103"/>
			<point x="308" y="109"/>
			<point x="308" y="120" type="curve" smooth="yes"/>
			<point x="307" y="131"/>
			<point x="293" y="151"/>
			<point x="277" y="143" type="curve" smooth="yes"/>
			<point x="259" y="134"/>
			<point x="247" y="121"/>
			<point x="217" y="121" type="curve" smooth="yes"/>
			<point x="189" y="121"/>
			<point x="143" y="159"/>
			<point x="112" y="159" type="curve" smooth="yes"/>
			<point x="86" y="159"/>
			<point x="70" y="150"/>
			<point x="52" y="143" type="curve" smooth="yes"/>
			<point x="34" y="136"/>
			<point x="26" y="131"/>
			<point x="27" y="120" type="curve" smooth="yes"/>
			<point x="27" y="108"/>
			<point x="39" y="87"/>
			<point x="56" y="95" type="curve" smooth="yes"/>
			<point x="71" y="102"/>
			<point x="84" y="114"/>
			<point x="107" y="114" type="curve" smooth="yes"/>
			<point x="138" y="114"/>
			<point x="184" y="76"/>
		</contour>
	</outline>
</glyph>
<glyph name="notequal" format="2">
	<advance width="370"/>
	<unicode hex="2260"/>
	<outline>
		<contour>
			<point x="258" y="312" type="line" smooth="yes"/>
			<point x="268" y="337"/>
			<point x="256" y="350"/>
			<point x="242" y="350" type="curve" smooth="yes"/>
			<point x="232" y="350"/>
			<point x="222" y="345"/>
			<point x="217" y="333" type="curve" smooth="yes"/>
			<point x="114" y="72" type="line" smooth="yes"/>
			<point x="107" y="54"/>
			<point x="116" y="42"/>
			<point x="127" y="38" type="curve" smooth="yes"/>
			<point x="138" y="35"/>
			<point x="150" y="38"/>
			<point x="155" y="51" type="curve" smooth="yes"/>
		</contour>
		<contour>
			<point x="294" y="97" type="line" smooth="yes"/>
			<point x="312" y="97"/>
			<point x="320" y="108"/>
			<point x="320" y="120" type="curve" smooth="yes"/>
			<point x="319" y="131"/>
			<point x="309" y="142"/>
			<point x="291" y="142" type="curve" smooth="yes"/>
			<point x="64" y="142" type="line" smooth="yes"/>
			<point x="46" y="142"/>
			<point x="38" y="131"/>
			<point x="39" y="120" type="curve" smooth="yes"/>
			<point x="39" y="109"/>
			<point x="49" y="97"/>
			<point x="67" y="97" type="curve" smooth="yes"/>
		</contour>
		<contour>
			<point x="310" y="248" type="line" smooth="yes"/>
			<point x="328" y="248"/>
			<point x="336" y="260"/>
			<point x="335" y="271" type="curve" smooth="yes"/>
			<point x="334" y="282"/>
			<point x="325" y="293"/>
			<point x="307" y="293" type="curve" smooth="yes"/>
			<point x="80" y="293" type="line" smooth="yes"/>
			<point x="62" y="293"/>
			<point x="53" y="282"/>
			<point x="54" y="271" type="curve" smooth="yes"/>
			<point x="55" y="260"/>
			<point x="65" y="248"/>
			<point x="83" y="248" type="curve" smooth="yes"/>
		</contour>
	</outline>
</glyph>
<glyph name="lessequal" format="2">
	<advance width="388"/>
	<unicode hex="2264"/>
	<outline>
		<contour>
			<point x="328" y="324" type="line" smooth="yes"/>
			<point x="344" y="332"/>
			<point x="345" y="348"/>
			<point x="336" y="359" type="curve" smooth="yes"/>
			<point x="327" y="369"/>
			<point x="315" y="369"/>
			<point x="299" y="360" type="curve" smooth="yes"/>
			<point x="81" y="243" type="line" smooth="yes"/>
			<point x="67" y="235"/>
			<point x="67" y="223"/>
			<point x="76" y="212" type="curve" smooth="yes"/>
			<point x="84" y="202"/>
			<point x="95" y="199"/>
			<point x="110" y="207" type="curve" smooth="yes"/>
		</contour>
		<contour>
			<point x="292" y="97" type="line" smooth="yes"/>
			<point x="310" y="97"/>
			<point x="318" y="109"/>
			<point x="318" y="120" type="curve" smooth="yes"/>
			<point x="317" y="131"/>
			<point x="307" y="142"/>
			<point x="289" y="142" type="curve" smooth="yes"/>
			<point x="85" y="142" type="line" smooth="yes"/>
			<point x="67" y="142"/>
			<point x="59" y="131"/>
			<point x="60" y="120" type="curve" smooth="yes"/>
			<point x="60" y="108"/>
			<point x="70" y="97"/>
			<point x="88" y="97" type="curve" smooth="yes"/>
		</contour>
		<contour>
			<point x="91" y="202" type="line"/>
			<point x="304" y="202" type="line" smooth="yes"/>
			<point x="320" y="202"/>
			<point x="329" y="213"/>
			<point x="328" y="225" type="curve" smooth="yes"/>
			<point x="328" y="236"/>
			<point x="318" y="248"/>
			<point x="295" y="248" type="curve" smooth="yes"/>
			<point x="89" y="248" type="line"/>
		</contour>
	</outline>
</glyph>
<glyph name="greaterequal" format="2">
	<advance width="389"/>
	<unicode hex="2265"/>
	<outline>
		<contour>
			<point x="291" y="207" type="line" smooth="yes"/>
			<point x="306" y="198"/>
			<point x="317" y="202"/>
			<point x="323" y="212" type="curve" smooth="yes"/>
			<point x="330" y="223"/>
			<point x="330" y="233"/>
			<point x="314" y="243" type="curve" smooth="yes"/>
			<point x="123" y="360" type="line" smooth="yes"/>
			<point x="106" y="370"/>
			<point x="93" y="369"/>
			<point x="86" y="359" type="curve" smooth="yes"/>
			<point x="79" y="348"/>
			<point x="83" y="334"/>
			<point x="98" y="324" type="curve" smooth="yes"/>
		</contour>
		<contour>
			<point x="293" y="97" type="line" smooth="yes"/>
			<point x="311" y="97"/>
			<point x="319" y="108"/>
			<point x="319" y="120" type="curve" smooth="yes"/>
			<point x="318" y="131"/>
			<point x="308" y="142"/>
			<point x="290" y="142" type="curve" smooth="yes"/>
			<point x="86" y="142" type="line" smooth="yes"/>
			<point x="68" y="142"/>
			<point x="60" y="131"/>
			<point x="61" y="120" type="curve" smooth="yes"/>
			<point x="61" y="109"/>
			<point x="71" y="97"/>
			<point x="89" y="97" type="curve" smooth="yes"/>
		</contour>
		<contour>
			<point x="310" y="202" type="line"/>
			<point x="306" y="248" type="line"/>
			<point x="100" y="248" type="line" smooth="yes"/>
			<point x="78" y="248"/>
			<point x="70" y="239"/>
			<point x="69" y="227" type="curve" smooth="yes"/>
			<point x="69" y="216"/>
			<point x="75" y="202"/>
			<point x="97" y="202" type="curve" smooth="yes"/>
		</contour>
	</outline>
</glyph>
<glyph name="K.ss01" format="2">
	<advance width="532"/>
	<outline>
		<contour>
			<point x="190" y="344" type="line"/>
			<point x="483" y="600" type="line" smooth="yes"/>
			<point x="494" y="610"/>
			<point x="500" y="619"/>
			<point x="501" y="628" type="curve" smooth="yes"/>
			<point x="501" y="640"/>
			<point x="493" y="650"/>
			<point x="480" y="650" type="curve" smooth="yes"/>
			<point x="471" y="651"/>
			<point x="461" y="647"/>
			<point x="449" y="637" type="curve" smooth="yes"/>
			<point x="132" y="360" type="line"/>
			<point x="133" y="348" type="line"/>
		</contour>
		<contour>
			<point x="133" y="345" type="line"/>
			<point x="383" y="19" type="line" smooth="yes"/>
			<point x="389" y="12"/>
			<point x="406" y="0"/>
			<point x="427" y="0" type="curve" smooth="yes"/>
			<point x="460" y="0"/>
			<point x="472" y="17"/>
			<point x="491" y="50" type="curve" smooth="yes"/>
			<point x="507" y="79"/>
			<point x="510" y="86"/>
			<point x="509" y="94" type="curve" smooth="yes"/>
			<point x="508" y="109"/>
			<point x="496" y="116"/>
			<point x="485" y="116" type="curve" smooth="yes"/>
			<point x="473" y="116"/>
			<point x="465" y="108"/>
			<point x="463" y="104" type="curve" smooth="yes"/>
			<point x="451" y="81" type="line" smooth="yes"/>
			<point x="439" y="59"/>
			<point x="432" y="46"/>
			<point x="429" y="46" type="curve" smooth="yes"/>
			<point x="425" y="46"/>
			<point x="421" y="51"/>
			<point x="419" y="54" type="curve" smooth="yes"/>
			<point x="189" y="354" type="line"/>
			<point x="132" y="356" type="line"/>
		</contour>
		<contour>
			<point x="164" y="619" type="line" smooth="yes"/>
			<point x="166" y="637"/>
			<point x="162" y="650"/>
			<point x="143" y="650" type="curve" smooth="yes"/>
			<point x="123" y="650"/>
			<point x="116" y="639"/>
			<point x="114" y="623" type="curve" smooth="yes"/>
			<point x="51" y="32" type="line" smooth="yes"/>
			<point x="49" y="17"/>
			<point x="58" y="0"/>
			<point x="76" y="0" type="curve" smooth="yes"/>
			<point x="97" y="0"/>
			<point x="100" y="18"/>
			<point x="101" y="31" type="curve" smooth="yes"/>
		</contour>
	</outline>
</glyph>
<glyph name="M.ss01" format="2">
  <advance width="876"/>
  <outline>
    <contour>
      <point x="358" y="67" type="line"/>
      <point x="156" y="630" type="line" smooth="yes"/>
      <point x="153" y="639"/>
      <point x="143" y="650"/>
      <point x="122" y="650" type="curve"/>
      <point x="118" y="589" type="line"/>
      <point x="322" y="18" type="line" smooth="yes"/>
      <point x="326" y="8"/>
      <point x="337" y="0"/>
      <point x="351" y="0" type="curve"/>
    </contour>
    <contour>
      <point x="143" y="612" type="line"/>
      <point x="123" y="650" type="line"/>
      <point x="101" y="650"/>
      <point x="96" y="639"/>
      <point x="94" y="623" type="curve" smooth="yes"/>
      <point x="31" y="27" type="line" smooth="yes"/>
      <point x="29" y="12"/>
      <point x="38" y="0"/>
      <point x="56" y="0" type="curve" smooth="yes"/>
      <point x="78" y="0"/>
      <point x="80" y="16"/>
      <point x="81" y="28" type="curve" smooth="yes"/>
    </contour>
    <contour>
      <point x="677" y="569" type="line"/>
      <point x="632" y="146" type="line" smooth="yes"/>
      <point x="625" y="78"/>
      <point x="632" y="0"/>
      <point x="702" y="0" type="curve" smooth="yes"/>
      <point x="735" y="0"/>
      <point x="747" y="17"/>
      <point x="766" y="50" type="curve" smooth="yes"/>
      <point x="782" y="79"/>
      <point x="785" y="86"/>
      <point x="784" y="94" type="curve" smooth="yes"/>
      <point x="783" y="109"/>
      <point x="771" y="116"/>
      <point x="760" y="116" type="curve" smooth="yes"/>
      <point x="748" y="116"/>
      <point x="740" y="108"/>
      <point x="738" y="104" type="curve" smooth="yes"/>
      <point x="726" y="81" type="line" smooth="yes"/>
      <point x="714" y="59"/>
      <point x="705" y="46"/>
      <point x="698" y="46" type="curve" smooth="yes"/>
      <point x="678" y="46"/>
      <point x="679" y="111"/>
      <point x="681" y="132" type="curve" smooth="yes"/>
      <point x="733" y="619" type="line" smooth="yes"/>
      <point x="735" y="637"/>
      <point x="731" y="650"/>
      <point x="712" y="650" type="curve"/>
    </contour>
    <contour>
      <point x="343" y="62" type="line"/>
      <point x="350" y="0" type="line"/>
      <point x="364" y="0"/>
      <point x="369" y="8"/>
      <point x="375" y="18" type="curve" smooth="yes"/>
      <point x="708" y="573" type="line"/>
      <point x="711" y="650" type="line"/>
      <point x="693" y="650"/>
      <point x="691" y="643"/>
      <point x="686" y="634" type="curve" smooth="yes"/>
    </contour>
  </outline>
</glyph>
<glyph name="Q.ss01" format="2">
	<advance width="537"/>
	<outline>
		<contour>
			<point x="215" y="97" type="curve" smooth="yes"/>
			<point x="344" y="-26" type="line" smooth="yes"/>
			<point x="356" y="-37"/>
			<point x="373" y="-47"/>
			<point x="395" y="-47" type="curve" smooth="yes"/>
			<point x="428" y="-47"/>
			<point x="440" y="-30"/>
			<point x="459" y="3" type="curve" smooth="yes"/>
			<point x="475" y="32"/>
			<point x="478" y="39"/>
			<point x="477" y="47" type="curve" smooth="yes"/>
			<point x="476" y="62"/>
			<point x="464" y="69"/>
			<point x="453" y="69" type="curve" smooth="yes"/>
			<point x="441" y="69"/>
			<point x="433" y="61"/>
			<point x="431" y="57" type="curve" smooth="yes"/>
			<point x="419" y="34" type="line" smooth="yes"/>
			<point x="407" y="12"/>
			<point x="402" y="-1"/>
			<point x="395" y="-1" type="curve" smooth="yes"/>
			<point x="391" y="-1"/>
			<point x="384" y="7"/>
			<point x="379" y="11" type="curve" smooth="yes"/>
			<point x="249" y="134" type="line" smooth="yes"/>
			<point x="236" y="146"/>
			<point x="217" y="149"/>
			<point x="206" y="135" type="curve" smooth="yes"/>
			<point x="197" y="125"/>
			<point x="201" y="111"/>
		</contour>
		<contour>
			<point x="194" y="-4" type="curve" smooth="yes"/>
			<point x="355" y="-4"/>
			<point x="460" y="250"/>
			<point x="478" y="438" type="curve" smooth="yes"/>
			<point x="489" y="551"/>
			<point x="428" y="650"/>
			<point x="300" y="650" type="curve" smooth="yes"/>
			<point x="177" y="650"/>
			<point x="124" y="557"/>
			<point x="92" y="409" type="curve" smooth="yes"/>
			<point x="84" y="369"/>
			<point x="78" y="322"/>
			<point x="78" y="278" type="curve" smooth="yes"/>
			<point x="75" y="143"/>
			<point x="107" y="-4"/>
		</contour>
		<contour>
			<point x="190" y="42" type="curve" smooth="yes"/>
			<point x="143" y="42"/>
			<point x="127" y="178"/>
			<point x="127" y="268" type="curve" smooth="yes"/>
			<point x="128" y="310"/>
			<point x="132" y="355"/>
			<point x="139" y="388" type="curve" smooth="yes"/>
			<point x="167" y="526"/>
			<point x="209" y="604"/>
			<point x="296" y="604" type="curve" smooth="yes"/>
			<point x="417" y="604"/>
			<point x="436" y="511"/>
			<point x="427" y="425" type="curve" smooth="yes"/>
			<point x="410" y="263"/>
			<point x="311" y="42"/>
		</contour>
	</outline>
</glyph>
<glyph name="R.ss01" format="2">
	<advance width="537"/>
	<outline>
		<contour>
			<point x="117" y="304" type="line"/>
			<point x="307" y="304"/>
			<point x="469" y="321"/>
			<point x="485" y="476" type="curve" smooth="yes"/>
			<point x="497" y="597"/>
			<point x="363" y="650"/>
			<point x="146" y="650" type="curve"/>
			<point x="149" y="604" type="line"/>
			<point x="342" y="604"/>
			<point x="444" y="560"/>
			<point x="435" y="481" type="curve" smooth="yes"/>
			<point x="423" y="368"/>
			<point x="282" y="350"/>
			<point x="121" y="350" type="curve"/>
		</contour>
		<contour>
			<point x="116" y="319" type="line"/>
			<point x="388" y="15" type="line" smooth="yes"/>
			<point x="394" y="8"/>
			<point x="411" y="-4"/>
			<point x="432" y="-4" type="curve" smooth="yes"/>
			<point x="465" y="-4"/>
			<point x="477" y="13"/>
			<point x="496" y="46" type="curve" smooth="yes"/>
			<point x="512" y="75"/>
			<point x="515" y="82"/>
			<point x="514" y="90" type="curve" smooth="yes"/>
			<point x="513" y="105"/>
			<point x="501" y="112"/>
			<point x="490" y="112" type="curve" smooth="yes"/>
			<point x="478" y="112"/>
			<point x="470" y="104"/>
			<point x="468" y="100" type="curve" smooth="yes"/>
			<point x="456" y="77" type="line" smooth="yes"/>
			<point x="444" y="55"/>
			<point x="438" y="42"/>
			<point x="435" y="42" type="curve" smooth="yes"/>
			<point x="431" y="42"/>
			<point x="427" y="47"/>
			<point x="424" y="50" type="curve" smooth="yes"/>
			<point x="183" y="319" type="line"/>
		</contour>
		<contour>
			<point x="163" y="619" type="line" smooth="yes"/>
			<point x="165" y="637"/>
			<point x="163" y="650"/>
			<point x="142" y="650" type="curve" smooth="yes"/>
			<point x="120" y="650"/>
			<point x="115" y="639"/>
			<point x="113" y="623" type="curve" smooth="yes"/>
			<point x="51" y="33" type="line" smooth="yes"/>
			<point x="49" y="16"/>
			<point x="57" y="0"/>
			<point x="75" y="0" type="curve" smooth="yes"/>
			<point x="97" y="0"/>
			<point x="99" y="16"/>
			<point x="101" y="31" type="curve" smooth="yes"/>
		</contour>
	</outline>
</glyph>
<glyph name="U.ss01" format="2">
  <advance width="626"/>
  <outline>
    <contour>
      <point x="414" y="327" type="line"/>
      <point x="442" y="520" type="line"/>
      <point x="432" y="520" type="line"/>
      <point x="429" y="509" type="line"/>
      <point x="417" y="467"/>
      <point x="368" y="351"/>
      <point x="355" y="320" type="curve" smooth="yes"/>
      <point x="296" y="192"/>
      <point x="181" y="42"/>
      <point x="131" y="42" type="curve" smooth="yes"/>
      <point x="84" y="42"/>
      <point x="91" y="116"/>
      <point x="98" y="180" type="curve" smooth="yes"/>
      <point x="148" y="622" type="line" smooth="yes"/>
      <point x="150" y="636"/>
      <point x="140" y="649"/>
      <point x="125" y="650" type="curve" smooth="yes"/>
      <point x="109" y="650"/>
      <point x="99" y="636"/>
      <point x="97" y="620" type="curve" smooth="yes"/>
      <point x="48" y="183" type="line" smooth="yes"/>
      <point x="33" y="52"/>
      <point x="69" y="-4"/>
      <point x="128" y="-4" type="curve" smooth="yes"/>
      <point x="205" y="-4"/>
      <point x="314" y="118"/>
      <point x="391" y="283" type="curve"/>
    </contour>
    <contour>
      <point x="433" y="628" type="curve" smooth="yes"/>
      <point x="382" y="146" type="line" smooth="yes"/>
      <point x="375" y="78"/>
      <point x="382" y="0"/>
      <point x="452" y="0" type="curve" smooth="yes"/>
      <point x="485" y="0"/>
      <point x="497" y="17"/>
      <point x="516" y="50" type="curve" smooth="yes"/>
      <point x="532" y="79"/>
      <point x="535" y="86"/>
      <point x="534" y="94" type="curve" smooth="yes"/>
      <point x="533" y="109"/>
      <point x="521" y="116"/>
      <point x="510" y="116" type="curve" smooth="yes"/>
      <point x="498" y="116"/>
      <point x="490" y="108"/>
      <point x="488" y="104" type="curve" smooth="yes"/>
      <point x="476" y="81" type="line" smooth="yes"/>
      <point x="464" y="59"/>
      <point x="455" y="46"/>
      <point x="448" y="46" type="curve" smooth="yes"/>
      <point x="428" y="46"/>
      <point x="429" y="111"/>
      <point x="431" y="132" type="curve" smooth="yes"/>
      <point x="483" y="623" type="line" smooth="yes"/>
      <point x="485" y="639"/>
      <point x="471" y="649"/>
      <point x="457" y="649" type="curve" smooth="yes"/>
      <point x="446" y="649"/>
      <point x="435" y="643"/>
    </contour>
  </outline>
</glyph>
<glyph name=".notdef" format="2">
	<advance width="511"/>
	<outline>
		<contour>
			<point x="439" y="0" type="line" smooth="yes"/>
			<point x="450" y="0"/>
			<point x="460" y="12"/>
			<point x="462" y="27" type="curve" smooth="yes"/>
			<point x="531" y="673" type="line" smooth="yes"/>
			<point x="533" y="689"/>
			<point x="525" y="700"/>
			<point x="511" y="700" type="curve" smooth="yes"/>
			<point x="115" y="700" type="line" smooth="yes"/>
			<point x="98" y="700"/>
			<point x="88" y="689"/>
			<point x="86" y="673" type="curve" smooth="yes"/>
			<point x="17" y="27" type="line" smooth="yes"/>
			<point x="15" y="12"/>
			<point x="24" y="0"/>
			<point x="43" y="0" type="curve" smooth="yes"/>
		</contour>
		<contour>
			<point x="70" y="45" type="line"/>
			<point x="135" y="655" type="line"/>
			<point x="478" y="655" type="line"/>
			<point x="414" y="45" type="line"/>
		</contour>
	</outline>
</glyph>
<glyph name="a.sc" format="2">
  <advance width="323"/>
  <outline>
    <contour>
      <point x="203" y="359" type="line"/>
      <point x="204" y="365" type="line"/>
      <point x="207" y="381"/>
      <point x="196" y="396"/>
      <point x="178" y="396" type="curve" smooth="yes"/>
      <point x="163" y="396"/>
      <point x="159" y="387"/>
      <point x="155" y="377" type="curve" smooth="yes"/>
      <point x="1" y="35" type="line" smooth="yes"/>
      <point x="-7" y="18"/>
      <point x="6" y="0"/>
      <point x="23" y="0" type="curve" smooth="yes"/>
      <point x="38" y="0"/>
      <point x="44" y="6"/>
      <point x="51" y="21" type="curve" smooth="yes"/>
    </contour>
    <contour>
      <point x="75" y="175" type="line"/>
      <point x="216" y="175" type="line"/>
      <point x="209" y="216" type="line"/>
      <point x="95" y="216" type="line"/>
    </contour>
    <contour>
      <point x="205" y="378" type="line"/>
      <point x="157" y="358" type="line"/>
      <point x="209" y="25" type="line" smooth="yes"/>
      <point x="211" y="13"/>
      <point x="218" y="0"/>
      <point x="237" y="0" type="curve" smooth="yes"/>
      <point x="252" y="0"/>
      <point x="262" y="10"/>
      <point x="259" y="28" type="curve" smooth="yes"/>
    </contour>
  </outline>
</glyph>
<glyph name="a.ss01" format="2">
	<advance width="389"/>
	<outline>
		<contour>
			<point x="247" y="109" type="curve"/>
			<point x="260" y="241" type="line"/>
			<point x="207" y="110"/>
			<point x="150" y="46"/>
			<point x="121" y="46" type="curve" smooth="yes"/>
			<point x="94" y="46"/>
			<point x="84" y="61"/>
			<point x="84" y="126" type="curve" smooth="yes"/>
			<point x="84" y="184"/>
			<point x="117" y="300"/>
			<point x="188" y="300" type="curve" smooth="yes"/>
			<point x="201" y="300"/>
			<point x="254" y="300"/>
			<point x="262" y="300" type="curve"/>
			<point x="267" y="350" type="line"/>
			<point x="255" y="350"/>
			<point x="201" y="350"/>
			<point x="185" y="350" type="curve" smooth="yes"/>
			<point x="82" y="350"/>
			<point x="34" y="211"/>
			<point x="34" y="121" type="curve" smooth="yes"/>
			<point x="34" y="21"/>
			<point x="75" y="-4"/>
			<point x="113" y="-4" type="curve" smooth="yes"/>
			<point x="167" y="-4"/>
			<point x="211" y="45"/>
		</contour>
		<contour>
			<point x="307" y="316" type="line" smooth="yes"/>
			<point x="309" y="336"/>
			<point x="301" y="350"/>
			<point x="259" y="350" type="curve"/>
			<point x="238" y="146" type="line" smooth="yes"/>
			<point x="231" y="78"/>
			<point x="238" y="0"/>
			<point x="308" y="0" type="curve" smooth="yes"/>
			<point x="341" y="0"/>
			<point x="353" y="17"/>
			<point x="372" y="50" type="curve" smooth="yes"/>
			<point x="388" y="79"/>
			<point x="391" y="86"/>
			<point x="390" y="94" type="curve" smooth="yes"/>
			<point x="389" y="109"/>
			<point x="377" y="116"/>
			<point x="366" y="116" type="curve" smooth="yes"/>
			<point x="354" y="116"/>
			<point x="346" y="108"/>
			<point x="344" y="104" type="curve" smooth="yes"/>
			<point x="332" y="81" type="line" smooth="yes"/>
			<point x="320" y="59"/>
			<point x="311" y="46"/>
			<point x="304" y="46" type="curve" smooth="yes"/>
			<point x="284" y="46"/>
			<point x="286" y="124"/>
			<point x="287" y="132" type="curve" smooth="yes"/>
		</contour>
	</outline>
</glyph>
<glyph name="asciicircum.c2sc" format="2">
	<advance width="410"/>
	<outline>
		<contour>
			<point x="254" y="424" type="line" smooth="yes"/>
			<point x="267" y="436"/>
			<point x="264" y="451"/>
			<point x="254" y="459" type="curve" smooth="yes"/>
			<point x="244" y="468"/>
			<point x="228" y="471"/>
			<point x="215" y="459" type="curve" smooth="yes"/>
			<point x="90" y="348" type="line" smooth="yes"/>
			<point x="79" y="338"/>
			<point x="82" y="323"/>
			<point x="90" y="314" type="curve" smooth="yes"/>
			<point x="100" y="305"/>
			<point x="115" y="301"/>
			<point x="130" y="314" type="curve" smooth="yes"/>
		</contour>
		<contour>
			<point x="255" y="458" type="line"/>
			<point x="218" y="426" type="line"/>
			<point x="319" y="316" type="line" smooth="yes"/>
			<point x="331" y="303"/>
			<point x="346" y="305"/>
			<point x="354" y="313" type="curve" smooth="yes"/>
			<point x="364" y="321"/>
			<point x="366" y="337"/>
			<point x="355" y="349" type="curve" smooth="yes"/>
		</contour>
	</outline>
</glyph>
<glyph name="asterisk.c2sc" format="2">
	<advance width="302"/>
	<outline>
		<contour>
			<point x="250" y="413" type="line" smooth="yes"/>
			<point x="266" y="423"/>
			<point x="268" y="437"/>
			<point x="262" y="446" type="curve" smooth="yes"/>
			<point x="256" y="453"/>
			<point x="244" y="456"/>
			<point x="229" y="447" type="curve" smooth="yes"/>
			<point x="99" y="363" type="line" smooth="yes"/>
			<point x="83" y="352"/>
			<point x="80" y="338"/>
			<point x="87" y="330" type="curve" smooth="yes"/>
			<point x="92" y="322"/>
			<point x="104" y="320"/>
			<point x="120" y="329" type="curve" smooth="yes"/>
		</contour>
		<contour>
			<point x="220" y="331" type="line" smooth="yes"/>
			<point x="233" y="321"/>
			<point x="246" y="323"/>
			<point x="253" y="331" type="curve" smooth="yes"/>
			<point x="257" y="338"/>
			<point x="256" y="350"/>
			<point x="243" y="360" type="curve" smooth="yes"/>
			<point x="129" y="445" type="line" smooth="yes"/>
			<point x="116" y="455"/>
			<point x="104" y="453"/>
			<point x="99" y="445" type="curve" smooth="yes"/>
			<point x="92" y="438"/>
			<point x="93" y="425"/>
			<point x="107" y="415" type="curve" smooth="yes"/>
		</contour>
		<contour>
			<point x="201" y="462" type="line" smooth="yes"/>
			<point x="203" y="480"/>
			<point x="195" y="489"/>
			<point x="186" y="489" type="curve" smooth="yes"/>
			<point x="176" y="489"/>
			<point x="164" y="480"/>
			<point x="162" y="462" type="curve" smooth="yes"/>
			<point x="147" y="314" type="line" smooth="yes"/>
			<point x="145" y="297"/>
			<point x="153" y="289"/>
			<point x="162" y="287" type="curve" smooth="yes"/>
			<point x="172" y="286"/>
			<point x="184" y="295"/>
			<point x="186" y="314" type="curve" smooth="yes"/>
		</contour>
	</outline>
</glyph>
<glyph name="b.sc" format="2">
	<advance width="360"/>
	<outline>
		<contour>
			<point x="136" y="363" type="line" smooth="yes"/>
			<point x="138" y="384"/>
			<point x="127" y="396"/>
			<point x="112" y="396" type="curve" smooth="yes"/>
			<point x="97" y="396"/>
			<point x="88" y="387"/>
			<point x="86" y="369" type="curve" smooth="yes"/>
			<point x="51" y="32" type="line" smooth="yes"/>
			<point x="49" y="15"/>
			<point x="61" y="0"/>
			<point x="77" y="0" type="curve" smooth="yes"/>
			<point x="89" y="0"/>
			<point x="99" y="8"/>
			<point x="101" y="27" type="curve" smooth="yes"/>
		</contour>
		<contour>
			<point x="75" y="0" type="line"/>
			<point x="233" y="-1"/>
			<point x="296" y="18"/>
			<point x="305" y="92" type="curve" smooth="yes"/>
			<point x="313" y="175"/>
			<point x="220" y="224"/>
			<point x="110" y="224" type="curve"/>
			<point x="106" y="171" type="line"/>
			<point x="204" y="171"/>
			<point x="260" y="144"/>
			<point x="256" y="100" type="curve" smooth="yes"/>
			<point x="251" y="59"/>
			<point x="190" y="49"/>
			<point x="80" y="50" type="curve"/>
		</contour>
		<contour>
			<point x="109" y="171" type="line"/>
			<point x="285" y="171"/>
			<point x="317" y="212"/>
			<point x="324" y="281" type="curve" smooth="yes"/>
			<point x="333" y="360"/>
			<point x="230" y="396"/>
			<point x="111" y="396" type="curve"/>
			<point x="105" y="345" type="line"/>
			<point x="208" y="346"/>
			<point x="279" y="329"/>
			<point x="274" y="286" type="curve" smooth="yes"/>
			<point x="271" y="247"/>
			<point x="253" y="224"/>
			<point x="114" y="224" type="curve"/>
		</contour>
	</outline>
</glyph>
<glyph name="c.sc" format="2">
	<advance width="304"/>
	<outline>
		<contour>
			<point x="276" y="131" type="curve" smooth="yes"/>
			<point x="281" y="141"/>
			<point x="271" y="154"/>
			<point x="264" y="158" type="curve" smooth="yes"/>
			<point x="256" y="162"/>
			<point x="238" y="165"/>
			<point x="232" y="154" type="curve" smooth="yes"/>
			<point x="202" y="96"/>
			<point x="156" y="46"/>
			<point x="130" y="46" type="curve" smooth="yes"/>
			<point x="97" y="46"/>
			<point x="82" y="119"/>
			<point x="82" y="169" type="curve" smooth="yes"/>
			<point x="82" y="227"/>
			<point x="121" y="346"/>
			<point x="200" y="346" type="curve" smooth="yes"/>
			<point x="218" y="346"/>
			<point x="248" y="343"/>
			<point x="261" y="338" type="curve" smooth="yes"/>
			<point x="273" y="333"/>
			<point x="289" y="335"/>
			<point x="297" y="352" type="curve" smooth="yes"/>
			<point x="304" y="367"/>
			<point x="300" y="378"/>
			<point x="286" y="383" type="curve" smooth="yes"/>
			<point x="267" y="390"/>
			<point x="227" y="396"/>
			<point x="200" y="396" type="curve" smooth="yes"/>
			<point x="87" y="396"/>
			<point x="32" y="249"/>
			<point x="32" y="169" type="curve" smooth="yes"/>
			<point x="32" y="62"/>
			<point x="74" y="-4"/>
			<point x="130" y="-4" type="curve" smooth="yes"/>
			<point x="183" y="-4"/>
			<point x="240" y="60"/>
		</contour>
	</outline>
</glyph>
<glyph name="d.sc" format="2">
	<advance width="304"/>
	<outline>
		<contour>
			<point x="44" y="0" type="line"/>
			<point x="81" y="0" type="line" smooth="yes"/>
			<point x="182" y="0"/>
			<point x="272" y="78"/>
			<point x="285" y="210" type="curve" smooth="yes"/>
			<point x="296" y="315"/>
			<point x="206" y="396"/>
			<point x="100" y="396" type="curve" smooth="yes"/>
			<point x="79" y="396" type="line"/>
			<point x="94" y="342" type="line"/>
			<point x="107" y="342" type="line" smooth="yes"/>
			<point x="184" y="342"/>
			<point x="243" y="287"/>
			<point x="235" y="214" type="curve" smooth="yes"/>
			<point x="225" y="107"/>
			<point x="153" y="50"/>
			<point x="78" y="50" type="curve" smooth="yes"/>
			<point x="63" y="50" type="line"/>
		</contour>
		<contour>
			<point x="104" y="359" type="line" smooth="yes"/>
			<point x="106" y="377"/>
			<point x="98" y="396"/>
			<point x="80" y="396" type="curve" smooth="yes"/>
			<point x="63" y="396"/>
			<point x="56" y="388"/>
			<point x="54" y="369" type="curve" smooth="yes"/>
			<point x="18" y="29" type="line" smooth="yes"/>
			<point x="16" y="14"/>
			<point x="27" y="0"/>
			<point x="45" y="0" type="curve" smooth="yes"/>
			<point x="63" y="0"/>
			<point x="67" y="12"/>
			<point x="68" y="22" type="curve" smooth="yes"/>
		</contour>
	</outline>
</glyph>
<glyph name="degree.c2sc" format="2">
	<advance width="217"/>
	<outline>
		<contour>
			<point x="101" y="272" type="curve" smooth="yes"/>
			<point x="165" y="272"/>
			<point x="224" y="371"/>
			<point x="219" y="434" type="curve" smooth="yes"/>
			<point x="217" y="473"/>
			<point x="192" y="494"/>
			<point x="147" y="494" type="curve" smooth="yes"/>
			<point x="110" y="494"/>
			<point x="86" y="469"/>
			<point x="73" y="443" type="curve" smooth="yes"/>
			<point x="63" y="422"/>
			<point x="49" y="382"/>
			<point x="52" y="335" type="curve" smooth="yes"/>
			<point x="56" y="288"/>
			<point x="74" y="272"/>
		</contour>
		<contour>
			<point x="105" y="311" type="curve" smooth="yes"/>
			<point x="93" y="311"/>
			<point x="92" y="325"/>
			<point x="91" y="342" type="curve" smooth="yes"/>
			<point x="89" y="369"/>
			<point x="99" y="398"/>
			<point x="111" y="427" type="curve"/>
			<point x="121" y="447"/>
			<point x="131" y="454"/>
			<point x="148" y="454" type="curve" smooth="yes"/>
			<point x="170" y="454"/>
			<point x="178" y="448"/>
			<point x="180" y="427" type="curve" smooth="yes"/>
			<point x="183" y="389"/>
			<point x="136" y="311"/>
		</contour>
	</outline>
</glyph>
<glyph name="e.sc" format="2">
  <advance width="358"/>
  <outline>
    <contour>
      <point x="118" y="368" type="line" smooth="yes"/>
      <point x="120" y="385"/>
      <point x="113" y="396"/>
      <point x="95" y="396" type="curve" smooth="yes"/>
      <point x="78" y="396"/>
      <point x="70" y="387"/>
      <point x="69" y="374" type="curve" smooth="yes"/>
      <point x="32" y="29" type="line" smooth="yes"/>
      <point x="30" y="13"/>
      <point x="41" y="0"/>
      <point x="58" y="0" type="curve" smooth="yes"/>
      <point x="75" y="0"/>
      <point x="81" y="12"/>
      <point x="82" y="23" type="curve" smooth="yes"/>
    </contour>
    <contour>
      <point x="56" y="0" type="line"/>
      <point x="254" y="0" type="line" smooth="yes"/>
      <point x="269" y="0"/>
      <point x="277" y="12"/>
      <point x="277" y="26" type="curve" smooth="yes"/>
      <point x="277" y="39"/>
      <point x="267" y="51"/>
      <point x="250" y="51" type="curve" smooth="yes"/>
      <point x="74" y="51" type="line"/>
    </contour>
    <contour>
      <point x="90" y="190" type="line"/>
      <point x="262" y="190" type="line" smooth="yes"/>
      <point x="279" y="190"/>
      <point x="285" y="201"/>
      <point x="285" y="214" type="curve" smooth="yes"/>
      <point x="285" y="227"/>
      <point x="275" y="238"/>
      <point x="258" y="238" type="curve" smooth="yes"/>
      <point x="94" y="238" type="line"/>
    </contour>
    <contour>
      <point x="108" y="346" type="line"/>
      <point x="292" y="346" type="line" smooth="yes"/>
      <point x="308" y="346"/>
      <point x="316" y="358"/>
      <point x="316" y="372" type="curve" smooth="yes"/>
      <point x="316" y="384"/>
      <point x="306" y="396"/>
      <point x="288" y="396" type="curve" smooth="yes"/>
      <point x="97" y="396" type="line"/>
    </contour>
  </outline>
</glyph>
<glyph name="eight.c2sc" format="2">
	<advance width="366"/>
	<outline>
		<contour>
			<point x="178" y="229" type="line"/>
			<point x="127" y="231" type="line"/>
			<point x="66" y="184"/>
			<point x="52" y="132"/>
			<point x="54" y="94" type="curve" smooth="yes"/>
			<point x="57" y="53"/>
			<point x="83" y="-4"/>
			<point x="153" y="-4" type="curve" smooth="yes"/>
			<point x="228" y="-4"/>
			<point x="265" y="59"/>
			<point x="262" y="106" type="curve" smooth="yes"/>
			<point x="259" y="147"/>
			<point x="223" y="187"/>
			<point x="191" y="217" type="curve" smooth="yes"/>
		</contour>
		<contour>
			<point x="157" y="184" type="line" smooth="yes"/>
			<point x="182" y="161"/>
			<point x="210" y="131"/>
			<point x="212" y="106" type="curve" smooth="yes"/>
			<point x="213" y="79"/>
			<point x="188" y="44"/>
			<point x="154" y="44" type="curve" smooth="yes"/>
			<point x="125" y="44"/>
			<point x="105" y="68"/>
			<point x="103" y="99" type="curve" smooth="yes"/>
			<point x="101" y="124"/>
			<point x="111" y="154"/>
			<point x="154" y="187" type="curve"/>
		</contour>
		<contour>
			<point x="178" y="208" type="line"/>
			<point x="233" y="246"/>
			<point x="288" y="291"/>
			<point x="285" y="333" type="curve" smooth="yes"/>
			<point x="282" y="374"/>
			<point x="225" y="396"/>
			<point x="183" y="396" type="curve" smooth="yes"/>
			<point x="131" y="396"/>
			<point x="70" y="366"/>
			<point x="75" y="302" type="curve" smooth="yes"/>
			<point x="78" y="259"/>
			<point x="112" y="230"/>
			<point x="130" y="214" type="curve"/>
			<point x="170" y="239" type="line"/>
			<point x="153" y="254"/>
			<point x="127" y="275"/>
			<point x="125" y="306" type="curve" smooth="yes"/>
			<point x="122" y="339"/>
			<point x="154" y="348"/>
			<point x="180" y="348" type="curve" smooth="yes"/>
			<point x="204" y="348"/>
			<point x="237" y="340"/>
			<point x="238" y="333" type="curve" smooth="yes"/>
			<point x="239" y="317"/>
			<point x="164" y="252"/>
			<point x="119" y="227" type="curve"/>
		</contour>
	</outline>
</glyph>
<glyph name="exclam.c2sc" format="2">
	<advance width="214"/>
	<outline>
		<contour>
			<point x="80" y="-24" type="curve" smooth="yes"/>
			<point x="98" y="-24"/>
			<point x="114" y="-8"/>
			<point x="114" y="9" type="curve" smooth="yes"/>
			<point x="114" y="26"/>
			<point x="98" y="41"/>
			<point x="80" y="41" type="curve" smooth="yes"/>
			<point x="62" y="41"/>
			<point x="49" y="25"/>
			<point x="49" y="9" type="curve" smooth="yes"/>
			<point x="49" y="-7"/>
			<point x="62" y="-24"/>
		</contour>
		<contour>
			<point x="170" y="367" type="line" smooth="yes"/>
			<point x="173" y="382"/>
			<point x="164" y="396"/>
			<point x="150" y="396" type="curve" smooth="yes"/>
			<point x="132" y="396"/>
			<point x="123" y="386"/>
			<point x="120" y="372" type="curve" smooth="yes"/>
			<point x="90" y="205" type="line" smooth="yes"/>
			<point x="87" y="188"/>
			<point x="99" y="175"/>
			<point x="112" y="175" type="curve" smooth="yes"/>
			<point x="127" y="175"/>
			<point x="137" y="185"/>
			<point x="140" y="199" type="curve" smooth="yes"/>
		</contour>
	</outline>
</glyph>
<glyph name="exclamdown.c2sc" format="2">
	<advance width="149"/>
	<outline>
		<contour>
			<point x="108" y="420" type="curve" smooth="yes"/>
			<point x="90" y="420"/>
			<point x="74" y="404"/>
			<point x="74" y="387" type="curve" smooth="yes"/>
			<point x="74" y="370"/>
			<point x="90" y="355"/>
			<point x="108" y="355" type="curve" smooth="yes"/>
			<point x="126" y="355"/>
			<point x="139" y="371"/>
			<point x="139" y="387" type="curve" smooth="yes"/>
			<point x="139" y="403"/>
			<point x="126" y="420"/>
		</contour>
		<contour>
			<point x="18" y="29" type="line" smooth="yes"/>
			<point x="15" y="14"/>
			<point x="24" y="0"/>
			<point x="38" y="0" type="curve" smooth="yes"/>
			<point x="56" y="0"/>
			<point x="65" y="10"/>
			<point x="68" y="24" type="curve" smooth="yes"/>
			<point x="98" y="191" type="line" smooth="yes"/>
			<point x="101" y="208"/>
			<point x="89" y="221"/>
			<point x="76" y="221" type="curve" smooth="yes"/>
			<point x="61" y="221"/>
			<point x="51" y="211"/>
			<point x="48" y="197" type="curve" smooth="yes"/>
		</contour>
	</outline>
</glyph>
